<?xml version="1.0" encoding="utf-8"?>
<!-- Generator: Adobe Illustrator 27.5.0, SVG Export Plug-In . SVG Version: 6.00 Build 0)  -->
<svg version="1.1" xmlns="http://www.w3.org/2000/svg" xmlns:xlink="http://www.w3.org/1999/xlink" x="0px" y="0px"
	 viewBox="0 0 500 500" style="enable-background:new 0 0 500 500;" xml:space="preserve">
<g id="BACKGROUND">
	<g>
		<rect y="1.574" style="fill:#FFFFFF;" width="500" height="500"/>
	</g>
</g>
<g id="OBJECTS">
	<g>
		<path style="opacity:0.31;fill:#93D6F3;" d="M374.341,46.958c0,0,81.739-0.723,61.424,73.666
			c-21.11,71.757-60.72,39.348-89.919,53.52c-29.199,14.172-77.742-16.33-67.909-45.749S305.919,48.808,374.341,46.958z"/>
		<g>
			<g>
				<g>
					<path style="fill:#111111;" d="M399.139,97.8c0,0-2.071-3.29-5.816-8.163c0.078-0.105,0.11-0.245,0.034-0.394
						c-2.037-3.992-4.456-7.769-7.25-11.273c-2.655-3.329-5.611-6.605-9.167-8.994c-3.442-2.312-7.598-3.693-11.762-3.63
						c-3.042,0.046-6.725,0.893-8.97,3.157c-1.687,1.052-2.642,2.042-2.642,2.042c-0.667,0.03-1.509,0.371-2.467,0.933
						c-3.445,1.17-6.489,3.485-9.104,6.063c-4.159,4.102-7.969,8.698-10.983,13.709c-0.065,0.109-0.067,0.214-0.033,0.303
						c-0.733,0.875-1.158,1.396-1.158,1.396l8.234,6.128l3.255-2.553l-1.723,3.511l14.809,7.213l12.702,0.255l18.447-3.638
						l-1.468-2.617l2.106,1.915L399.139,97.8z M334.161,87.829c2.322-3.255,4.955-6.296,7.751-9.145
						c1.778-1.811,3.751-3.53,5.924-4.844C343.396,77.523,337.908,83.529,334.161,87.829z M377.564,72.077
						c-4.268-4.043-8.258-5.649-11.716-5.973c0.356,0.008,0.707,0.022,1.043,0.05c4.169,0.337,8.116,2.107,11.356,4.714
						c5.414,4.356,9.789,10.247,13.181,16.356C387.859,82.762,383.164,77.382,377.564,72.077z"/>
					<g>
						<path style="fill:#E09B6C;" d="M351.028,89.396c0,0-2.167-1.614-3.873,1.245c-1.706,2.859,1.291,6.455,4.933,4.334
							C352.872,92.162,351.028,89.396,351.028,89.396z"/>
						<g>
							<g>
								<path style="fill:#670000;" d="M351.462,95.23c0.056-0.347,0.105-0.72-0.034-1.054c-0.162-0.389-0.59-0.627-0.909-0.875
									c-0.381-0.296-0.762-0.593-1.143-0.889c-0.304-0.237-0.673-0.48-0.768-0.877c-0.04-0.169-0.301-0.097-0.26,0.072
									c0.079,0.33,0.31,0.574,0.566,0.783c0.35,0.286,0.714,0.558,1.071,0.836c0.34,0.265,0.721,0.511,1.029,0.814
									c0.3,0.295,0.248,0.741,0.187,1.12C351.175,95.328,351.435,95.402,351.462,95.23L351.462,95.23z"/>
							</g>
						</g>
					</g>
					<g>
						<path style="fill:#E09B6C;" d="M375.476,88.837c0,0,2.167-1.614,3.873,1.245c1.706,2.859-1.291,6.455-4.933,4.334
							C373.632,91.603,375.476,88.837,375.476,88.837z"/>
						<g>
							<g>
								<path style="fill:#670000;" d="M375.137,94.614c0.331,0.109,0.676-0.031,0.913-0.27c0.276-0.28,0.377-0.674,0.498-1.036
									c0.254-0.756,0.727-1.428,1.361-1.914c0.136-0.104,0.002-0.339-0.136-0.233c-0.568,0.435-1.029,0.997-1.321,1.652
									c-0.15,0.335-0.224,0.701-0.385,1.03c-0.155,0.317-0.476,0.637-0.858,0.51C375.043,94.299,374.972,94.56,375.137,94.614
									L375.137,94.614z"/>
							</g>
						</g>
					</g>
				</g>
				<g>
					<g>
						<path style="fill:#F9C7A5;" d="M407.57,54.787c0.006-0.003,0.015-0.008,0.015-0.008s-5.489-5.617-8.809-6.894
							c-3.319-1.277-10.851-3.064-11.745-2.681c-0.754,0.323-0.15,0.643,0.059,0.736c-0.538-0.231-4.354-1.831-5.421-1.119
							c-0.429,0.286-0.431,0.537-0.264,0.738c-0.857-0.403-1.984-0.814-2.289-0.355c-0.511,0.766,2.042,1.915,2.042,1.915
							s-2.809-0.766-2.553,0.383c0.255,1.149,9.319,7.277,9.319,7.277s-1.787-1.149-4.34,0.255
							c-0.671,0.369,2.298,1.404,3.447,3.574c2.426,1.149,6.894,1.787,6.894,1.787s4.891-1.165,6.809-0.2
							c-0.032,0.025-0.062,0.052-0.095,0.076c3.417,11.746,13.459,27.71,13.476,31.019c-7.854,7.495-25.523,21.091-26.383,21.546
							c-0.386,0.204-16.051,3.61-16.346-3.256c-0.227-5.285-0.118-6.192,0.007-6.206l-16.085-0.064c0,0-0.536,6.557-5.681,9.191
							c-3.68,1.628-9.437-0.928-9.528-1.164c-0.183-0.477-18.529-14.051-26.383-21.546c0.017-3.309,10.058-19.272,13.476-31.019
							c-0.032-0.024-0.063-0.051-0.095-0.076c1.918-0.965,6.809,0.2,6.809,0.2s4.468-0.638,6.894-1.787
							c1.149-2.17,4.118-3.205,3.447-3.574c-2.553-1.404-4.34-0.255-4.34-0.255s9.064-6.128,9.319-7.277
							c0.255-1.149-2.553-0.383-2.553-0.383s2.553-1.149,2.042-1.915c-0.306-0.458-1.432-0.048-2.289,0.355
							c0.167-0.202,0.165-0.452-0.264-0.738c-1.067-0.712-4.883,0.888-5.421,1.119c0.209-0.093,0.813-0.413,0.059-0.736
							c-0.894-0.383-8.426,1.404-11.745,2.681c-3.319,1.277-8.809,6.894-8.809,6.894s0.009,0.005,0.015,0.008
							c-6.913,10.214-18.821,24.522-20.307,37.404c5.648,11.454,15.545,28.335,30.335,35.033c4.48,6.09,8.249,15.663,8.11,16.017
							c-0.023,0.058,0.145-0.36,0.416-1.147c0.127,0.176,0.259,0.348,0.408,0.504c1.792,1.882,16.417-0.558,17.728,1.533
							c6.794,1.965,28.345,4.148,31.166-1.341c0.134-0.26,0.256-0.526,0.379-0.792c0.558,1.802,0.972,2.832,0.937,2.743
							c-0.139-0.354,3.63-9.927,8.11-16.017c14.789-6.698,24.687-23.579,30.334-35.033C426.391,79.308,414.484,65,407.57,54.787z"/>
						<path style="fill:#E09B6C;" d="M355.309,101.385c0,0-0.574,6.191,5.298,8.489c5.872,2.298,9.766-2.809,10.596-6.064
							C366.607,105.088,356.522,102.854,355.309,101.385z"/>
					</g>
					<g>
						<g>
							<path style="fill:#670000;" d="M336.883,46.69c1.437-0.843,2.894-1.652,4.369-2.426c0.154-0.081,0.017-0.314-0.136-0.233
								c-1.475,0.774-2.932,1.583-4.369,2.425C336.597,46.544,336.733,46.778,336.883,46.69L336.883,46.69z"/>
						</g>
					</g>
					<g>
						<g>
							<path style="fill:#670000;" d="M336.339,46.814c0.965,0.539,2,1.147,2.328,2.277c0.169,0.58,0.22,1.213,0.231,1.815
								c0.012,0.656-0.068,1.312-0.33,1.918c-0.068,0.158,0.164,0.296,0.233,0.136c0.259-0.602,0.365-1.239,0.368-1.893
								c0.003-0.674-0.053-1.399-0.242-2.049c-0.349-1.203-1.421-1.863-2.452-2.438C336.323,46.497,336.187,46.73,336.339,46.814
								L336.339,46.814z"/>
						</g>
					</g>
					<g>
						<g>
							<path style="fill:#670000;" d="M346.831,45.304c-1.372,0.968-2.744,1.936-4.116,2.904c-1.286,0.907-2.615,1.776-3.801,2.813
								c-0.131,0.115,0.06,0.305,0.191,0.191c1.207-1.055,2.565-1.937,3.873-2.86c1.33-0.938,2.66-1.876,3.989-2.814
								C347.108,45.438,346.974,45.204,346.831,45.304L346.831,45.304z"/>
						</g>
					</g>
					<g>
						<g>
							<path style="fill:#670000;" d="M338.795,48.413c2.58-1.256,5.093-2.643,7.531-4.157c0.147-0.091,0.012-0.325-0.136-0.233
								c-2.437,1.514-4.951,2.901-7.531,4.157C338.502,48.256,338.639,48.489,338.795,48.413L338.795,48.413z"/>
						</g>
					</g>
					<g>
						<g>
							<path style="fill:#670000;" d="M389.388,54.087c-0.328-2.724,1.907-4.693,4.003-5.98c0.148-0.091,0.012-0.324-0.136-0.233
								c-2.171,1.333-4.476,3.396-4.137,6.213C389.138,54.257,389.408,54.259,389.388,54.087L389.388,54.087z"/>
						</g>
					</g>
					<g>
						<g>
							<path style="fill:#670000;" d="M386.995,46.007c0.599,0.665,1.438,1.09,2.199,1.539c0.816,0.482,1.649,0.934,2.529,1.291
								c0.161,0.065,0.231-0.196,0.072-0.26c-0.857-0.348-1.669-0.794-2.464-1.264c-0.742-0.437-1.561-0.85-2.145-1.497
								C387.069,45.686,386.879,45.878,386.995,46.007L386.995,46.007z"/>
						</g>
					</g>
					<g>
						<g>
							<path style="fill:#670000;" d="M380.73,47.252c3.023,1.379,6,2.857,8.925,4.433c0.153,0.083,0.289-0.151,0.136-0.233
								c-2.925-1.576-5.901-3.054-8.925-4.433C380.71,46.948,380.572,47.18,380.73,47.252L380.73,47.252z"/>
						</g>
					</g>
					<g>
						<g>
							<path style="fill:#670000;" d="M381.401,45.685c1.569,0.487,3.008,1.481,4.434,2.278c1.472,0.822,2.943,1.645,4.415,2.467
								c0.152,0.085,0.288-0.148,0.136-0.233c-1.522-0.851-3.045-1.701-4.567-2.552c-1.401-0.783-2.805-1.741-4.346-2.22
								C381.307,45.373,381.235,45.633,381.401,45.685L381.401,45.685z"/>
						</g>
					</g>
				</g>
				<g>
					<path style="fill:#F9C7A5;" d="M350.777,87.492c0,0,0.511,9.532,2.042,12.426c1.532,2.894,6.043,7.713,10.979,7.457
						c4.936-0.255,9.532-5.075,10.468-8.649c0.936-3.575,1.447-10.298,1.362-13.362c-0.085-3.064-2.383-14.638-8-14.383
						C362.011,71.237,348.309,67.151,350.777,87.492z"/>
					<g>
						<g>
							<path style="fill:#670000;" d="M367.165,89.505c-0.265-0.107,1.798,1.907,4.334,0.002c0.837-0.629,1.215-1.094,1.215-1.094
								s-0.164-0.086-0.634,0.187C371.077,89.182,369.085,90.284,367.165,89.505z"/>
							<g>
								<g>
									<path style="fill:#670000;" d="M371.3,89.584c0.211,0.249,0.398,0.503,0.578,0.784c0.038,0.059,0.122,0.089,0.185,0.048
										c0.06-0.038,0.089-0.121,0.048-0.185c-0.187-0.293-0.395-0.573-0.62-0.838c-0.046-0.054-0.144-0.051-0.191,0
										C371.247,89.451,371.251,89.526,371.3,89.584L371.3,89.584z"/>
								</g>
							</g>
							<g>
								<g>
									<path style="fill:#670000;" d="M369.437,90.152c0.048,0.289,0.125,0.573,0.232,0.846c0.025,0.066,0.092,0.118,0.166,0.094
										c0.064-0.021,0.122-0.096,0.094-0.166c-0.106-0.273-0.184-0.557-0.232-0.846c-0.012-0.07-0.102-0.115-0.166-0.094
										C369.455,90.01,369.424,90.077,369.437,90.152L369.437,90.152z"/>
								</g>
							</g>
							<g>
								<g>
									<path style="fill:#670000;" d="M372.534,88.643c0.371,0.121,0.741,0.243,1.112,0.364c0.069,0.023,0.147-0.026,0.166-0.094
										c0.02-0.073-0.025-0.143-0.094-0.166c-0.371-0.121-0.741-0.243-1.112-0.364c-0.069-0.023-0.147,0.026-0.166,0.094
										C372.419,88.55,372.464,88.62,372.534,88.643L372.534,88.643z"/>
								</g>
							</g>
						</g>
						<path style="fill:#670000;" d="M367.33,86.662c1.128-0.489,3.713-1.277,6.159-0.638c-1.511-1.032-5.266-1.245-7.074,0.064
							C365.171,87.056,366.202,87.151,367.33,86.662z"/>
						<g>
							<path style="fill:#670000;" d="M360.963,89.837c0.267-0.1-1.85,1.857-4.332-0.116c-0.82-0.651-1.185-1.126-1.185-1.126
								s0.167-0.082,0.629,0.204C357.062,89.408,359.023,90.563,360.963,89.837z"/>
							<g>
								<g>
									<path style="fill:#670000;" d="M356.64,89.61c-0.232,0.259-0.447,0.534-0.642,0.822c-0.04,0.059-0.013,0.152,0.048,0.185
										c0.068,0.036,0.142,0.014,0.185-0.048c0.187-0.276,0.376-0.517,0.6-0.767c0.047-0.053,0.056-0.14,0-0.191
										C356.779,89.563,356.69,89.554,356.64,89.61L356.64,89.61z"/>
								</g>
							</g>
							<g>
								<g>
									<path style="fill:#670000;" d="M358.416,90.346c-0.056,0.288-0.141,0.569-0.255,0.839c-0.027,0.065,0.03,0.151,0.094,0.166
										c0.079,0.018,0.137-0.024,0.166-0.094c0.114-0.27,0.199-0.551,0.255-0.839c0.013-0.069-0.019-0.149-0.094-0.166
										C358.515,90.237,358.43,90.272,358.416,90.346L358.416,90.346z"/>
								</g>
							</g>
							<g>
								<g>
									<path style="fill:#670000;" d="M355.552,88.567c-0.374,0.111-0.748,0.223-1.121,0.334c-0.166,0.049-0.095,0.31,0.072,0.26
										c0.374-0.111,0.748-0.223,1.122-0.334C355.79,88.778,355.719,88.518,355.552,88.567L355.552,88.567z"/>
								</g>
							</g>
						</g>
						<path style="fill:#670000;" d="M360.178,86.678c-1.128-0.489-3.713-1.277-6.16-0.638c1.511-1.032,5.266-1.245,7.074,0.064
							C362.338,87.072,361.306,87.167,360.178,86.678z"/>
						<g>
							<path style="fill:#F90B28;" d="M359.649,99.598c0,0,2.617-0.638,4.34-0.575c1.723,0.064,2.745,0.511,2.745,0.511
								S363.862,101.322,359.649,99.598z"/>
							<g>
								<g>
									<g>
										<path style="fill:#670000;" d="M358.277,98.584c0.028,0,0.057,0,0.085,0c0.035,0,0.071-0.015,0.095-0.04
											c0.023-0.023,0.041-0.062,0.04-0.095c-0.002-0.035-0.013-0.071-0.04-0.096c-0.026-0.024-0.059-0.039-0.095-0.039
											c-0.028,0-0.057,0-0.085,0c-0.035,0-0.071,0.015-0.096,0.039c-0.023,0.023-0.041,0.062-0.039,0.096
											c0.001,0.035,0.013,0.071,0.039,0.095C358.208,98.569,358.24,98.584,358.277,98.584L358.277,98.584z"/>
									</g>
								</g>
								<g>
									<g>
										<path style="fill:#670000;" d="M358.691,99.089c1.019,1.116,2.849,1.352,4.283,1.381c1.765,0.035,3.456-0.478,4.934-1.435
											c0.145-0.094,0.01-0.328-0.136-0.233c-1.401,0.907-2.984,1.407-4.657,1.4c-1.39-0.006-3.244-0.22-4.233-1.303
											C358.764,98.769,358.574,98.96,358.691,99.089L358.691,99.089z"/>
									</g>
								</g>
								<g>
									<g>
										<path style="fill:#670000;" d="M368.787,98.46c0.028-0.028,0.057-0.057,0.085-0.085c0.025-0.024,0.04-0.061,0.04-0.095
											c0-0.033-0.015-0.073-0.04-0.095c-0.026-0.024-0.059-0.041-0.095-0.04c-0.036,0.002-0.07,0.014-0.096,0.04
											c-0.028,0.028-0.057,0.057-0.085,0.085c-0.025,0.024-0.04,0.061-0.04,0.095c0,0.033,0.015,0.073,0.04,0.095
											c0.026,0.024,0.059,0.041,0.095,0.04C368.728,98.498,368.762,98.485,368.787,98.46L368.787,98.46z"/>
									</g>
								</g>
							</g>
							<path style="opacity:0.55;fill:#F90B28;" d="M359.458,99.63c0,0,0.574,2.075,3.606,2.106
								c3.032,0.032,3.862-2.202,3.862-2.202S363.671,101.513,359.458,99.63z"/>
						</g>
						<g>
							<g>
								<path style="fill:#670000;" d="M363.299,87.335c-0.038,1.051-0.078,2.107-0.255,3.145c-0.183,1.073-0.541,2.031-1.073,2.977
									c-0.39,0.693-0.476,1.406,0.091,2.031c0.613,0.676,1.565,0.761,2.42,0.822c0.173,0.012,0.173-0.258,0-0.27
									c-0.893-0.064-2.016-0.17-2.463-1.083c-0.26-0.531-0.007-1.028,0.26-1.492c0.206-0.357,0.391-0.721,0.541-1.105
									c0.622-1.592,0.688-3.336,0.749-5.024C363.576,87.162,363.305,87.162,363.299,87.335L363.299,87.335z"/>
							</g>
						</g>
					</g>
					<path style="fill:#111111;" d="M379.798,78.566c-1.872-8.34-13.106-8.851-14.128-8c-0.115,0.096-0.201,0.209-0.275,0.328
						c-8.463-3.37-14.265,0.169-16.065,8.353c-1.872,8.511,1.698,10.148,1.698,10.148l0.509-0.599
						c5.904-3.91,10.12-9.785,13.752-15.775c0.055,0.203,0.104,0.332,0.104,0.332l0.358,0.55c0.43,2.93,1.547,5.733,3.286,8.14
						c0.948,1.312,2.057,2.503,3.318,3.519c0.568,0.457,1.17,0.899,1.809,1.259l1.718,2.638
						C375.883,89.46,381.671,86.907,379.798,78.566z M353.727,86.224l9.119-10.717C360.27,79.462,357.342,83.225,353.727,86.224z
						 M372.378,84.607c-1.116-0.971-2.11-2.083-2.947-3.303c-1.195-1.742-2.07-3.684-2.587-5.723l6.285,9.651
						C372.87,85.025,372.618,84.815,372.378,84.607z"/>
				</g>
			</g>
			<g>
				<g>
					<path style="fill:#1B3A00;" d="M301.841,229.662c0,0-5.617,3.745-11.404,6.638c14.809-0.34,109.277,5.617,135.489-1.532
						c8.34-1.021,12.085-3.234,12.085-3.234l-9.532-5.957L301.841,229.662z"/>
					<g>
						<path style="fill:#E09B6C;" d="M373.117,231.79c0,0-8.681-0.638-17.234-1.787c-8.553-1.149-18,0.128-18,0.128
							s-6.766-5.234,3.064-7.149s11.844-3.219,16.468-2.755c3.389,0.34,8.076,1.032,16.468-1.277
							C373.628,221.12,373.117,231.79,373.117,231.79z"/>
						<g>
							<path style="fill:#B48100;" d="M338.607,190.736c0,0-0.34,6.84-12.723,9.011c-12.383,2.17-26.043,8.681-28.596,12.894
								c-2.553,4.213-3.957,8.936-0.255,12.383c3.702,3.447,11.617,8.681,18.638,8.553c7.021-0.128,20.809-4.851,29.106-7.404
								c8.298-2.553,10.851-2.298,10.851-2.298s13.787-4.723,17.489-5.234c-2.043,3.319-3.191,8.681-1.021,13.149
								c19.787,4.085,44.043,5.362,52.34-0.894c8.298-6.255,10.468-9.319,9.447-15.191c-1.021-5.872-8.553-10.085-13.149-11.872
								c-4.596-1.787-23.489-5.745-27.319-9.319c-3.83-3.575-6.468-7.351-6.468-7.351L338.607,190.736z"/>
							<g>
								<g>
									<path style="fill:#755204;" d="M415.376,216.228c-3.613-1.295-7.207-2.719-10.869-3.871
										c-3.373-1.061-6.769-0.826-10.155,0.056c-3.651,0.951-7.178,2.374-10.773,3.512c-3.656,1.158-7.346,2.203-11.063,3.149
										c-0.467,0.119-0.269,0.842,0.199,0.723c3.562-0.906,7.099-1.904,10.606-3.005c3.458-1.086,6.849-2.406,10.332-3.409
										c3.734-1.075,7.365-1.396,11.099-0.158c3.5,1.16,6.953,2.482,10.424,3.725C415.632,217.114,415.828,216.39,415.376,216.228
										L415.376,216.228z"/>
								</g>
							</g>
							<path style="fill:#F9C7A5;" d="M354.166,224.896c0,0,24.377-10.773,32.694-9.668c-3.346-4.696-8.317-8.839-17.112-4.834
								c-5.353,1.519-8.317-0.553-10.42-1.381c-2.103-0.829-5.998-1.426-9.317,2.148
								C351.923,216.272,354.548,220.891,354.166,224.896z"/>
							<g>
								<g>
									<path style="fill:#755204;" d="M353.819,219.999c-0.829-3.084-2.212-6.774-4.602-9.011
										c-0.327-0.306-0.656-0.606-1.098-0.653c-0.614-0.066-1.479,0.304-2.117,0.349c-0.601,0.043-1.206,0.039-1.808,0.025
										c-2.405-0.056-4.802-0.337-7.189-0.624c-8.199-0.986-17.559-2.094-24.327,3.743c-0.366,0.316,0.166,0.844,0.53,0.53
										c6.448-5.561,15.506-4.527,23.317-3.582c2.159,0.261,4.321,0.518,6.494,0.633c0.992,0.053,1.991,0.091,2.983,0.023
										c0.771-0.053,1.86-0.517,2.5-0.083c1.214,0.823,2.035,2.58,2.675,3.849c0.805,1.597,1.454,3.271,1.919,4.998
										C353.221,220.663,353.945,220.466,353.819,219.999L353.819,219.999z"/>
								</g>
							</g>
							<path style="opacity:0.24;fill:#755204;" d="M387.283,187.849c-0.315-1.706-0.898-3.324-0.966-5.084
								c-3.476-6.494-13.32-11.178-24.93-11.178c-7.928,0-14.729,1.973-19.546,5.426c-0.014,2.609-1.139,5.414-1.798,7.914
								c-0.338,1.283-0.731,2.547-1.17,3.796c-0.007,0.476-0.054,0.957-0.149,1.437c0.034,0.154,0.043,0.31-0.004,0.46
								c-0.334,1.063-0.753,2.118-1.418,3.017c-0.047,0.208-0.097,0.415-0.142,0.624c3.978,5.88,13.326,10.009,24.227,10.009
								c13.673,0,24.903-6.495,26.156-14.794C387.465,188.932,387.383,188.389,387.283,187.849z"/>
						</g>
					</g>
				</g>
				<g>
					<path style="fill:#F9C7A5;" d="M383.721,168.656c-0.973,0.414-1.943,0.835-2.914,1.249c-3.012,1.284-6.07,2.487-9.254,3.112
						c-3.429,0.673-6.891,0.928-10.37,0.885c-6.288-0.078-12.545-0.989-18.832-1.052c-0.461,4.088-0.999,7.365-0.999,7.365
						s-1.58,5.25-2.766,10.458c0.941,0.709,1.684,1.184,2.751,1.717c0.372,0.186,0.751,0.36,1.131,0.533
						c2.231,0.722,5.386,1.925,10.654,3.207c9.795,2.383,19.274,0.053,24.125-1.989c5.793-2.439,10.043-6.692,10.043-6.692
						S384.407,174.958,383.721,168.656z"/>
					<g>
						<g>
							<path style="fill:#E09B6C;" d="M369.73,171.492c-6.69,1.691-11.822-0.368-18.596-0.919c-2.943-0.239-5.888-0.458-8.838-0.507
								c-0.096,1.799-0.076,3.65-0.264,5.415c3.17,0.035,6.151,0.289,9.313,0.539c6.968,0.55,12.247,2.61,19.129,0.919
								c3.789-0.931,10.45-1.878,14.068-3.404c-0.29-2.181-0.329-3.866-0.702-5.458C380.306,169.583,373.385,170.568,369.73,171.492
								z"/>
						</g>
					</g>
				</g>
				<g>
					<path style="fill:#FFFFFF;" d="M348.607,126.141c0,0,13.404,5.362,26.043-0.766c0.766,9.83-10.596,20.17-19.021,15.064
						C347.202,135.332,348.096,128.949,348.607,126.141z"/>
					<path style="fill:#022B45;" d="M339.934,172.62c3.528,0.035,7.052,0.268,10.572,0.518c7.756,0.55,13.632,2.61,21.292,0.919
						c4.217-0.931,11.632-1.877,15.66-3.404c-0.78-5.262-3.317-7.381-0.426-13.245c3.064-6.213,2.298-16.851,2.298-16.851
						s-1.191-2.383-6.809-9.532c-5.617-7.149-8.255-17.521-8.255-17.521l-1.532-0.894c0,0,0-1.33,0,1.053
						c0,2.383,3.064,15.574-1.532,21.021c-4.596,5.447-15.915,2.979-20.17-2.128c-4.255-5.106-1.021-20.202-1.021-20.202
						l-1.468,0.511c0,0-3.061,6.114-4.745,15.351c-0.809,4.436-3.106,7.181-5.447,11.66c-1.023,1.958-2.468,5.447-2.383,8.511
						c0.085,3.064,3.659,11.745,4.511,13.872C340.664,165.187,340.349,169.116,339.934,172.62z"/>
					<g>
						<g>
							<path style="fill:#011119;" d="M340.583,162.094c1.053,2.174,3.32,3.635,5.725,3.744c0.483,0.022,0.481-0.728,0-0.75
								c-2.156-0.098-4.141-1.437-5.078-3.373C341.021,161.281,340.374,161.661,340.583,162.094L340.583,162.094z"/>
						</g>
					</g>
					<g>
						<g>
							<path style="fill:#011119;" d="M386.402,156.948c-1.285,2.684-3.349,4.938-5.918,6.442c-0.416,0.244-0.039,0.892,0.379,0.648
								c2.672-1.564,4.849-3.917,6.187-6.711C387.257,156.894,386.611,156.513,386.402,156.948L386.402,156.948z"/>
						</g>
					</g>
					<path style="fill:#011119;" d="M375.798,122.949c0-3.584-0.555-7.032-1.851-9.894l-1.149-0.638c0,0-0.021-1.149-0.021,1.234
						c0,2.383,3.064,15.575-1.532,21.021c-4.596,5.447-15.915,2.979-20.17-2.128c-4.255-5.106-1.021-20.202-1.021-20.202
						l-0.502,0.175c-1.481,2.996-2.349,6.577-2.349,10.432c0,10.505,6.401,19.021,14.298,19.021
						C369.397,141.971,375.798,133.454,375.798,122.949z"/>
				</g>
			</g>
		</g>
	</g>
	<g>
		<path style="opacity:0.31;fill:#93D6F3;" d="M303.756,289.577c0,0-64.319,50.447-2.021,95.894
			c61.277,42.894,72-7.149,103.66-14.298c31.66-7.149,50.553-61.277,24.511-78.128C403.862,276.194,358.373,248.322,303.756,289.577
			z"/>
		<g>
			<g>
				<path style="fill:#022B45;" d="M301.309,448.215c0,0-5.617,3.745-11.404,6.638c14.809-0.34,109.277,5.617,135.489-1.532
					c8.34-1.021,12.085-3.234,12.085-3.234l-9.532-5.957L301.309,448.215z"/>
				<g>
					<path style="fill:#E8AA80;" d="M371.564,450.343c0,0-8.681-0.731-17.234-2.047c-8.553-1.316-18,0.146-18,0.146
						s-6.766-5.993,3.064-8.186c9.83-2.193,14.043-2.924,18.511-4.385c4.468-1.462,7.277,3.216,14.298,2.923
						C371.947,441.28,371.564,450.343,371.564,450.343z"/>
					<g>
						<path style="fill:#FF5060;" d="M335.862,409.63c0,0,1.872,6.5-10.511,8.67c-12.383,2.17-26.042,8.681-28.596,12.894
							c-2.553,4.213-3.957,8.936-0.255,12.383c3.702,3.447,11.617,8.681,18.638,8.553c7.021-0.128,20.809-4.851,29.106-7.404
							c8.298-2.553,10.851-2.298,10.851-2.298s13.787-4.723,17.489-5.234c-2.043,3.319-3.191,8.681-1.021,13.149
							c19.787,4.085,44.043,5.362,52.34-0.894c8.298-6.255,10.468-9.319,9.447-15.191c-1.021-5.872-8.553-10.085-13.149-11.872
							c-4.596-1.787-22.979-7.351-26.808-10.926c-3.83-3.574-2.723-4.553-2.723-4.553L335.862,409.63z"/>
						<path style="fill:#F42A43;" d="M389.564,403.034c-1.223-0.197-0.878,0.394-2.107,0.235c-9.301-1.207-18.636-1.46-27.952-0.276
							c-4.424,0.562-8.822,1.385-13.174,2.356c-3.868,0.863-6.298,0.032-9.745,2.026c0.158,1.265-1.145,4.463-1.155,5.726
							c5.086,4.975,15.089,8.359,26.602,8.359c12.993,0,25.455-5.871,29.702-11.915C391.644,407.09,389.064,405.448,389.564,403.034
							z"/>
					</g>
					<path style="fill:#F9C7A5;" d="M353.181,442.481c0,0,24.971-8.622,33.447-7.639c-3.41-4.181-8.476-7.869-17.44-4.303
						c-5.456,1.353-8.476-0.492-10.62-1.229s-5.846-0.369-8.281,1.352C352.236,435.211,353.571,438.915,353.181,442.481z"/>
					<g>
						<g>
							<path style="fill:#BF162A;" d="M414.844,434.781c-3.613-1.295-7.207-2.719-10.868-3.871
								c-3.373-1.061-6.769-0.826-10.155,0.056c-3.651,0.951-7.178,2.374-10.773,3.512c-3.656,1.158-7.346,2.203-11.063,3.149
								c-0.467,0.119-0.269,0.842,0.199,0.723c3.562-0.906,7.099-1.904,10.606-3.005c3.458-1.086,6.849-2.406,10.332-3.409
								c3.734-1.075,7.365-1.396,11.099-0.158c3.499,1.16,6.953,2.482,10.424,3.725C415.1,435.667,415.296,434.943,414.844,434.781
								L414.844,434.781z"/>
						</g>
					</g>
					<g>
						<g>
							<path style="fill:#BF162A;" d="M353.798,439.318c-0.667-3.476-2.223-7.298-4.951-9.685c-0.299-0.261-0.749-0.717-1.16-0.758
								c-0.262-0.026-0.735,0.172-0.976,0.216c-0.707,0.13-1.427,0.17-2.144,0.18c-2.542,0.036-5.094-0.275-7.613-0.574
								c-8.34-0.99-17.899-2.272-24.808,3.686c-0.366,0.316,0.166,0.844,0.53,0.53c6.586-5.68,15.845-4.48,23.797-3.524
								c2.238,0.269,4.483,0.528,6.737,0.609c1.053,0.038,2.109,0.04,3.156-0.1c0.31-0.042,0.681-0.172,0.984-0.174
								c0.463-0.003,0.595,0.118,0.966,0.44c2.643,2.291,4.116,6.007,4.758,9.354C353.166,439.991,353.889,439.79,353.798,439.318
								L353.798,439.318z"/>
						</g>
					</g>
				</g>
			</g>
			<g>
				<g>
					<path style="fill:#111111;" d="M395.405,309.515c-3.412-2.804-7.671-3.986-11.314-6.391c-1.33-0.878-2.539-1.916-3.62-3.072
						c-1.847-2.456-3.23-4.837-4.137-6.526c-0.039-0.096-0.077-0.192-0.117-0.287c-5.489,0.444-10.986,0.868-16.496,0.77
						c-2.884-0.051-5.731-0.314-8.588-0.659c-0.824,0.064-1.649,0.113-2.473,0.168c-1.146,1.509-2.367,2.959-3.706,4.307
						c-2.507,2.524-5.394,4.608-8.185,6.798c-2.59,2.033-5.121,4.189-7.087,6.852c-1.912,2.59-3.421,5.783-2.124,8.983
						c1.063,2.622,3.543,4.174,6.223,4.245c4.864,4.128,13.367,7.3,22.337,1.034c3.443-2.45,5.487-6.114,6.638-10.192
						c1.146,4.117,3.194,7.819,6.664,10.288c9.2,6.427,17.914,2.926,22.708-1.352c3.596,0.24,7.121-1.905,7.982-5.522
						C401.05,315.009,398.257,311.858,395.405,309.515z M338.819,306.396c-7.468,5.681-10.021,8.043-9.191,12.574
						c0.235,1.282,1.389,3.125,3.225,4.899c-3.66-0.665-6.029-4.619-4.559-8.482c1.445-3.795,4.713-6.765,7.789-9.265
						c3.043-2.473,6.292-4.704,9.094-7.461c1.026-1.009,1.97-2.09,2.882-3.199C346.122,298.747,343.043,303.183,338.819,306.396z
						 M392.908,323.74c1.703-1.704,2.776-3.446,3.001-4.674c0.83-4.532-1.723-6.894-9.191-12.575c-1.207-0.918-2.31-1.94-3.33-3.003
						c2.29,1.512,4.812,2.589,7.298,3.861c1.856,0.949,3.593,2.096,5.128,3.513c1.507,1.392,3.152,3.066,3.609,5.135
						C400.351,320.206,396.868,323.578,392.908,323.74z"/>
					<g>
						<path style="fill:#E09B6C;" d="M350.766,307.885c0,0-2.159-1.625-3.88,1.224c-1.721,2.85,1.257,6.462,4.911,4.36
							C352.595,310.661,350.766,307.885,350.766,307.885z"/>
						<g>
							<g>
								<path style="fill:#670000;" d="M351.186,313.783c0.056-0.347,0.105-0.72-0.033-1.054c-0.162-0.389-0.59-0.627-0.909-0.875
									c-0.381-0.296-0.762-0.593-1.143-0.889c-0.304-0.236-0.673-0.48-0.768-0.877c-0.04-0.169-0.301-0.097-0.26,0.072
									c0.079,0.33,0.31,0.574,0.566,0.783c0.35,0.286,0.714,0.558,1.071,0.836c0.34,0.265,0.721,0.511,1.029,0.814
									c0.3,0.295,0.248,0.741,0.187,1.12C350.898,313.882,351.158,313.955,351.186,313.783L351.186,313.783z"/>
							</g>
						</g>
					</g>
					<g>
						<path style="fill:#E09B6C;" d="M374.365,307.454c0,0,2.175-1.602,3.866,1.265c1.691,2.867-1.325,6.448-4.956,4.308
							C372.506,310.211,374.365,307.454,374.365,307.454z"/>
						<g>
							<g>
								<path style="fill:#670000;" d="M374.009,313.167c0.33,0.109,0.676-0.031,0.913-0.27c0.276-0.28,0.377-0.674,0.498-1.036
									c0.254-0.756,0.727-1.428,1.361-1.914c0.136-0.104,0.002-0.339-0.136-0.233c-0.568,0.435-1.029,0.997-1.321,1.652
									c-0.15,0.335-0.224,0.701-0.385,1.03c-0.155,0.317-0.476,0.637-0.858,0.51C373.915,312.852,373.844,313.113,374.009,313.167
									L374.009,313.167z"/>
							</g>
						</g>
					</g>
				</g>
				<g>
					<path style="fill:#F9C7A5;" d="M410.111,388.173c-0.844-7.165-6.383-32.809-8.681-41.489c-2.037-7.697-10.8-10.183-19.79-13.85
						c0.006-0.032,0.01-0.054,0.01-0.054s-0.157-0.039-0.431-0.117c-0.101-0.042-0.202-0.081-0.303-0.123
						c-0.014,0.007-0.027,0.015-0.04,0.022c-2.412-0.727-9.694-3.303-10.332-8.09c-0.699-5.244-0.017-5.593,0.107-5.615
						l-16.448,1.785c0,0,1.021,7.532-3.957,10.468c-10.085,4.596-20.936,6.638-23.234,15.319
						c-2.298,8.681-7.021,34.468-8.681,41.489c-0.626,2.648-0.779,4.787-0.549,6.596c4.317-2.351,9.297-3.514,14.083-4.537
						c3.976-6.929,9.988-27.291,10.85-33.08c0.589-3.957,12.004,1.577,21.211,2.402c-0.025,0.102-0.055,0.201-0.079,0.302
						c0.67-0.043,1.354-0.116,2.046-0.208c2.024,0.015,3.877-0.28,5.41-1.044c7.249-1.722,13.977-4.211,14.426-1.197
						c0.887,5.957,7.226,27.341,11.189,33.645c2.788-0.09,5.577-0.208,8.357,0.045c1.831,0.167,1.39,2.602,3.184,3.002
						C408.368,392.76,410.628,392.566,410.111,388.173z"/>
					<path style="fill:#E09B6C;" d="M353.821,318.108c0,0-0.614,6.614,5.659,9.068c6.273,2.455,10.432-3,11.318-6.478
						C365.889,322.062,355.116,319.676,353.821,318.108z"/>
				</g>
				<g>
					<path style="fill:#F9C7A5;" d="M350.245,306.045c0,0,0.511,9.532,2.043,12.425c1.532,2.894,6.043,7.394,10.979,7.138
						c4.936-0.255,9.468-5.745,10.404-9.319s1.511-9.309,1.426-12.372c-0.085-3.064-2.383-14.638-8-14.383
						C361.479,289.79,347.777,285.705,350.245,306.045z"/>
					<g>
						<g>
							<path style="fill:#670000;" d="M366.57,308.441c-0.264-0.107,1.799,1.907,4.334,0.002c0.837-0.629,1.215-1.094,1.215-1.094
								s-0.164-0.086-0.635,0.187C370.481,308.118,368.489,309.22,366.57,308.441z"/>
							<g>
								<g>
									<path style="fill:#670000;" d="M370.704,308.52c0.211,0.249,0.398,0.503,0.578,0.784c0.038,0.06,0.122,0.089,0.185,0.048
										c0.059-0.038,0.089-0.121,0.048-0.185c-0.187-0.293-0.395-0.573-0.62-0.839c-0.046-0.054-0.144-0.051-0.191,0
										C370.652,308.387,370.655,308.463,370.704,308.52L370.704,308.52z"/>
								</g>
							</g>
							<g>
								<g>
									<path style="fill:#670000;" d="M368.841,309.088c0.048,0.289,0.125,0.573,0.232,0.846c0.025,0.066,0.092,0.118,0.166,0.094
										c0.064-0.021,0.122-0.096,0.094-0.166c-0.106-0.273-0.184-0.557-0.232-0.846c-0.012-0.07-0.102-0.115-0.166-0.094
										C368.86,308.946,368.829,309.013,368.841,309.088L368.841,309.088z"/>
								</g>
							</g>
							<g>
								<g>
									<path style="fill:#670000;" d="M371.938,307.579c0.371,0.121,0.741,0.243,1.112,0.364c0.069,0.023,0.148-0.026,0.166-0.094
										c0.02-0.073-0.025-0.143-0.094-0.166c-0.371-0.121-0.741-0.243-1.112-0.364c-0.069-0.023-0.147,0.026-0.166,0.094
										C371.824,307.486,371.869,307.556,371.938,307.579L371.938,307.579z"/>
								</g>
							</g>
						</g>
						<path style="fill:#670000;" d="M366.351,305.534c1.128-0.489,3.713-1.277,6.16-0.638c-1.511-1.032-5.266-1.245-7.074,0.064
							C364.192,305.928,365.224,306.024,366.351,305.534z"/>
						<g>
							<path style="fill:#670000;" d="M359.219,308.582c0.267-0.1-1.85,1.857-4.332-0.116c-0.82-0.651-1.185-1.126-1.185-1.126
								s0.167-0.082,0.629,0.204C355.318,308.153,357.279,309.308,359.219,308.582z"/>
							<g>
								<g>
									<path style="fill:#670000;" d="M354.895,308.355c-0.232,0.259-0.447,0.534-0.642,0.822
										c-0.04,0.059-0.013,0.152,0.048,0.185c0.068,0.036,0.142,0.014,0.185-0.048c0.187-0.276,0.376-0.517,0.6-0.767
										c0.047-0.053,0.056-0.14,0-0.191C355.035,308.308,354.945,308.299,354.895,308.355L354.895,308.355z"/>
								</g>
							</g>
							<g>
								<g>
									<path style="fill:#670000;" d="M356.671,309.091c-0.056,0.288-0.141,0.569-0.255,0.839
										c-0.027,0.065,0.03,0.151,0.094,0.166c0.079,0.018,0.137-0.024,0.166-0.094c0.114-0.27,0.199-0.551,0.254-0.839
										c0.013-0.069-0.019-0.149-0.094-0.166C356.771,308.982,356.686,309.017,356.671,309.091L356.671,309.091z"/>
								</g>
							</g>
							<g>
								<g>
									<path style="fill:#670000;" d="M353.808,307.312c-0.374,0.111-0.748,0.223-1.122,0.334c-0.166,0.049-0.095,0.31,0.072,0.26
										c0.374-0.111,0.748-0.223,1.122-0.334C354.046,307.523,353.975,307.263,353.808,307.312L353.808,307.312z"/>
								</g>
							</g>
						</g>
						<path style="fill:#670000;" d="M358.178,305.678c-1.128-0.489-3.713-1.277-6.16-0.638c1.511-1.032,5.266-1.245,7.074,0.064
							C360.338,306.072,359.306,306.167,358.178,305.678z"/>
						<g>
							<path style="fill:#F90B28;" d="M359.309,318.47c0,0,2.617-0.638,4.34-0.574c1.723,0.064,2.745,0.511,2.745,0.511
								S363.522,320.194,359.309,318.47z"/>
							<g>
								<g>
									<g>
										<path style="fill:#670000;" d="M357.937,317.457c0.028,0,0.057,0,0.085,0c0.035,0,0.071-0.015,0.095-0.039
											c0.023-0.023,0.041-0.062,0.04-0.096c-0.002-0.035-0.013-0.071-0.04-0.095c-0.026-0.024-0.059-0.04-0.095-0.04
											c-0.028,0-0.057,0-0.085,0c-0.035,0-0.071,0.015-0.095,0.04c-0.023,0.023-0.041,0.062-0.039,0.095
											c0.001,0.035,0.013,0.071,0.039,0.096C357.867,317.441,357.9,317.457,357.937,317.457L357.937,317.457z"/>
									</g>
								</g>
								<g>
									<g>
										<path style="fill:#670000;" d="M358.35,317.961c1.019,1.116,2.849,1.352,4.284,1.381c1.765,0.035,3.456-0.478,4.934-1.435
											c0.145-0.094,0.01-0.328-0.136-0.233c-1.401,0.907-2.984,1.407-4.657,1.4c-1.39-0.006-3.244-0.22-4.233-1.303
											C358.424,317.641,358.233,317.833,358.35,317.961L358.35,317.961z"/>
									</g>
								</g>
								<g>
									<g>
										<path style="fill:#670000;" d="M368.447,317.332c0.028-0.028,0.057-0.057,0.085-0.085c0.024-0.024,0.04-0.061,0.04-0.095
											c0-0.033-0.015-0.073-0.04-0.095c-0.026-0.024-0.06-0.041-0.095-0.04c-0.036,0.002-0.07,0.014-0.095,0.04
											c-0.028,0.028-0.057,0.057-0.085,0.085c-0.025,0.025-0.04,0.061-0.04,0.096c0,0.033,0.015,0.073,0.04,0.095
											c0.026,0.024,0.059,0.041,0.095,0.039C368.387,317.37,368.421,317.358,368.447,317.332L368.447,317.332z"/>
									</g>
								</g>
							</g>
							<path style="opacity:0.55;fill:#F90B28;" d="M359.117,318.503c0,0,0.574,2.074,3.606,2.106
								c3.032,0.032,3.862-2.202,3.862-2.202S363.33,320.385,359.117,318.503z"/>
						</g>
						<g>
							<g>
								<path style="fill:#670000;" d="M362.644,307.737c-0.166,2-1.396,3.661-2.119,5.478c-0.15,0.378-0.171,0.647,0.066,0.988
									c0.202,0.29,0.464,0.534,0.764,0.721c0.658,0.409,1.464,0.522,2.207,0.309c0.167-0.048,0.096-0.308-0.072-0.26
									c-0.743,0.213-1.551,0.066-2.172-0.398c-0.174-0.13-0.336-0.289-0.465-0.464c-0.177-0.239-0.203-0.42-0.115-0.708
									c0.128-0.419,0.353-0.826,0.545-1.219c0.696-1.426,1.495-2.834,1.629-4.447
									C362.929,307.564,362.658,307.565,362.644,307.737L362.644,307.737z"/>
							</g>
						</g>
					</g>
					<g>
						<path style="fill:#111111;" d="M350.564,303.779c0.575-0.192,19.404-1.66,19.404-1.66l1.723-4.277l0.255,4.723l5.298,1.532
							c0,0,1.684-13.193-6-17.872c-8.489-5.17-16.787-3.064-20.872,3.319c-4.085,6.383-4.085,15.319-4.085,15.319L350.564,303.779z"
							/>
						<path style="fill:#111111;" d="M348.288,303.545l0.085,4c0,0,1.404,0.383,2.085,2.085c-0.298-4.298-0.043-7.277-0.043-7.277
							L348.288,303.545z"/>
						<path style="fill:#111111;" d="M373.819,302.226c0,0.128,0.766,3.83,0.511,6.043c1.872-1.362,2.085-1.362,2.085-1.362
							l0.255-4.723L373.819,302.226z"/>
					</g>
				</g>
			</g>
			<g>
				<g>
					<path style="fill:#1B3A00;" d="M401.971,346.171c-2.982-9.192-18.166-13.176-20.461-13.729l-7.009-2.726c0,0,0,1.617,0,4
						c0,2.777,0.511,5.872-3.574,9.787c-5.145,4.931-12.34,4.255-16.596-0.851c-4.255-5.106-3.745-12.138-3.745-12.138l-4.789,1.965
						c-4.764,1.195-16.348,4.842-19.169,12.599c-3.574,9.83-11.234,38.681-11.617,45.319c-0.383,6.638,9.319-9.191,20.17-4.851
						c2.131-4.779,3.084-8.279,3.508-10.576c0.96,2.637,1.964,5.095,2.365,6.097c0.426,6.723-1.787,18.723-1.787,18.723
						s-2.468,6.298-3.745,12.17c3.149-0.766,5.957,1.362,16.936,3.745c10.979,2.383,21.106-0.766,27.915-2.383
						s10.383-6.298,10.383-6.298s-3.234-12.511-4-18.809c-0.766-6.298-2.213-5.787,0.851-12c0.524-1.062,0.933-2.254,1.256-3.499
						c0.424,0.967,1.631,3.786,4.531,10.957c11.66-2.979,18.748,14.844,18.598,8.197
						C411.842,385.221,405.199,356.12,401.971,346.171z"/>
					<g>
						<g>
							<path style="fill:#0A1400;" d="M339.159,375.418c0.041-5.908,1.097-12.96,5.309-17.437c0.331-0.351-0.199-0.883-0.53-0.53
								c-4.355,4.63-5.486,11.848-5.528,17.967C338.406,375.9,339.156,375.901,339.159,375.418L339.159,375.418z"/>
						</g>
					</g>
					<g>
						<g>
							<path style="fill:#0A1400;" d="M389.215,372.564c0.288-6.625-2.627-12.964-7.118-17.724c-0.332-0.352-0.862,0.179-0.53,0.53
								c4.361,4.622,7.178,10.763,6.898,17.193C388.444,373.047,389.194,373.046,389.215,372.564L389.215,372.564z"/>
						</g>
					</g>
					<path style="opacity:0.55;fill:#0A1400;" d="M374.53,329.678c0,0,0,1.617,0,4c0,2.776,0.511,5.872-3.574,9.787
						c-5.145,4.931-11.86,4.293-16.115-0.814c-4.255-5.106-4.225-12.176-4.225-12.176l-4.789,1.965
						c-0.904,0.227-2.054,0.543-3.342,0.957c0,0.042-0.006,0.083-0.006,0.126c0,11.469,9.297,20.766,20.766,20.766
						c11.469,0,20.766-9.297,20.766-20.766c0-0.151-0.019-0.296-0.022-0.446c-1.152-0.35-2.023-0.571-2.448-0.674L374.53,329.678z"
						/>
				</g>
				<g>
					<path style="fill:#F9C7A5;" d="M326.874,385.479c0,0,22.735-1.357,28.503-9.162c3.054-9.84,3.732-19.681,5.429-21.717
						c1.697-2.036,1.357,1.697,1.697,8.822s0.679,17.306,0.679,17.306s-10.18,21.038-39.701,19.002
						C315.676,398.374,317.033,392.605,326.874,385.479z"/>
					<path style="fill:#F9C7A5;" d="M400.456,383.687c0,0-22.772-0.36-28.877-7.904c-3.482-9.697-4.591-19.498-6.375-21.458
						c-1.784-1.96-1.282,1.754-1.309,8.888c-0.027,7.134,0.08,17.319,0.08,17.319s11.092,20.572,40.495,17.245
						C412.208,396.078,410.599,390.375,400.456,383.687z"/>
					<g>
						<g>
							<path style="fill:#670000;" d="M360.981,354.339c-0.479,2.558-0.865,5.132-1.157,7.718c-0.019,0.172,0.251,0.171,0.27,0
								c0.289-2.562,0.672-5.112,1.147-7.646C361.274,354.241,361.013,354.168,360.981,354.339L360.981,354.339z"/>
						</g>
					</g>
					<g>
						<g>
							<path style="fill:#670000;" d="M361.599,354.141c-0.148,1.516-0.364,3.026-0.507,4.543c-0.142,1.512-0.086,3.048-0.089,4.564
								c0,0.174,0.27,0.174,0.27,0c0.003-1.515-0.053-3.052,0.089-4.564c0.143-1.516,0.359-3.026,0.507-4.543
								C361.886,353.968,361.616,353.969,361.599,354.141L361.599,354.141z"/>
						</g>
					</g>
					<g>
						<g>
							<path style="fill:#670000;" d="M364.425,354.1c0.182,3.164,0.349,6.319,0.408,9.488c0.003,0.174,0.273,0.174,0.27,0
								c-0.059-3.169-0.226-6.324-0.408-9.488C364.686,353.927,364.415,353.926,364.425,354.1L364.425,354.1z"/>
						</g>
					</g>
					<g>
						<g>
							<path style="fill:#670000;" d="M365.365,354.89c0.474,2.835,0.762,5.696,0.863,8.568c0.006,0.173,0.276,0.174,0.27,0
								c-0.102-2.897-0.394-5.782-0.872-8.64C365.597,354.648,365.337,354.72,365.365,354.89L365.365,354.89z"/>
						</g>
					</g>
				</g>
			</g>
		</g>
	</g>
	<g>
		<path style="opacity:0.31;fill:#93D6F3;" d="M128.76,265.87c0,0-81.724,1.73-59.186,75.476
			c23.254,71.091,61.873,37.508,91.484,50.798c29.611,13.29,77.217-18.655,66.506-47.767
			C216.853,315.266,197.207,265.666,128.76,265.87z"/>
		<g>
			<g>
				<path style="fill:#FF5060;" d="M88.224,448.12c0,0-5.617,3.745-11.404,6.638c14.809-0.34,109.277,5.617,135.489-1.532
					c8.34-1.021,12.085-3.234,12.085-3.234l-9.532-5.957L88.224,448.12z"/>
				<path style="fill:#E8AA80;" d="M158.471,449.481c0,0-8.784-0.714-17.439-1.998c-8.655-1.284-18.214,0.143-18.214,0.143
					s-6.846-5.851,3.1-7.991c9.947-2.141,14.209-2.854,18.731-4.281c4.521-1.427,7.363,3.139,14.468,2.854
					C158.859,440.634,158.471,449.481,158.471,449.481z"/>
				<g>
					<path style="fill:#011130;" d="M121.458,411.183c0,0,3.192,4.851-9.191,7.021c-12.383,2.17-26.042,8.681-28.596,12.894
						s-3.957,8.936-0.255,12.383s11.617,8.681,18.638,8.553c7.021-0.128,20.809-4.851,29.106-7.404
						c8.298-2.553,10.851-2.298,10.851-2.298s13.787-4.724,17.489-5.234c-2.043,3.319-3.191,8.681-1.021,13.149
						c19.787,4.085,44.043,5.362,52.34-0.894c8.298-6.255,10.468-9.319,9.447-15.191c-1.021-5.872-8.553-10.085-13.149-11.872
						c-4.596-1.787-23.489-5.745-27.319-9.319c-3.83-3.574-3.83-7.149-3.83-7.149L121.458,411.183z"/>
					<g>
						<g>
							<path style="fill:#FFFFFF;" d="M140.002,433.268c-1.09-1.352-2.343-2.547-3.77-3.539c-0.496-0.345-1.11-0.907-1.729-0.936
								c-0.415-0.02-1.289,0.273-1.668,0.313c-0.449,0.047-0.901,0.064-1.352,0.07c-4.235,0.06-8.456-0.737-12.657-1.161
								c-6.82-0.689-14.311-0.43-19.764,4.273c-0.366,0.316,0.166,0.844,0.53,0.53c5.424-4.678,12.975-4.717,19.715-4.003
								c3.751,0.397,7.494,1.013,11.271,1.103c0.903,0.022,1.807,0.005,2.704-0.115c0.991-0.133,1.361-0.23,2.22,0.336
								c1.52,1.001,2.83,2.247,3.97,3.66C139.775,434.174,140.302,433.641,140.002,433.268L140.002,433.268z"/>
						</g>
					</g>
					<g>
						<g>
							<path style="fill:#FFFFFF;" d="M201.759,434.685c-3.613-1.295-7.207-2.719-10.868-3.87
								c-3.373-1.061-6.769-0.826-10.155,0.055c-3.651,0.951-7.178,2.374-10.773,3.512c-3.656,1.158-7.346,2.203-11.063,3.149
								c-0.467,0.119-0.269,0.842,0.199,0.723c3.562-0.906,7.099-1.904,10.606-3.005c3.458-1.086,6.849-2.406,10.332-3.409
								c3.734-1.075,7.365-1.396,11.099-0.158c3.5,1.16,6.953,2.482,10.424,3.725C202.015,435.571,202.211,434.847,201.759,434.685
								L201.759,434.685z"/>
						</g>
					</g>
					<path style="fill:#F9C7A5;" d="M139.751,442.077c0,0,23.768-9.021,31.877-8.095c-3.262-3.932-8.109-7.401-16.684-4.048
						c-5.219,1.272-8.109-0.463-10.16-1.156c-2.051-0.694-5.592-0.347-7.923,1.272C138.726,434.328,140.124,438.723,139.751,442.077
						z"/>
				</g>
			</g>
			<g>
				<g>
					<path style="fill:#670000;" d="M210.253,346.831c-0.661-3.614-2.115-6.946-4.509-9.748c-2.565-3.003-5.76-5.535-8.859-7.96
						c-3.048-2.385-6.214-4.618-9.49-6.679c-3.003-1.89-6.13-3.572-9.125-5.474c-3.233-2.054-6.406-4.424-8.603-7.613
						c-0.934-1.357-1.599-2.859-2.329-4.329c-0.637-2.883-1.044-6.174-2.089-10.419c-2.723-11.064-15.489-9.617-15.745-9.617
						c0,0-0.007,0.08-0.018,0.197c-1.736-0.124-12.981-0.673-15.518,9.633c-1.754,7.127-1.711,11.57-3.981,15.9
						c-5.97,3.878-11.673,8.13-17.186,12.634c-3.036,2.48-6.026,5.016-9.016,7.552c-2.969,2.518-6.002,4.991-8.663,7.843
						c-4.603,4.932-7.673,11.208-7.7,18.051c-0.026,6.455,2.991,12.465,8.561,15.86c3.863,2.355,8.309,3.116,12.611,2.521
						c5.099,0.647,9.932-0.654,12.438-3.342c4.657-4.995,42.143-2.79,46.809,2.213c4.776,5.122,24.839,3.628,34.82-5.853
						c1.826-1.538,3.467-3.28,4.784-5.302C210.555,358.124,211.265,352.372,210.253,346.831z M123.415,318.226
						c-9.447,7.745-36.766,26.128-31.83,42.383c2.444,8.049,8.248,12.421,14.198,14.024c-2.821-0.001-5.642-0.617-8.252-1.96
						c-6.012-3.092-9.39-9.184-9.359-15.87c0.031-6.818,3.152-12.977,7.778-17.837c2.433-2.556,5.158-4.806,7.845-7.086
						c2.786-2.363,5.571-4.729,8.39-7.053c5.442-4.486,11.061-8.734,16.936-12.63C127.87,314.1,126.085,316.037,123.415,318.226z
						 M208.185,360.015c-0.394,0.857-0.852,1.668-1.355,2.444c0.306-0.667,0.585-1.349,0.802-2.063
						c4.936-16.255-22.383-34.638-31.83-42.383c-4.161-3.411-6.174-6.212-7.359-9.223c1.241,2.047,2.838,3.832,4.688,5.394
						c5.178,4.373,11.508,7.216,17.097,11.006c3.337,2.263,6.551,4.706,9.624,7.317c2.926,2.486,5.918,5.102,7.713,8.56
						C210.502,346.724,210.861,354.196,208.185,360.015z"/>
					<g>
						<g>
							<path style="fill:#E09B6C;" d="M137.411,307.853c0,0-2.167-1.614-3.873,1.245c-1.706,2.859,1.291,6.455,4.933,4.334
								C139.255,310.619,137.411,307.853,137.411,307.853z"/>
							<g>
								<g>
									<path style="fill:#670000;" d="M137.845,313.688c0.056-0.347,0.105-0.72-0.034-1.055c-0.162-0.389-0.59-0.627-0.909-0.875
										c-0.381-0.296-0.762-0.593-1.143-0.889c-0.304-0.236-0.673-0.48-0.768-0.877c-0.04-0.169-0.301-0.097-0.26,0.072
										c0.079,0.33,0.31,0.574,0.566,0.783c0.35,0.286,0.714,0.558,1.071,0.836c0.34,0.265,0.721,0.511,1.029,0.814
										c0.3,0.295,0.248,0.741,0.187,1.12C137.558,313.786,137.818,313.859,137.845,313.688L137.845,313.688z"/>
								</g>
							</g>
						</g>
						<g>
							<path style="fill:#E09B6C;" d="M161.859,307.294c0,0,2.167-1.614,3.873,1.245c1.706,2.859-1.291,6.455-4.933,4.334
								C160.015,310.061,161.859,307.294,161.859,307.294z"/>
							<g>
								<g>
									<path style="fill:#670000;" d="M161.52,313.071c0.331,0.109,0.676-0.031,0.913-0.27c0.276-0.28,0.377-0.674,0.498-1.036
										c0.254-0.756,0.727-1.428,1.361-1.914c0.136-0.104,0.002-0.339-0.136-0.233c-0.568,0.435-1.029,0.997-1.321,1.652
										c-0.15,0.335-0.224,0.701-0.385,1.03c-0.155,0.317-0.476,0.637-0.858,0.51C161.426,312.756,161.355,313.017,161.52,313.071
										L161.52,313.071z"/>
								</g>
							</g>
						</g>
					</g>
				</g>
				<g>
					<g>
						<path style="fill:#F9C7A5;" d="M197.025,388.077c-1.66-7.021-6.717-32.574-9.014-41.255
							c-2.092-7.904-10.942-10.543-20.181-14.379c-1.024,0.541-4.329-1.366-4.329-1.366s-5.787-0.957-6.553-6.702
							c-0.699-5.244-0.017-5.593,0.107-5.615l-16.448,1.785c0,0,1.021,7.532-3.957,10.468c-10.085,4.596-20.936,6.638-23.234,15.319
							c-2.298,8.681-7.021,34.468-8.681,41.489c-0.626,2.648-0.779,4.787-0.549,6.596c4.317-2.351,9.297-3.514,14.083-4.537
							c3.976-6.929,9.988-27.291,10.85-33.08c0.6-4.029,12.423,1.778,21.713,2.437c-0.022,0.09-0.048,0.177-0.07,0.267
							c0.655-0.042,1.324-0.113,2-0.202c1.655-0.027,3.186-0.272,4.507-0.83c7.601-1.715,14.907-4.562,15.376-1.417
							c0.887,5.957,7.226,27.341,11.189,33.645c2.787-0.09,5.577-0.208,8.357,0.045c1.831,0.167,3.635,0.508,5.429,0.908
							C197.529,390.571,197.335,389.387,197.025,388.077z"/>
					</g>
					<path style="fill:#E09B6C;" d="M140.883,319.545c0,0-0.575,6.191,5.298,8.489c5.872,2.298,9.766-2.809,10.596-6.064
						C152.181,323.247,142.096,321.013,140.883,319.545z"/>
				</g>
				<g>
					<path style="fill:#F9C7A5;" d="M137.16,305.949c0,0,0.511,9.532,2.042,12.425c1.532,2.894,6.085,6.234,11.021,5.979
						c4.936-0.255,9.489-3.596,10.426-7.17c0.936-3.574,1.447-10.298,1.362-13.362c-0.085-3.064-2.383-14.638-8-14.383
						C148.394,289.694,134.692,285.609,137.16,305.949z"/>
					<g>
						<g>
							<path style="fill:#670000;" d="M153.548,307.962c-0.265-0.107,1.798,1.907,4.334,0.002c0.837-0.629,1.215-1.094,1.215-1.094
								s-0.164-0.086-0.634,0.187C157.46,307.64,155.468,308.741,153.548,307.962z"/>
							<g>
								<g>
									<path style="fill:#670000;" d="M157.683,308.042c0.211,0.249,0.398,0.503,0.578,0.784c0.038,0.06,0.122,0.089,0.185,0.048
										c0.06-0.038,0.089-0.121,0.049-0.185c-0.187-0.293-0.395-0.573-0.62-0.839c-0.046-0.054-0.144-0.051-0.191,0
										C157.63,307.908,157.634,307.984,157.683,308.042L157.683,308.042z"/>
								</g>
							</g>
							<g>
								<g>
									<path style="fill:#670000;" d="M155.82,308.609c0.048,0.289,0.125,0.573,0.232,0.846c0.025,0.065,0.092,0.118,0.166,0.094
										c0.064-0.021,0.122-0.096,0.094-0.166c-0.106-0.273-0.184-0.557-0.232-0.846c-0.012-0.07-0.102-0.115-0.166-0.094
										C155.838,308.468,155.807,308.534,155.82,308.609L155.82,308.609z"/>
								</g>
							</g>
							<g>
								<g>
									<path style="fill:#670000;" d="M158.917,307.1c0.371,0.121,0.741,0.243,1.112,0.364c0.069,0.023,0.147-0.026,0.166-0.094
										c0.02-0.073-0.025-0.143-0.094-0.166c-0.371-0.121-0.741-0.243-1.112-0.364c-0.069-0.023-0.147,0.026-0.166,0.094
										C158.802,307.007,158.847,307.077,158.917,307.1L158.917,307.1z"/>
								</g>
							</g>
						</g>
						<path style="fill:#670000;" d="M154.415,304.545c1.128-0.489,3.713-1.277,6.16-0.638c-1.511-1.032-5.266-1.245-7.075,0.064
							C152.256,304.939,153.287,305.034,154.415,304.545z"/>
						<g>
							<path style="fill:#670000;" d="M147.346,308.295c0.267-0.1-1.85,1.857-4.332-0.116c-0.82-0.651-1.185-1.126-1.185-1.126
								s0.166-0.082,0.629,0.204C143.445,307.865,145.406,309.021,147.346,308.295z"/>
							<g>
								<g>
									<path style="fill:#670000;" d="M143.023,308.068c-0.232,0.259-0.447,0.534-0.642,0.822
										c-0.04,0.059-0.013,0.152,0.048,0.185c0.068,0.036,0.142,0.014,0.185-0.049c0.187-0.276,0.376-0.517,0.6-0.767
										c0.047-0.053,0.056-0.14,0-0.191C143.162,308.02,143.073,308.012,143.023,308.068L143.023,308.068z"/>
								</g>
							</g>
							<g>
								<g>
									<path style="fill:#670000;" d="M144.799,308.804c-0.055,0.288-0.141,0.569-0.255,0.839
										c-0.027,0.065,0.029,0.151,0.094,0.166c0.079,0.018,0.137-0.024,0.166-0.094c0.114-0.27,0.199-0.551,0.255-0.839
										c0.013-0.069-0.019-0.149-0.094-0.166C144.898,308.694,144.813,308.73,144.799,308.804L144.799,308.804z"/>
								</g>
							</g>
							<g>
								<g>
									<path style="fill:#670000;" d="M141.935,307.025c-0.374,0.111-0.748,0.223-1.121,0.334c-0.166,0.049-0.095,0.31,0.072,0.26
										c0.374-0.111,0.748-0.223,1.122-0.334C142.173,307.236,142.102,306.975,141.935,307.025L141.935,307.025z"/>
								</g>
							</g>
						</g>
						<path style="fill:#670000;" d="M146.157,304.923c-1.128-0.489-3.713-1.277-6.16-0.638c1.511-1.032,5.266-1.245,7.074,0.064
							C148.316,305.316,147.284,305.412,146.157,304.923z"/>
						<g>
							<path style="fill:#F90B28;" d="M146.5,317.779c0,0,2.617-0.638,4.34-0.575c1.723,0.064,2.745,0.511,2.745,0.511
								S150.713,319.503,146.5,317.779z"/>
							<g>
								<g>
									<g>
										<path style="fill:#670000;" d="M145.128,316.765c0.028,0,0.057,0,0.085,0c0.035,0,0.071-0.015,0.095-0.04
											c0.023-0.023,0.041-0.062,0.04-0.095c-0.002-0.035-0.013-0.071-0.04-0.095c-0.026-0.024-0.059-0.04-0.095-0.04
											c-0.028,0-0.057,0-0.085,0c-0.035,0-0.071,0.015-0.096,0.04c-0.023,0.023-0.041,0.062-0.04,0.095
											c0.001,0.035,0.013,0.071,0.04,0.095C145.059,316.75,145.091,316.765,145.128,316.765L145.128,316.765z"/>
									</g>
								</g>
								<g>
									<g>
										<path style="fill:#670000;" d="M145.542,317.269c1.019,1.116,2.849,1.352,4.284,1.381
											c1.765,0.035,3.456-0.478,4.934-1.435c0.145-0.094,0.01-0.328-0.136-0.233c-1.401,0.907-2.984,1.407-4.657,1.4
											c-1.39-0.006-3.244-0.22-4.234-1.303C145.615,316.95,145.425,317.141,145.542,317.269L145.542,317.269z"/>
									</g>
								</g>
								<g>
									<g>
										<path style="fill:#670000;" d="M155.638,316.641c0.028-0.028,0.057-0.057,0.085-0.085c0.025-0.024,0.04-0.061,0.04-0.095
											c0-0.033-0.015-0.073-0.04-0.095c-0.026-0.024-0.059-0.041-0.095-0.04c-0.036,0.002-0.07,0.014-0.096,0.04
											c-0.028,0.028-0.057,0.057-0.085,0.085c-0.025,0.024-0.04,0.061-0.04,0.095c0,0.033,0.015,0.073,0.04,0.095
											c0.026,0.024,0.059,0.041,0.095,0.039C155.579,316.678,155.613,316.666,155.638,316.641L155.638,316.641z"/>
									</g>
								</g>
							</g>
							<path style="opacity:0.55;fill:#F90B28;" d="M146.309,317.811c0,0,0.575,2.074,3.606,2.106
								c3.032,0.032,3.862-2.202,3.862-2.202S150.522,319.694,146.309,317.811z"/>
						</g>
						<g>
							<g>
								<path style="fill:#670000;" d="M149.827,306.309c0.033,1.287-0.267,2.531-0.666,3.746c-0.193,0.587-0.377,1.197-0.631,1.762
									c-0.136,0.302-0.329,0.506-0.537,0.754c-0.112,0.134-0.149,0.242-0.151,0.417c-0.009,0.835,0.548,1.691,1.204,2.164
									c0.788,0.569,1.819,0.671,2.724,0.345c0.162-0.059,0.092-0.32-0.072-0.26c-0.961,0.347-2.054,0.172-2.795-0.556
									c-0.35-0.344-0.606-0.785-0.725-1.262c-0.093-0.375,0.013-0.622,0.25-0.909c0.125-0.15,0.222-0.317,0.306-0.494
									c0.402-0.848,0.682-1.796,0.936-2.697c0.278-0.983,0.453-1.986,0.427-3.01C150.092,306.136,149.822,306.135,149.827,306.309
									L149.827,306.309z"/>
							</g>
						</g>
					</g>
					<path style="fill:#670000;" d="M152.202,284.63c-10.099-2.409-13.489,6.658-14.103,8.64c-0.155-0.064-0.216-0.065-0.216-0.065
						s-5.532,4.085-3.66,10.298c1.872,6.213,1.532,4.34,1.532,4.34l1.872,1.021c0.236-0.079,4.619-5.48,4.867-10.872
						c1.329,1.641,3.188,2.828,5.203,3.512c2.811,0.953,5.813,0.886,8.733,0.474c3.858,1.907,5.559,5.29,5.559,5.29
						S168.968,288.63,152.202,284.63z M148.134,300.859c-2.148-0.682-4.092-1.97-5.385-3.793c0.159,0.096,0.307,0.191,0.474,0.288
						c2.729,1.593,6.408,3.276,10.744,4.123C151.999,301.587,150.026,301.459,148.134,300.859z"/>
				</g>
			</g>
			<g>
				<path style="fill:#62C0F3;" d="M173.415,375.864c1.826-3.703,2.291-8.976,2.37-12.634l18.56,1.31c0,0-4.368-15.591-8-22.128
					c-2.553-4.596-18.504-9.889-18.504-9.889l-4.734-1.632l-3.692-1.857c0,0-0.298,0.702-0.298,3.085
					c0,2.383,2.681,9.766-1.915,15.213c-4.596,5.447-13.617,5.021-17.872-0.085c-4.255-5.106-0.681-17.957-0.681-17.957
					l-4.268,1.839c0,0-16.413,5.821-18.966,10.417c-3.632,6.537-8,22.128-8,22.128l15.746-1.166
					c-0.464,1.492-0.844,3.106-0.81,4.337c0.085,3.064,3.66,11.745,4.511,13.872c0.425,6.723-1.787,18.723-1.787,18.723
					s-2.468,6.298-3.745,12.17c3.149-0.766,5.957,1.362,16.936,3.745c10.979,2.383,21.106-0.766,27.915-2.383
					c6.809-1.617,10.383-6.298,10.383-6.298s-3.234-12.511-4-18.809C171.798,381.566,170.351,382.077,173.415,375.864z"/>
				<g>
					<g>
						<path style="fill:#0B79AA;" d="M127.611,351.864c-1.673,3.948-3.346,7.896-5.02,11.844c-0.186,0.439,0.46,0.822,0.648,0.378
							c1.673-3.948,3.346-7.896,5.019-11.843C128.445,351.803,127.799,351.42,127.611,351.864L127.611,351.864z"/>
					</g>
				</g>
				<g>
					<g>
						<path style="fill:#0B79AA;" d="M171.026,354.159c1.342,4.024,5.658,7.976,4.078,12.536c-0.158,0.457,0.566,0.653,0.723,0.199
							c1.661-4.794-2.675-8.728-4.078-12.935C171.598,353.504,170.873,353.699,171.026,354.159L171.026,354.159z"/>
					</g>
				</g>
				<path style="opacity:0.37;fill:#0B79AA;" d="M167.509,332.618l-4.42-1.524l-3.692-1.857c0,0-0.298,0.702-0.298,3.085
					c0,2.383,2.681,9.766-1.915,15.213c-4.596,5.447-13.617,5.021-17.872-0.085c-4.255-5.106-0.681-17.958-0.681-17.958
					l-4.268,1.839c0,0-2.049,0.728-4.808,1.868c-0.331,1.426-0.523,2.905-0.523,4.431c0,10.811,8.764,19.574,19.574,19.574
					c10.811,0,19.574-8.764,19.574-19.574C168.181,335.894,167.933,334.22,167.509,332.618z"/>
			</g>
			<g>
				<g>
					<path style="fill:#F9C7A5;" d="M104.819,391.8c0.027-0.097-0.027-1.66,3.284-4.368c3.311-2.709,14.448-10.334,19.063-15.451
						c4.615-5.117,6.521-7.124,9.531-9.531s6.918-4.144,8.824-6.351c0.803-0.602,1.684,0.698,0.511,3.191
						c-0.511,1.085-1.509,1.855-4.117,2.959c3.913-0.1,6.12-0.502,8.729-1.204s4.314-1.304,5.317-1.003
						c1.003,0.301,1.003,1.204,1.003,1.204s-1.405,1.505-6.622,2.91c7.826-1.806,9.331-2.609,9.632-1.104
						c0.301,1.505-0.903,1.706-0.903,1.706l-1.275,0.323l-6.651,1.684c0,0,7.45-3.119,7.424-0.803
						c-0.027,2.423-7.583,4.153-9.431,4.816c-1.505,0.803,2.709-1.003,4.414-0.702c1.706,0.301,1.706,0.201,1.605,1.003
						c-0.1,0.803-13.444,8.227-18.36,5.317c-1.706,0.602-12.04,20.066-26.086,28.193C106.799,405.09,101.809,402.536,104.819,391.8z
						"/>
					<g>
						<g>
							<path style="fill:#670000;" d="M143.354,365.129c3.754-0.104,7.423-0.516,10.853-2.148c0.157-0.075,0.02-0.307-0.136-0.233
								c-3.383,1.61-7.014,2.009-10.717,2.111C143.18,364.863,143.18,365.134,143.354,365.129L143.354,365.129z"/>
						</g>
					</g>
					<g>
						<g>
							<path style="fill:#670000;" d="M145.204,367.936c4.435-0.325,8.742-1.122,12.928-2.644c0.162-0.059,0.092-0.32-0.072-0.26
								c-4.164,1.514-8.444,2.311-12.856,2.634C145.032,367.679,145.03,367.949,145.204,367.936L145.204,367.936z"/>
						</g>
					</g>
					<g>
						<g>
							<path style="fill:#670000;" d="M144.533,372.301c1.86-0.388,3.563-1.276,5.428-1.647c0.17-0.034,0.098-0.294-0.072-0.26
								c-1.865,0.371-3.568,1.259-5.428,1.647C144.292,372.076,144.363,372.336,144.533,372.301L144.533,372.301z"/>
						</g>
					</g>
				</g>
				<g>
					<g>
						<path style="fill:#670000;" d="M110.882,384.885c1.715-2.978,4.33-4.8,7.427-6.147c2.709-1.178,5.598-2.291,7.35-4.811
							c0.099-0.143-0.134-0.278-0.233-0.136c-1.94,2.789-5.297,3.786-8.232,5.152c-2.748,1.279-5.022,3.161-6.545,5.806
							C110.562,384.9,110.795,385.036,110.882,384.885L110.882,384.885z"/>
					</g>
				</g>
			</g>
			<g>
				<path style="fill:#F9C7A5;" d="M192.01,385.38c-0.802-0.04-5.618,0.502-12.14,5.92c-6.521,5.418-11.638,6.421-13.946,5.719
					c-2.308-0.702-6.321-1.906-7.826-2.107c-1.505-0.201-4.314,0.903-6.622,0.803c-2.308-0.1-3.712-0.702-3.712-0.702
					s-0.1,2.007,1.806,2.809c1.906,0.803,1.906,0.803,1.906,0.803s-7.926,0.803-9.832,2.107s-2.007,2.308-2.007,2.308
					s2.107-0.301,3.11-0.301c1.003,0-2.809,0.1-4.314,2.107c3.411,0.301,3.411,0.702,3.411,0.702s-2.007,0.401-1.304,1.605
					c0.702,1.204,11.939,0.903,11.939,0.903s-6.822,0.502-6.622,2.809c8.327-0.803,13.645-0.401,19.765-3.512
					c3.913-1.605,20.458-3.221,31.494-13.254C199.543,390.907,194.017,385.481,192.01,385.38z"/>
				<g>
					<g>
						<g>
							<path style="fill:#670000;" d="M141.912,405.784c3.092-0.844,6.311-0.73,9.482-0.603c0.174,0.007,0.173-0.263,0-0.27
								c-3.196-0.129-6.439-0.238-9.554,0.612C141.673,405.569,141.744,405.83,141.912,405.784L141.912,405.784z"/>
						</g>
					</g>
					<g>
						<g>
							<path style="fill:#670000;" d="M142.981,402.814c1.471-0.289,2.951-0.548,4.451-0.634c1.47-0.084,2.942-0.006,4.409,0.096
								c0.173,0.012,0.173-0.258,0-0.27c-1.508-0.105-3.021-0.184-4.532-0.089c-1.481,0.093-2.945,0.351-4.399,0.636
								C142.739,402.587,142.811,402.847,142.981,402.814L142.981,402.814z"/>
						</g>
					</g>
				</g>
				<g>
					<g>
						<path style="fill:#670000;" d="M182.388,389.634c2.689-1.932,6.069-2.761,9.347-2.268c0.17,0.025,0.243-0.235,0.072-0.26
							c-3.348-0.503-6.803,0.318-9.555,2.296C182.112,389.502,182.246,389.736,182.388,389.634L182.388,389.634z"/>
					</g>
				</g>
			</g>
		</g>
	</g>
	<g>
		<path style="opacity:0.31;fill:#93D6F3;" d="M85.032,74.396c0,0-64.319,50.447-2.021,95.894c61.277,42.894,72-7.149,103.66-14.298
			c31.66-7.149,50.553-61.277,24.511-78.128C185.139,61.013,139.649,33.141,85.032,74.396z"/>
		<g>
			<g>
				<path style="fill:#670000;" d="M203.403,117.77c-1.962-1.425-3.967-1.473-6.24-0.903c-2.109,0.528-4.847,1.912-7.03,1.105
					c-2.349-0.869-2.319-4.397-2.545-6.445c-0.246-2.225-0.6-4.168-2.062-5.945c-1.866-2.267-4.583-3.634-7.371-4.4
					c-3.078-0.846-6.212-0.776-9.032-2.435c-1.802-1.06-3.281-2.755-4.601-4.37c-1.623-1.985-2.474-4.359-2.932-6.841
					c-0.123-1.071-0.105-1.735-0.105-1.735l-16.851-0.383c0,0,0.007,0.809,0.02,2.178L128.5,85.8c0,0,0.34,6.703-3.322,12.49
					c-0.234,0.227-0.474,0.449-0.716,0.673c-0.821,0.757-1.69,1.473-2.676,2.006c-1.107,0.599-2.355,0.903-3.538,1.318
					c-3.995,1.401-7.916,3.216-11.123,6.031c-1.47,1.29-2.777,2.782-3.798,4.454c-1.164,1.906-1.685,4.103-2.802,6.025
					c-0.582,1.001-1.373,1.932-2.437,2.43c-0.076,0.036-0.158,0.05-0.235,0.08c-2.698-0.26-5.679-0.572-8.161,1.387
					c-4.851,3.83-7.532,8.936-7.277,12c0.128,2.809,0.638,4.085,0.638,4.085s1.532-6.255,6.766-3.574
					c5.234,2.681,12.638,5.489,18.511,0.128c5.872-5.362,11.617,4.468,18.511,1.66c6.631-2.701,17.744-1.393,18.582-10.605
					c2.37,6.709,12.084,5.855,18.103,8.307c6.894,2.809,12.638-7.021,18.511-1.66c5.872,5.362,13.277,2.553,18.511-0.128
					c5.234-2.681,6.766,3.575,6.766,3.575s0.195-0.491,0.374-1.525c0.063-0.059,0.11-0.14,0.117-0.249
					c0.027-0.419,0.054-0.851,0.079-1.29c0.028-0.316,0.051-0.654,0.068-1.021c0.017-0.208,0.018-0.427,0.009-0.653
					C208.137,126.654,207.678,120.874,203.403,117.77z M104.117,119.885c-1.131,1.543-2.909,1.672-4.94,1.533
					c0.6-0.419,1.13-0.954,1.59-1.607c1.275-1.812,1.757-4.043,2.81-5.972c1.038-1.901,2.456-3.564,4.079-4.991
					c3.57-3.137,8.031-4.936,12.489-6.409c1.08-0.357,2.036-0.848,2.928-1.442c-1.646,1.715-3.786,3.205-6.572,4.208
					C103.734,109.8,106.926,116.056,104.117,119.885z M200.675,120.396c-4.851-3.83-11.617,1.021-14.426-2.809
					c-2.809-3.83,0.383-10.085-12.383-14.681c-5.133-1.848-8.138-4.976-9.899-8.055c0.629,0.755,1.313,1.461,1.962,2.205
					c1.6,1.836,3.832,3.178,6.203,3.773c1.471,0.369,3.011,0.432,4.497,0.753c1.741,0.376,3.456,0.919,5.017,1.789
					c2.525,1.409,4.482,3.535,4.968,6.432c0.375,2.238,0.265,4.685,1.186,6.799c1.892,4.346,7.395,1.321,10.618,0.755
					c3.686-0.647,6.53,2.146,7.743,5.42c0.692,1.868,0.978,3.885,1.059,5.923C206.132,126.014,203.881,122.927,200.675,120.396z"/>
				<g>
					<path style="fill:#E09B6C;" d="M133.135,89.704c0,0-2.167-1.614-3.873,1.245c-1.706,2.859,1.291,6.455,4.933,4.334
						C134.979,92.47,133.135,89.704,133.135,89.704z"/>
					<path style="fill:#E09B6C;" d="M157.582,89.146c0,0,2.167-1.614,3.873,1.245c1.706,2.859-1.291,6.455-4.933,4.334
						C155.738,91.912,157.582,89.146,157.582,89.146z"/>
					<g>
						<g>
							<path style="fill:#670000;" d="M133.569,95.539c0.056-0.347,0.105-0.72-0.034-1.054c-0.162-0.389-0.59-0.627-0.909-0.875
								c-0.381-0.296-0.762-0.593-1.143-0.889c-0.304-0.237-0.673-0.48-0.768-0.877c-0.04-0.169-0.301-0.097-0.26,0.072
								c0.079,0.33,0.31,0.574,0.566,0.783c0.35,0.286,0.714,0.558,1.071,0.836c0.34,0.265,0.721,0.511,1.029,0.814
								c0.3,0.295,0.248,0.741,0.187,1.12C133.281,95.637,133.541,95.71,133.569,95.539L133.569,95.539z"/>
						</g>
					</g>
					<g>
						<g>
							<path style="fill:#670000;" d="M157.243,94.923c0.331,0.109,0.677-0.031,0.913-0.27c0.276-0.28,0.377-0.674,0.498-1.036
								c0.254-0.756,0.727-1.428,1.361-1.914c0.136-0.104,0.002-0.339-0.136-0.233c-0.568,0.435-1.029,0.997-1.321,1.652
								c-0.15,0.335-0.223,0.701-0.385,1.03c-0.155,0.317-0.476,0.637-0.858,0.51C157.149,94.607,157.078,94.868,157.243,94.923
								L157.243,94.923z"/>
						</g>
					</g>
				</g>
			</g>
			<g>
				<path style="fill:#F9C7A5;" d="M192.802,170.115c-1.659-7.021-6.383-32.808-8.681-41.489
					c-1.661-6.276-10.959-9.783-19.345-12.881c0.01-0.032,0.021-0.072,0.021-0.072s-0.104-0.007-0.291-0.028
					c-2.08-0.768-4.098-1.513-5.922-2.27c-0.175,0.093-0.325,0.234-0.466,0.391c-2.56-1.326-4.968-3.553-5.364-7.285
					c-0.558-5.261-0.017-5.593,0.107-5.615l-16.448,1.785c0,0,1.021,7.532-3.957,10.468c-10.468,5.362-20.936,6.638-23.234,15.319
					c-2.298,8.681-7.021,34.468-8.681,41.489c-0.626,2.648-0.779,4.787-0.549,6.596c4.317-2.351,9.297-3.514,14.083-4.537
					c3.976-6.929,9.988-27.291,10.85-33.08c0.599-4.022,12.382,1.758,21.664,2.434c-0.016,0.068-0.037,0.135-0.053,0.203
					c0.497-0.032,1.002-0.082,1.511-0.141c1.974,0.02,3.788-0.25,5.303-0.961c7.49-1.721,14.606-4.449,15.068-1.347
					c0.887,5.957,7.226,27.341,11.189,33.645c2.787-0.09,5.577-0.208,8.357,0.045c1.831,0.167,3.635,0.508,5.429,0.908
					C193.306,172.61,193.112,171.425,192.802,170.115z"/>
				<path style="fill:#E09B6C;" d="M136.522,103.183c0,0-0.574,6.192,5.298,8.489c5.872,2.298,9.766-2.809,10.596-6.064
					C147.82,106.885,137.734,104.651,136.522,103.183z"/>
			</g>
			<g>
				<path style="fill:#670000;" d="M140.5,66.396c0.255-0.511-8.425-1.021-5.234-7.021s7.66-4.979,12.383-3.575
					c4.723,1.404,7.787-0.255,8.553,2.17c0.766,2.426,2.936,7.66-2.681,10.085c-2.809-0.383-9.064-3.83-12.511-1.532"/>
				<g>
					<path style="fill:#F9C7A5;" d="M132.968,88.056c0,0,0.511,9.532,2.042,12.425c1.532,2.894,5.66,8.298,10.596,8.042
						c4.936-0.255,9.596-5.489,10.532-9.064s1.766-10.468,1.681-13.532c-0.085-3.064-2.383-14.638-8-14.383
						C144.202,71.8,130.5,67.715,132.968,88.056z"/>
					<g>
						<g>
							<path style="fill:#670000;" d="M149.293,89.303c-0.265-0.107,1.798,1.907,4.334,0.002c0.837-0.629,1.215-1.094,1.215-1.094
								s-0.164-0.086-0.635,0.187C153.204,88.98,151.213,90.081,149.293,89.303z"/>
							<g>
								<g>
									<path style="fill:#670000;" d="M153.428,89.382c0.211,0.249,0.398,0.503,0.578,0.784c0.038,0.06,0.122,0.089,0.185,0.049
										c0.06-0.038,0.089-0.121,0.049-0.185c-0.187-0.293-0.395-0.573-0.62-0.839c-0.046-0.054-0.144-0.051-0.191,0
										C153.375,89.249,153.379,89.324,153.428,89.382L153.428,89.382z"/>
								</g>
							</g>
							<g>
								<g>
									<path style="fill:#670000;" d="M151.564,89.95c0.048,0.289,0.125,0.573,0.232,0.846c0.025,0.066,0.092,0.118,0.166,0.094
										c0.064-0.021,0.122-0.096,0.094-0.166c-0.106-0.273-0.184-0.557-0.232-0.846c-0.011-0.07-0.102-0.115-0.166-0.094
										C151.583,89.808,151.552,89.875,151.564,89.95L151.564,89.95z"/>
								</g>
							</g>
							<g>
								<g>
									<path style="fill:#670000;" d="M154.661,88.44c0.371,0.121,0.741,0.243,1.112,0.364c0.069,0.023,0.147-0.026,0.166-0.094
										c0.02-0.073-0.025-0.143-0.094-0.166c-0.371-0.122-0.741-0.243-1.112-0.364c-0.069-0.023-0.147,0.026-0.166,0.094
										C154.547,88.348,154.592,88.418,154.661,88.44L154.661,88.44z"/>
								</g>
							</g>
						</g>
						<path style="fill:#670000;" d="M149.553,86.173c1.128-0.489,3.713-1.277,6.16-0.638c-1.511-1.032-5.266-1.245-7.074,0.064
							C147.394,86.566,148.426,86.662,149.553,86.173z"/>
						<g>
							<g>
								<path style="fill:#670000;" d="M145.782,87.749c-0.151,2.299-1.518,4.247-2.032,6.452c-0.212,0.911-0.039,1.729,0.876,2.137
									c0.855,0.381,1.847,0.286,2.664-0.139c0.154-0.08,0.018-0.313-0.136-0.233c-0.849,0.441-2.141,0.54-2.886-0.176
									c-0.75-0.721-0.127-2.091,0.175-2.906c0.626-1.688,1.489-3.307,1.609-5.135C146.063,87.575,145.793,87.576,145.782,87.749
									L145.782,87.749z"/>
							</g>
						</g>
						<g>
							<path style="fill:#670000;" d="M142.644,89.38c0.267-0.1-1.85,1.857-4.332-0.116c-0.82-0.651-1.185-1.126-1.185-1.126
								s0.167-0.082,0.629,0.204C138.743,88.95,140.704,90.106,142.644,89.38z"/>
							<g>
								<g>
									<path style="fill:#670000;" d="M138.321,89.153c-0.232,0.259-0.447,0.534-0.642,0.822c-0.04,0.059-0.013,0.152,0.049,0.185
										c0.068,0.036,0.142,0.014,0.185-0.048c0.187-0.276,0.376-0.517,0.6-0.767c0.047-0.053,0.056-0.14,0-0.191
										C138.46,89.106,138.371,89.097,138.321,89.153L138.321,89.153z"/>
								</g>
							</g>
							<g>
								<g>
									<path style="fill:#670000;" d="M140.097,89.889c-0.055,0.288-0.141,0.569-0.255,0.839
										c-0.027,0.065,0.029,0.151,0.094,0.166c0.079,0.018,0.137-0.024,0.166-0.094c0.114-0.27,0.199-0.551,0.255-0.839
										c0.013-0.069-0.019-0.149-0.094-0.166C140.196,89.78,140.111,89.815,140.097,89.889L140.097,89.889z"/>
								</g>
							</g>
							<g>
								<g>
									<path style="fill:#670000;" d="M137.233,88.11c-0.374,0.111-0.748,0.223-1.122,0.334c-0.166,0.049-0.095,0.31,0.072,0.26
										c0.374-0.111,0.748-0.223,1.122-0.334C137.471,88.321,137.4,88.06,137.233,88.11L137.233,88.11z"/>
								</g>
							</g>
						</g>
						<path style="fill:#670000;" d="M142.178,86.22c-1.128-0.489-3.713-1.276-6.16-0.638c1.511-1.032,5.266-1.245,7.074,0.064
							C144.337,86.614,143.306,86.71,142.178,86.22z"/>
						<g>
							<path style="fill:#F90B28;" d="M142.241,100.573c0,0,2.609-0.692,4.333-0.647c1.724,0.045,2.751,0.494,2.751,0.494
								S146.475,102.304,142.241,100.573z"/>
							<g>
								<g>
									<g>
										<path style="fill:#670000;" d="M140.854,99.539c0.028,0,0.057-0.001,0.085-0.001c0.036,0,0.072-0.015,0.097-0.04
											c0.024-0.024,0.042-0.063,0.04-0.097c-0.002-0.035-0.013-0.072-0.04-0.097c-0.027-0.024-0.06-0.041-0.097-0.04
											c-0.028,0-0.057,0.001-0.085,0.001c-0.035,0-0.072,0.015-0.097,0.04c-0.024,0.024-0.042,0.063-0.04,0.097
											c0.002,0.035,0.013,0.072,0.04,0.097C140.784,99.524,140.817,99.54,140.854,99.539L140.854,99.539z"/>
									</g>
								</g>
								<g>
									<g>
										<path style="fill:#670000;" d="M141.273,100.055c1.026,1.133,2.876,1.368,4.327,1.376
											c1.765,0.009,3.442-0.547,4.892-1.543c0.145-0.099,0.007-0.338-0.139-0.237c-1.373,0.944-2.944,1.488-4.615,1.505
											c-1.412,0.015-3.273-0.193-4.271-1.295C141.349,99.73,141.155,99.924,141.273,100.055L141.273,100.055z"/>
									</g>
								</g>
								<g>
									<g>
										<path style="fill:#670000;" d="M151.364,99.284c0.028-0.03,0.056-0.059,0.084-0.089c0.025-0.026,0.04-0.061,0.04-0.097
											c0-0.034-0.015-0.074-0.04-0.097c-0.026-0.024-0.061-0.042-0.097-0.04c-0.036,0.002-0.072,0.013-0.097,0.04
											c-0.028,0.03-0.056,0.059-0.084,0.089c-0.025,0.026-0.04,0.061-0.04,0.097c0,0.034,0.015,0.074,0.04,0.097
											c0.026,0.024,0.061,0.042,0.097,0.04C151.303,99.323,151.339,99.311,151.364,99.284L151.364,99.284z"/>
									</g>
								</g>
							</g>
							<path style="opacity:0.55;fill:#F90B28;" d="M142.05,100.609c0,0,0.601,2.138,3.633,2.134
								c3.032-0.004,3.834-2.324,3.834-2.324S146.286,102.504,142.05,100.609z"/>
						</g>
					</g>
					<path style="fill:#670000;" d="M161.819,73.715c-1.66-3.83-2.809-4.638-2.809-4.638l-8.15-2.223
						c-4.543-3.77-14.57-2.129-16.957,0.818c-3.255,4.021-3.128,2.404-6.894,8.596c-3.766,6.191,1.872,12.277,3.34,12.277
						c1.468,0,3.255,2.043,3.255,2.043s1.277-3,0.447-7.149c-0.469-2.344,0.877-4.158,2.758-5.189
						c0.823-0.132,1.67-0.158,2.399-0.178c2.251-0.061,4.497,0.44,6.743,0.278c1.928-0.139,3.666-0.996,4.933-2.324
						c-0.105,1.886,0.75,3.78,2.252,4.93c1.065,0.815,2.344,1.157,3.602,1.552c1.86,2.765,0.611,7.378,0.611,7.378l2.553-1.532
						c0,0,1.404-2.936,2.936-5.106C164.373,81.077,163.479,77.545,161.819,73.715z M141.522,77.375
						c0.289,0.039,0.565,0.054,0.843,0.073c-0.805-0.067-1.612-0.115-2.419-0.125C140.486,77.28,141.019,77.291,141.522,77.375z
						 M148.957,76.677c-1.879,1.136-4.041,0.994-6.143,0.804c-0.012-0.001-0.024-0.002-0.036-0.003
						c3.899,0.129,6.687-1.653,8.117-2.862c0.009,0.08,0.014,0.165,0.025,0.243C150.401,75.584,149.738,76.205,148.957,76.677z
						 M151.715,77.27c0.905,1.606,2.41,2.715,4.034,4.155c-0.641-0.219-1.266-0.473-1.841-0.841
						C152.74,79.838,151.969,78.607,151.715,77.27z"/>
				</g>
			</g>
			<g>
				<g>
					<path style="fill:#62C0F3;" d="M84.287,230.141c0,0-5.617,3.745-11.404,6.638c14.809-0.34,109.277,5.617,135.489-1.532
						c8.34-1.021,12.085-3.234,12.085-3.234l-9.532-5.957L84.287,230.141z"/>
					<path style="fill:#E09B6C;" d="M154.287,232.354c0,0-8.681-0.638-17.234-1.787c-8.553-1.149-18,0.128-18,0.128
						s-6.766-5.234,3.064-7.149s14.043-2.553,18.511-3.83c4.468-1.277,8.723,1.064,15.745,0.809
						C156.117,222.694,154.287,232.354,154.287,232.354z"/>
					<path style="fill:#111111;" d="M117.266,193.29c0,0,3.191,4.851-9.191,7.021c-12.383,2.17-26.043,8.681-28.596,12.894
						c-2.553,4.213-3.957,8.936-0.255,12.383c3.702,3.447,11.617,8.681,18.638,8.553c7.021-0.128,20.808-4.851,29.106-7.404
						c8.298-2.553,10.425-2.894,10.425-2.894s14.213-4.128,17.915-4.638c-2.042,3.319-3.191,8.681-1.021,13.149
						c19.787,4.085,44.043,5.362,52.341-0.894c8.298-6.255,10.468-9.319,9.447-15.191c-1.021-5.872-8.553-10.085-13.149-11.872
						c-4.596-1.787-23.489-5.745-27.319-9.319c-3.83-3.574-3.83-7.149-3.83-7.149L117.266,193.29z"/>
				</g>
				<g>
					<g>
						<path style="fill:#FFFFFF;" d="M197.567,216.792c-3.613-1.295-7.207-2.719-10.868-3.87c-3.373-1.061-6.769-0.826-10.155,0.055
							c-3.651,0.951-7.178,2.374-10.773,3.512c-3.656,1.158-7.346,2.203-11.063,3.149c-0.467,0.119-0.269,0.842,0.199,0.723
							c3.562-0.906,7.099-1.904,10.606-3.005c3.458-1.086,6.849-2.406,10.332-3.409c3.734-1.075,7.365-1.396,11.099-0.158
							c3.5,1.16,6.953,2.481,10.424,3.725C197.823,217.678,198.019,216.953,197.567,216.792L197.567,216.792z"/>
					</g>
				</g>
				<path style="fill:#F9C7A5;" d="M135.611,224.678c0,0,22.189-7.382,29.641-6.306c-2.893-3.63-7.262-6.893-15.27-4.14
					c-4.852,0.985-7.466-0.661-9.337-1.346c-1.871-0.685-5.148-0.481-7.345,0.903C134.894,217.688,136.054,221.677,135.611,224.678z
					"/>
				<g>
					<g>
						<path style="fill:#FFFFFF;" d="M135.628,218.467c-0.467-1.877-1.271-3.652-2.458-5.188c-0.528-0.682-1.761-2.324-2.759-2.394
							c-0.403-0.028-0.96,0.213-1.372,0.271c-0.581,0.082-1.161,0.117-1.748,0.125c-1.095,0.015-2.194-0.052-3.286-0.134
							c-2.331-0.174-4.649-0.484-6.969-0.759c-7.546-0.897-16.027-1.29-22.166,4.005c-0.366,0.316,0.166,0.844,0.53,0.53
							c5.831-5.029,13.987-4.678,21.156-3.842c3.89,0.454,7.936,1.226,11.863,0.898c0.722-0.06,1.666-0.422,2.3-0.084
							c0.63,0.336,1.179,1.007,1.631,1.55c1.256,1.508,2.084,3.325,2.555,5.22C135.021,219.134,135.745,218.936,135.628,218.467
							L135.628,218.467z"/>
					</g>
				</g>
			</g>
			<g>
				<path style="fill:#62C0F3;" d="M128.117,115.162l-2.681,1.149c0,0-1.532,19.277-3.702,23.617
					c-2.17,4.34,4.085,0.383,5.234-6.638C128.117,126.268,128.117,115.162,128.117,115.162z"/>
				<path style="fill:#62C0F3;" d="M159.011,113.545l2.553,1.021c0,0,2.255,10.894,5.702,17.915
					c3.447,7.021,4.851,7.787,3.957,9.957s-5.106,0.383-5.106,0.383s-9.957-22.085-9.319-25.404
					C157.436,114.098,159.011,113.545,159.011,113.545z"/>
				<g>
					<path style="fill:#FF5060;" d="M132.585,112.992c0,0-3.617,15.021,0.638,20.128c4.255,5.106,15.191,6.383,19.787,0.936
						c4.596-5.447,2.426-16.34,2.426-18.723c0-2.383,0.17-3.319,0.17-3.319l3.575,1.617c0,0-0.085,10.809,5.532,17.958
						c5.617,7.149,6.809,9.532,6.809,9.532s0.766,10.638-2.298,16.851c-3.064,6.213-1.617,5.702-0.851,12
						c0.766,6.298,4,18.809,4,18.809s-3.574,4.681-10.383,6.298c-6.809,1.617-16.936,4.766-27.915,2.383s-13.787-4.511-16.936-3.745
						c1.277-5.872,3.745-12.17,3.745-12.17s2.213-12,1.787-18.723c-0.851-2.128-4.425-10.808-4.511-13.872
						c-0.085-3.064,1.956-7.436,3.191-9.66c3.192-5.745,3.915-4.383,5.362-13.66s1.404-10.213,1.404-10.213L132.585,112.992z"/>
					<g>
						<g>
							<g>
								<path style="fill:#9E041A;" d="M122.032,160.96c1.375,2.956,4.376,4.985,7.617,5.224c0.482,0.036,0.479-0.715,0-0.75
									c-2.99-0.221-5.709-2.143-6.969-4.853C122.476,160.145,121.829,160.525,122.032,160.96L122.032,160.96z"/>
							</g>
						</g>
						<g>
							<g>
								<path style="fill:#9E041A;" d="M168.748,157.19c-1.254,2.755-2.609,5.718-5.176,7.498c-0.394,0.273-0.019,0.924,0.378,0.648
									c2.689-1.865,4.128-4.874,5.445-7.767C169.594,157.132,168.948,156.751,168.748,157.19L168.748,157.19z"/>
							</g>
						</g>
					</g>
					<path style="opacity:0.49;fill:#9E041A;" d="M159.181,113.588l-3.574-1.617c0,0-0.17,0.936-0.17,3.319
						c0,2.383,2.17,13.277-2.426,18.723c-4.596,5.447-15.532,4.17-19.787-0.936c-4.255-5.106-0.638-20.128-0.638-20.128
						l-4.468,2.426c0,0,0.043,0.936-1.404,10.213c-0.546,3.498-0.989,5.483-1.499,6.907c2.637,8.282,10.386,14.284,19.542,14.284
						c9.556,0,17.563-6.545,19.84-15.39C159.1,124.24,159.181,113.588,159.181,113.588z"/>
				</g>
			</g>
			<g>
				<path style="fill:#F9C7A5;" d="M141.255,210.566c-1.639-1.136-1.639-1.136-1.639-1.136s1.136-1.639,4.439-0.522
					c3.303,1.117,6.445,1.864,10.221-1.803c-3.974,1.573-6.314,1.134-7.2-0.259c3.238-1.056,7.438-2.838,10.354-4.635
					c1.713-0.921,3.9-2.268,7.678-1.578c3.142-2.924-0.267-24.48,13.623-30.48c1.529,0.189,3.057,0.385,4.579,0.63
					c3.385,0.545,6.859,1.345,9.997,2.754c-0.338,2.468-1.482,4.397-3.13,6.289c-3.024,3.472-15.529,24.318-25.087,29.267
					c-6.791,2.909-20.897,5.698-24.048,3.414C137.892,210.224,137.997,209.958,141.255,210.566z"/>
				<g>
					<g>
						<g>
							<path style="fill:#670000;" d="M150.507,211.103c-2.02,0.301-3.971,0.35-5.987,0.008c-1.558-0.264-3.244-0.648-4.559-1.566
								c-0.143-0.1-0.278,0.134-0.136,0.233c1.378,0.962,3.156,1.357,4.787,1.62c2.01,0.325,3.957,0.264,5.967-0.035
								C150.75,211.338,150.677,211.078,150.507,211.103L150.507,211.103z"/>
						</g>
					</g>
					<g>
						<g>
							<path style="fill:#670000;" d="M139.919,209.547c1.194-1.067,2.785-1.276,4.265-0.743c1.474,0.532,2.924,0.931,4.498,1.011
								c0.174,0.009,0.173-0.261,0-0.27c-0.907-0.047-1.805-0.183-2.683-0.416c-0.839-0.223-1.631-0.626-2.479-0.808
								c-1.35-0.29-2.769,0.12-3.792,1.034C139.598,209.472,139.789,209.663,139.919,209.547L139.919,209.547z"/>
						</g>
					</g>
					<g>
						<g>
							<path style="fill:#670000;" d="M141.57,210.277c-1.007-0.048-2.014-0.096-3.021-0.144c-0.142-0.007-0.173,0.182-0.068,0.252
								c0.781,0.517,1.149,1.437,1.907,1.993c0.718,0.527,1.589,0.81,2.447,1.01c1.882,0.439,3.747,0.272,5.654,0.133
								c0.172-0.013,0.174-0.283,0-0.27c-1.882,0.137-3.725,0.31-5.582-0.123c-0.878-0.205-1.77-0.493-2.484-1.064
								c-0.697-0.558-1.053-1.413-1.806-1.912c-0.023,0.084-0.045,0.168-0.068,0.251c1.007,0.048,2.014,0.096,3.021,0.144
								C141.743,210.555,141.743,210.285,141.57,210.277L141.57,210.277z"/>
						</g>
					</g>
				</g>
				<path style="fill:none;stroke:#670000;stroke-width:0.25;stroke-miterlimit:10;" d="M151.333,207.878
					c0,0-2.213,1.061-4.257-1.032"/>
			</g>
			<g>
				<path style="fill:#F9C7A5;" d="M155.181,208.736c1.532-1.277,1.532-1.277,1.532-1.277s-1.277-1.532-4.468-0.128
					c-3.191,1.404-6.255,2.426-10.34-0.894c4.097,1.216,6.389,0.572,7.149-0.894c-3.319-0.766-7.66-2.17-10.723-3.702
					c-1.787-0.766-4.085-1.915-7.787-0.894c-3.387-2.635-1.896-24.408-16.262-29.157c-1.507,0.323-3.012,0.654-4.505,1.032
					c-3.324,0.841-6.713,1.946-9.715,3.626c0.554,2.429,1.864,4.249,3.674,5.988c3.319,3.191,17.617,22.851,27.574,26.936
					c7.021,2.298,21.319,3.83,24.255,1.277C158.5,208.098,158.373,207.843,155.181,208.736z"/>
				<g>
					<g>
						<g>
							<path style="fill:#670000;" d="M145.988,210.357c2.076,0.123,4.058-0.004,6.072-0.532c1.562-0.41,3.237-0.96,4.493-2.014
								c0.133-0.112-0.059-0.302-0.191-0.191c-1.26,1.056-2.967,1.587-4.535,1.986c-1.936,0.492-3.848,0.599-5.839,0.481
								C145.814,210.076,145.815,210.346,145.988,210.357L145.988,210.357z"/>
						</g>
					</g>
					<g>
						<g>
							<path style="fill:#670000;" d="M156.577,207.383c-1.14-0.829-2.621-1.106-3.968-0.643c-0.845,0.29-1.618,0.759-2.466,1.051
								c-0.805,0.277-1.632,0.469-2.474,0.59c-2.054,0.294-4.07-0.893-5.626-2.101c-0.044,0.075-0.088,0.15-0.131,0.226
								c0.961,0.311,1.989,0.484,2.993,0.579c0.173,0.016,0.172-0.254,0-0.27c-0.977-0.093-1.986-0.267-2.922-0.57
								c-0.122-0.039-0.24,0.141-0.131,0.226c1.573,1.221,3.645,2.465,5.734,2.199c1.19-0.152,2.366-0.475,3.47-0.94
								c0.889-0.375,1.707-0.886,2.696-0.939c0.976-0.052,1.904,0.256,2.689,0.826C156.581,207.719,156.716,207.484,156.577,207.383
								L156.577,207.383z"/>
						</g>
					</g>
					<g>
						<g>
							<path style="fill:#670000;" d="M154.889,208.741c0.999-0.137,1.997-0.274,2.996-0.411c-0.044-0.075-0.087-0.15-0.131-0.226
								c-0.679,0.538-0.945,1.383-1.548,1.987c-0.67,0.672-1.572,1.056-2.46,1.346c-1.803,0.589-3.646,0.581-5.523,0.61
								c-0.174,0.003-0.174,0.273,0,0.27c1.956-0.031,3.862-0.032,5.734-0.666c0.798-0.27,1.589-0.62,2.232-1.176
								c0.723-0.625,1.009-1.588,1.755-2.18c0.12-0.095-0.018-0.241-0.131-0.226c-0.999,0.137-1.997,0.274-2.996,0.41
								C154.646,208.504,154.719,208.764,154.889,208.741L154.889,208.741z"/>
						</g>
					</g>
				</g>
				<path style="fill:none;stroke:#670000;stroke-width:0.25;stroke-miterlimit:10;" d="M144.905,206.949
					c0,0,2.298,0.862,4.149-1.404"/>
			</g>
		</g>
	</g>
</g>
</svg>
