<?xml version="1.0" encoding="utf-8"?>
<!-- Generator: Adobe Illustrator 27.5.0, SVG Export Plug-In . SVG Version: 6.00 Build 0)  -->
<svg version="1.1" xmlns="http://www.w3.org/2000/svg" xmlns:xlink="http://www.w3.org/1999/xlink" x="0px" y="0px"
	 viewBox="0 0 500 500" style="enable-background:new 0 0 500 500;" xml:space="preserve">
<g id="BACKGROUND">
	
		<ellipse transform="matrix(0.7071 -0.7071 0.7071 0.7071 -114.4816 251.0911)" style="fill:#F3EDFF;" cx="245.853" cy="263.737" rx="158.214" ry="158.214"/>
</g>
<g id="OBJECTS">
	<g>
		<path style="fill:#D4DAFF;" d="M210,335.945c0,0-3.63,7.91-12.21,11.49c-6.72,2.81-16.47,2.97-29.89-5.38
			c-1.53-0.95-3.15-2.16-4.87-3.59c-7.65-6.4-17.05-17.35-26.97-30.38c-11.83-15.53-24.4-34.01-35.59-51.24l14.22-21.87l-23.28,7.76
			c-1.39-2.19-2.75-4.34-4.06-6.43c-4.78-7.61-7.08-16.13-7.08-24.56c0-13.86,6.23-27.51,17.91-36.56
			c21.47-16.63,52.63-11.3,67.24,11.59C202.13,244.355,210,334.325,210,335.945z"/>
		<path style="fill:#A9B5F5;" d="M176.118,356.068c-0.623-1.112-40.793-60.057-88.314-85.544
			c-18.9-10.136-42.429-1.772-50.795,17.974v0c-7.324,17.287-0.34,37.302,16.141,46.293c30.897,16.857,77.942,40.904,96.323,41.745
			C177.868,377.836,176.118,356.068,176.118,356.068z"/>
		<path style="fill:none;stroke:#21426B;stroke-linecap:round;stroke-miterlimit:10;" d="M121.249,205.12
			c0,0,72.585,134.25,84.789,158.016"/>
		
			<line style="fill:none;stroke:#21426B;stroke-linecap:round;stroke-miterlimit:10;" x1="57.357" y1="295.841" x2="140.514" y2="347.247"/>
	</g>
	<g>
		<path style="fill:#A9B5F5;" d="M412.807,212.148c-0.081,8.43-2.462,16.927-7.315,24.491
			c-14.142,22.066-32.973,50.287-50.134,72.253c-9.527,12.199-18.536,22.474-25.946,28.693c-1.946,1.632-3.779,2.994-5.479,4.028
			c-13.499,8.221-23.247,7.968-29.94,5.093c-8.545-3.662-12.099-11.606-12.099-11.606c0.016-1.62,8.747-91.51,46.016-148.736
			c14.819-22.749,46.028-27.781,67.338-10.946c5.886,4.657,10.36,10.48,13.309,16.908l-18.243,15.946l22.281-1.017
			C412.748,208.877,412.822,210.508,412.807,212.148z"/>
		<path style="fill:#D4DAFF;" d="M315.625,355.714c0.634-1.106,41.366-59.664,89.129-84.694c18.996-9.955,42.444-1.366,50.621,18.46
			v0c7.158,17.356-0.017,37.303-16.583,46.137c-31.057,16.561-78.33,40.156-96.718,40.821
			C313.668,377.465,315.625,355.714,315.625,355.714z"/>
		<path style="fill:none;stroke:#21426B;stroke-linecap:round;stroke-miterlimit:10;" d="M371.893,205.13
			c0,0-73.867,133.549-86.298,157.197"/>
		
			<line style="fill:none;stroke:#21426B;stroke-linecap:round;stroke-miterlimit:10;" x1="434.958" y1="296.627" x2="351.313" y2="347.234"/>
	</g>
	<ellipse style="fill:#E6E9FF;" cx="249.511" cy="408.231" rx="176.666" ry="29.881"/>
	<g>
		<path style="fill:#EF8B5D;" d="M273.45,160.54c-2.042,6.298,0.845,12.876,6.449,14.692c5.603,1.817,11.801-1.816,13.843-8.113
			c2.042-6.298-0.845-12.876-6.449-14.692C281.689,150.61,275.492,154.242,273.45,160.54z"/>
		<path style="fill:#EF8B5D;" d="M222.385,160.54c2.042,6.298-0.845,12.876-6.449,14.692c-5.603,1.817-11.801-1.816-13.843-8.113
			c-2.042-6.298,0.845-12.876,6.449-14.692C214.146,150.61,220.343,154.242,222.385,160.54z"/>
		<path style="fill:none;stroke:#B86B47;stroke-linecap:round;stroke-miterlimit:10;" d="M218.032,164.152
			c0,2.737-2.219,4.956-4.956,4.956c-2.737,0-4.956-2.219-4.956-4.956c0-2.737,2.219-4.956,4.956-4.956
			C215.813,159.196,218.032,161.415,218.032,164.152z"/>
		<path style="fill:none;stroke:#B86B47;stroke-linecap:round;stroke-miterlimit:10;" d="M287.613,164.152
			c0,2.737-2.219,4.956-4.956,4.956c-2.737,0-4.956-2.219-4.956-4.956c0-2.737,2.219-4.956,4.956-4.956
			C285.394,159.196,287.613,161.415,287.613,164.152z"/>
		<path style="fill:#193150;" d="M176.669,240.369l-16.041,34.701l-48.147,23.55l16.224,28.26
			c1.372-1.83,59.507-24.072,72.007-29.233l2.994,22.315l-15.144,29.414l58.475,18.181V198.878l-39.104,13.332
			C194.1,216.927,182.801,227.103,176.669,240.369z"/>
		<path style="fill:#193150;" d="M317.184,240.369l16.041,34.701l48.147,23.55l-16.224,28.26
			c-1.372-1.83-58.269-25.745-70.769-30.906l-3.891,22.823l13.688,32.326l-57.361,16.434V198.878l39.104,13.332
			C299.753,216.927,311.051,227.103,317.184,240.369z"/>
		<path style="fill:#EF9B74;" d="M264.162,173.233v33.035c0,9.275-7.519,16.793-16.804,16.793c-9.274,0-16.793-7.519-16.793-16.793
			v-33.035H264.162z"/>
		<path style="fill:#EF8B5D;" d="M264.162,173.233v30.84c-3.512,1.508-7.395,2.341-11.458,2.341h-9.972
			c-4.345,0-8.464-0.945-12.167-2.656v-30.525H264.162z"/>
		
			<ellipse transform="matrix(0.7071 -0.7071 0.7071 0.7071 -1.4298 207.4411)" style="fill:#193150;" cx="249.689" cy="105.446" rx="26.562" ry="26.562"/>
		<path style="fill:#EF9B74;" d="M281.855,144.592v26.257c0,16.107-13.045,29.152-29.151,29.152h-9.972
			c-16.107,0-29.152-13.045-29.152-29.152v-26.257c0-15.611,12.651-28.262,28.262-28.262h11.751c1.452,0,2.881,0.113,4.266,0.326
			C271.443,118.704,281.855,130.432,281.855,144.592z"/>
		<path style="fill:#193150;" d="M257.708,114.75c-1.406-0.217-2.858-0.331-4.333-0.331h-4.985h-6.952
			c-15.858,0-28.002,12.054-28.002,27.912l0.125,9.827c-0.04-0.08,0.006,0.102,0.04,0.08c16.686-10.634,35.652-2.572,38.287-18.471
			c5.511,10.828,19.812,8.298,29.75,18.237c0.105,0.105,0.297,0,0.446-0.012v-8.864C282.085,128.745,271.508,116.831,257.708,114.75
			z"/>
		<path style="fill:none;stroke:#193150;stroke-width:2;stroke-linecap:round;stroke-miterlimit:10;" d="M237.598,158.876
			c0,3.073-2.491,5.564-5.564,5.564s-5.564-2.491-5.564-5.564"/>
		<path style="fill:none;stroke:#193150;stroke-width:2;stroke-linecap:round;stroke-miterlimit:10;" d="M270.409,158.876
			c0,3.073-2.491,5.564-5.564,5.564s-5.564-2.491-5.564-5.564"/>
		<path style="fill:none;stroke:#CC7045;stroke-width:2;stroke-linecap:round;stroke-miterlimit:10;" d="M253.298,177.832
			c0,3.073-2.491,5.564-5.564,5.564s-5.564-2.491-5.564-5.564"/>
		<circle style="fill:#EF8B5D;" cx="231.841" cy="173.195" r="5.943"/>
		<circle style="fill:#EF8B5D;" cx="263.467" cy="173.195" r="5.943"/>
		<g>
			<path style="fill:#EF9B74;" d="M116.191,297.137l-7.5-10.345c-1.175-1.588-3.212-2.281-5.111-1.738l0,0
				c-2.652,0.758-4.099,3.612-3.142,6.199l4.388,11.865c0.759,2.053-0.86,4.204-3.043,4.041l-0.682-0.051
				c-2.584-0.192-4.61-2.295-4.708-4.884l-0.04-1.073c-0.08-2.123-1.08-4.106-2.738-5.433l0,0c-2.677-2.141-6.616-1.506-8.485,1.367
				l-5.78,8.889c-3.442,5.293-2.325,12.332,2.587,16.299l10.524,8.501c6.601,5.331,15.689,6.363,23.317,2.647l13.426-6.541
				L116.191,297.137z"/>
			<path style="fill:#EF8B5D;" d="M104.827,303.118l5.085,11.033c1.372,2.978-0.135,6.488-3.238,7.545l-1.159,0.394
				c-4.123,1.403-8.434-1.562-8.598-5.915l-0.564-15.024L104.827,303.118z"/>
			<path style="fill:#EF9B74;" d="M95.893,299.069c0,0.36,4.407,7.881,7.83,13.67c1.925,3.256,0.058,7.434-3.651,8.176l-3.442,0.688
				L95.893,299.069z"/>
		</g>
		<g>
			<path style="fill:#EF9B74;" d="M377.892,297.137l7.5-10.345c1.175-1.588,3.211-2.281,5.111-1.738l0,0
				c2.652,0.758,4.099,3.612,3.142,6.199l-4.388,11.865c-0.759,2.053,0.86,4.204,3.043,4.041l0.682-0.051
				c2.584-0.192,4.61-2.295,4.708-4.884l0.041-1.073c0.08-2.123,1.08-4.106,2.738-5.433l0,0c2.677-2.141,6.616-1.506,8.485,1.367
				l5.78,8.889c3.442,5.293,2.325,12.332-2.587,16.299l-10.524,8.501c-6.601,5.331-15.689,6.363-23.317,2.647l-13.426-6.541
				L377.892,297.137z"/>
			<path style="fill:#EF8B5D;" d="M389.257,303.118l-5.085,11.033c-1.372,2.978,0.134,6.488,3.238,7.545l1.159,0.394
				c4.124,1.403,8.435-1.562,8.598-5.915l0.564-15.024L389.257,303.118z"/>
			<path style="fill:#EF9B74;" d="M398.191,299.069c0,0.36-4.407,7.881-7.83,13.67c-1.925,3.256-0.058,7.434,3.651,8.176
				l3.442,0.688L398.191,299.069z"/>
		</g>
		<polygon style="fill:#761B80;" points="203.705,319.962 290.489,318.798 303.771,346.249 229.291,354.525 190.073,343.73 		"/>
		<g>
			<path style="fill:#841E8F;" d="M128.828,331.45l120.225,14.491l-2.251,54.03l-124.477-15.583
				c-15.3-1.915-25.792-16.368-22.873-31.509v0C102.101,339.132,114.93,329.775,128.828,331.45z"/>
			<path style="fill:#EF9B74;" d="M244.46,386.265l-0.4,1.65l-8.14,33.77l-0.34,1.42l-2.59-0.88l-54.78-18.49l-61.49-20.76
				c-14.61-4.93-22-21.19-16.12-35.44c4.23-10.23,14.13-16.5,24.65-16.5c2.8,0,5.63,0.44,8.42,1.37l96.42,46.88l13.47,6.54
				L244.46,386.265z"/>
			<path style="fill:#EF8B5D;" d="M300.827,386.166l-56.368,0.104l-8.882,36.839l26.714,4.92
				c19.012,3.501,37.804-7.114,44.617-25.206l1.924-5.109C310.938,392.124,306.8,386.155,300.827,386.166z"/>
			<path style="fill:#841E8F;" d="M365.24,331.45L245.016,345.94l2.251,54.03l124.477-15.583
				c15.3-1.915,25.791-16.368,22.873-31.509v0C391.967,339.132,379.139,329.775,365.24,331.45z"/>
			<path style="fill:#EF9B74;" d="M360.401,332.405L249.61,386.27l8.882,36.839l118.856-40.133
				c14.609-4.933,22.002-21.19,16.118-35.443v0C388.124,334.593,373.685,327.987,360.401,332.405z"/>
			<path style="fill:#EF8B5D;" d="M244.06,387.915l-8.14,33.77l-2.93,0.54l-54.78-18.49c-1.24-2.1-2.32-4.33-3.2-6.68l-2.07-5.48
				c-2.26-6,2.18-12.4,8.59-12.39l48.56,0.1l13.47,6.54L244.06,387.915z"/>
			<path style="fill:#EF9B74;" d="M193.242,386.166l56.368,0.104l8.882,36.839l-26.714,4.92
				c-19.012,3.501-37.804-7.114-44.617-25.206l-1.924-5.109C183.13,392.124,187.268,386.155,193.242,386.166z"/>
		</g>
		<path style="fill:none;stroke:#21426B;stroke-linecap:round;stroke-miterlimit:10;" d="M226.28,106.399
			c-0.049-8.356,4.529-16.425,12.495-20.445c11.208-5.656,24.879-1.155,30.534,10.053c0.665,1.318,1.189,2.67,1.579,4.038"/>
		<path style="fill:none;stroke:#21426B;stroke-linecap:round;stroke-miterlimit:10;" d="M232.178,105.625
			c0-8.826,7.154-15.98,15.98-15.98c4.312,0,8.225,1.708,11.1,4.484"/>
		<path style="fill:none;stroke:#21426B;stroke-linecap:round;stroke-miterlimit:10;" d="M217.414,143.849
			c0,0,5.383-2.691,18.284-4.826c12.901-2.135,10.116-13.272,10.116-13.272"/>
		<path style="fill:none;stroke:#21426B;stroke-linecap:round;stroke-miterlimit:10;" d="M232.634,134.243
			c0,0,8.328-2.336,6.5-9.242"/>
		<path style="fill:none;stroke:#21426B;stroke-linecap:round;stroke-miterlimit:10;" d="M218.671,133.709
			c0,0,7.472-20.515,40.65-15.129"/>
		<path style="fill:none;stroke:#21426B;stroke-linecap:round;stroke-miterlimit:10;" d="M257.303,128.559
			c0,0,0.426,7.817,11.371,10.802"/>
		<path style="fill:none;stroke:#21426B;stroke-linecap:round;stroke-miterlimit:10;" d="M202.996,247.656l-2.217,15.518
			l-2.711,4.338c-5.263,8.667-3.408,18.254-0.726,23.52l3.369,6.616"/>
		<path style="fill:none;stroke:#21426B;stroke-linecap:round;stroke-miterlimit:10;" d="M291.491,247.656l2.217,15.518l2.711,4.338
			c5.263,8.667,3.408,18.254,0.726,23.52l-3.369,6.616"/>
		
			<line style="fill:none;stroke:#21426B;stroke-linecap:round;stroke-miterlimit:10;" x1="186.743" y1="401.037" x2="204.813" y2="399.756"/>
		
			<line style="fill:none;stroke:#21426B;stroke-linecap:round;stroke-miterlimit:10;" x1="191.331" y1="411.027" x2="204.9" y2="409.257"/>
		
			<line style="fill:none;stroke:#21426B;stroke-linecap:round;stroke-miterlimit:10;" x1="198.518" y1="419.378" x2="208.638" y2="417.095"/>
		
			<line style="fill:none;stroke:#21426B;stroke-linecap:round;stroke-miterlimit:10;" x1="96.394" y1="300.051" x2="88.988" y2="310.543"/>
		
			<line style="fill:none;stroke:#21426B;stroke-linecap:round;stroke-miterlimit:10;" x1="397.826" y1="300.124" x2="405.273" y2="310.02"/>
		
			<line style="fill:none;stroke:#21426B;stroke-linecap:round;stroke-miterlimit:10;" x1="101.504" y1="309.406" x2="95.571" y2="317.419"/>
		
			<line style="fill:none;stroke:#21426B;stroke-linecap:round;stroke-miterlimit:10;" x1="393.073" y1="308.121" x2="399.375" y2="315.999"/>
	</g>
	<g>
		
			<line style="fill:none;stroke:#262347;stroke-linecap:round;stroke-miterlimit:10;" x1="325.873" y1="123.343" x2="325.873" y2="140.283"/>
		
			<line style="fill:none;stroke:#262347;stroke-linecap:round;stroke-miterlimit:10;" x1="334.224" y1="131.813" x2="317.283" y2="131.813"/>
		<path style="fill:none;stroke:#262347;stroke-linecap:round;stroke-miterlimit:10;" d="M314.447,87.817
			c0,2.052-1.663,3.715-3.715,3.715c-2.052,0-3.715-1.663-3.715-3.715c0-2.052,1.663-3.715,3.715-3.715
			C312.784,84.103,314.447,85.766,314.447,87.817z"/>
		<path style="fill:none;stroke:#262347;stroke-linecap:round;stroke-miterlimit:10;" d="M178.236,152.208
			c0,2.052-1.663,3.715-3.715,3.715c-2.052,0-3.715-1.663-3.715-3.715c0-2.052,1.663-3.715,3.715-3.715
			C176.572,148.493,178.236,150.157,178.236,152.208z"/>
	</g>
</g>
</svg>
