<?xml version="1.0" encoding="utf-8"?>
<!-- Generator: Adobe Illustrator 27.5.0, SVG Export Plug-In . SVG Version: 6.00 Build 0)  -->
<svg version="1.1" xmlns="http://www.w3.org/2000/svg" xmlns:xlink="http://www.w3.org/1999/xlink" x="0px" y="0px"
	 viewBox="0 0 500 500" style="enable-background:new 0 0 500 500;" xml:space="preserve">
<g id="BACKGROUND">
	<g>
		<g>
			<rect x="0" y="0.002" style="fill:#FFFFFF;" width="500" height="500"/>
		</g>
	</g>
</g>
<g id="OBJECTS">
	<g>
		<path style="fill:#B9EFE8;" d="M84.801,313.809c20.021-24.155,55.337-41.214,35.778-67.788
			c-35.376-48.066,27.48-147.358,181.796-157.143c55.047-3.491,123.552,45.792,106.98,141.687
			c-15.576,90.129,42.261,85.92,27.433,150.824c-10.172,44.525-37.665,57.292-90.743,61.709c-56.346,0-141.25-0.081-175.163-0.081
			C59.736,443.017,42.301,365.085,84.801,313.809z"/>
		<g>
			<g>
				<g>
					<path style="fill:#31AFA3;" d="M224.148,358.273c-8.43-7.297-43.165,6.395-84.192-8.05
						c-14.704-5.177-35.343-17.645-43.474-31.094c-8.132-13.448-8.291-29.229,4.689-36.803c7.334-4.279,16.681-3.824,25.249-2.009
						c19.589,4.149,37.702,14.674,53.307,27.719C195.333,321.081,224.148,358.273,224.148,358.273z"/>
				</g>
				<path style="fill:#48C1B5;" d="M146.339,297.372c-0.83-1.455-2.944,0.056-2.124,1.495c1.491,2.612,6.105,8.419,7.313,12.781
					c-6.656-2.893-13.457-5.539-20.333-7.968c-0.352-0.56-0.709-1.077-0.936-1.486c-2.84-5.117-5.866-10.12-9.018-15.051
					c-0.903-1.412-3.021,0.091-2.123,1.496c1.891,2.958,3.745,5.936,5.529,8.96c0.922,1.563,1.76,3.2,2.726,4.739
					c-7.362-2.504-14.785-4.76-22.181-6.774c-1.608-0.438-2.012,2.129-0.41,2.565c8.342,2.272,16.785,4.863,25.133,7.777
					c-0.07,0.235-9.366,4.932-11.87,6.123c-3.431,1.633-6.904,3.166-10.403,4.648c-1.536,0.651-0.634,3.086,0.909,2.433
					c4.898-2.076,9.74-4.267,14.497-6.648c2.025-1.014,9.215-5.494,9.24-5.728c6.586,2.356,13.083,4.94,19.416,7.754
					c-0.076,0.316-0.185,0.613-0.352,0.88c-1.179,1.882-5.675,3.723-7.579,4.871c-3.124,1.883-6.313,3.632-9.552,5.309
					c-1.467,0.759-0.575,3.201,0.909,2.433c4.102-2.124,8.14-4.352,12.06-6.795c1.953-1.217,6.335-3.095,7.895-5.187
					c2.125,0.984,4.232,1.99,6.309,3.03c4.218,2.113,8.73,4.238,13.341,6.442c-1.783,1.801-6.591,3.666-7.906,4.346
					c-2.961,1.532-5.967,2.966-8.997,4.354c-1.511,0.693-0.614,3.131,0.909,2.433c4.342-1.991,8.626-4.1,12.822-6.382
					c1.519-0.826,4.475-1.881,5.886-3.449c5.663,2.73,11.425,5.614,16.961,8.794c-0.756,1.265-3.444,1.402-4.855,1.802
					c-2.602,0.735-5.203,1.471-7.804,2.206c-1.61,0.454-0.692,2.884,0.908,2.431c3.78-1.067,7.592-2.062,11.35-3.208
					c1.072-0.327,2.501-0.622,3.306-1.503c9.955,6.02,18.962,13.114,24.971,22.216c0.923,1.399,3.043-0.103,2.123-1.496
					c-6.377-9.66-16.1-17.126-26.737-23.431c-0.519-1.445-1.735-3.04-2.29-3.96c-1.837-3.046-3.888-5.939-6.085-8.733
					c-1.031-1.311-3.158,0.18-2.124,1.495c1.373,1.747,2.699,3.523,3.939,5.366c0.627,0.931,1.686,2.218,2.484,3.492
					c-5.096-2.836-10.319-5.441-15.434-7.923c-0.32-1.452-1.516-3.046-2.098-4.063c-2.285-3.99-5.053-7.614-8.145-11.006
					c-1.114-1.221-3.248,0.263-2.124,1.497c1.736,1.904,3.389,3.866,4.893,5.961c0.682,0.951,3.051,3.939,4.154,6.006
					c-3.553-1.712-7.03-3.379-10.326-5.027c-2.983-1.493-6.02-2.913-9.081-4.299c-0.315-0.83-0.885-1.626-1.274-2.309
					C151.566,306.504,148.946,301.941,146.339,297.372z"/>
			</g>
			<g>
				<g>
					<path style="fill:#43C4B5;" d="M221.306,299.182c-6.539-9.268-44.186-4.246-81.163-28.548
						c-13.252-8.71-30.581-26.07-35.319-41.339c-4.739-15.268-1.035-30.89,13.634-35.193c8.289-2.431,17.407,0.305,25.422,4.194
						c18.327,8.89,33.637,23.714,45.854,40.412C201.953,255.408,221.306,299.182,221.306,299.182z"/>
				</g>
				<path style="fill:#31AFA3;" d="M159.377,220.011c-0.463-1.639-2.921-0.665-2.463,0.957c0.833,2.944,3.969,9.807,4.094,14.41
					c-5.865-4.485-11.933-8.762-18.127-12.843c-0.211-0.639-0.437-1.237-0.561-1.697c-1.553-5.747-3.316-11.428-5.222-17.068
					c-0.546-1.615-3.005-0.649-2.462,0.957c1.143,3.384,2.245,6.778,3.268,10.2c0.528,1.768,0.955,3.59,1.532,5.346
					c-6.656-4.274-13.434-8.317-20.245-12.115c-1.48-0.825-2.508,1.609-1.033,2.432c7.681,4.284,15.384,8.908,22.914,13.828
					c-0.127,0.215-10.454,2.579-13.218,3.142c-3.787,0.773-7.592,1.437-11.409,2.044c-1.676,0.267-1.381,2.892,0.302,2.625
					c5.345-0.851,10.661-1.83,15.941-3.017c2.248-0.506,10.443-3.171,10.525-3.395c5.927,3.938,11.71,8.078,17.275,12.406
					c-0.153,0.293-0.333,0.56-0.563,0.782c-1.624,1.57-6.515,2.288-8.676,2.956c-3.545,1.095-7.122,2.042-10.731,2.905
					c-1.634,0.391-1.351,3.02,0.302,2.625c4.57-1.094,9.102-2.306,13.571-3.759c2.226-0.724,7.012-1.507,9.064-3.19
					c1.858,1.492,3.692,3,5.488,4.535c3.648,3.119,7.583,6.32,11.597,9.625c-2.201,1.342-7.405,2.008-8.87,2.357
					c-3.299,0.788-6.617,1.469-9.949,2.098c-1.662,0.315-1.372,2.941,0.302,2.625c4.774-0.903,9.52-1.938,14.222-3.164
					c1.702-0.444,4.879-0.763,6.656-1.966c4.923,4.081,9.908,8.338,14.595,12.833c-1.056,1.065-3.743,0.542-5.234,0.592
					c-2.749,0.089-5.497,0.179-8.246,0.269c-1.701,0.055-1.389,2.678,0.302,2.623c3.994-0.129,8.001-0.178,11.992-0.39
					c1.138-0.06,2.622-0.002,3.632-0.675c8.357,8.38,15.514,17.588,19.221,28.046c0.569,1.607,3.03,0.643,2.462-0.958
					c-3.933-11.099-11.708-20.849-20.668-29.678c-0.159-1.554-0.969-3.426-1.292-4.47c-1.069-3.457-2.386-6.815-3.872-10.112
					c-0.697-1.547-3.162-0.595-2.463,0.957c0.928,2.061,1.803,4.139,2.576,6.263c0.392,1.073,1.122,2.603,1.598,4.056
					c-4.338-4.047-8.858-7.897-13.301-11.6c0.039-1.512-0.751-3.379-1.078-4.525c-1.28-4.499-3.126-8.754-5.349-12.86
					c-0.801-1.478-3.271-0.534-2.463,0.959c1.249,2.305,2.4,4.647,3.374,7.083c0.441,1.106,2.049,4.636,2.632,6.947
					c-3.09-2.559-6.115-5.056-8.966-7.49c-2.58-2.204-5.231-4.349-7.915-6.466c-0.108-0.896-0.476-1.822-0.693-2.592
					C162.304,230.307,160.834,225.161,159.377,220.011z"/>
			</g>
			<g>
				<g>
					<path style="fill:#43C4B5;" d="M206.097,382.244c-11.342,0.029-28.855,33.732-69.987,50.042
						c-14.741,5.846-38.906,10.059-54.126,5.168c-15.22-4.89-25.881-16.895-20.977-31.375c2.771-8.182,10.248-14.074,18.035-18.402
						c17.804-9.896,38.732-13.915,59.419-14.325C159.147,372.944,206.097,382.244,206.097,382.244z"/>
				</g>
				<path style="fill:#31AFA3;" d="M105.717,387.465c-1.608-0.563-2.222,2.009-0.631,2.565c2.889,1.009,10.307,2.384,14.147,4.926
					c-7.04,2.225-14.026,4.736-20.925,7.462c-0.644-0.194-1.263-0.353-1.711-0.515c-5.597-2.03-11.259-3.85-16.971-5.528
					c-1.636-0.481-2.257,2.087-0.63,2.565c3.427,1.008,6.838,2.055,10.226,3.184c1.751,0.583,3.487,1.28,5.256,1.816
					c-7.322,2.994-14.525,6.22-21.546,9.614c-1.526,0.738-0.123,2.977,1.397,2.242c7.919-3.827,16.129-7.476,24.481-10.815
					c0.103,0.227-3.894,10.039-5.02,12.625c-1.543,3.544-3.184,7.04-4.88,10.514c-0.744,1.525,1.574,2.791,2.322,1.26
					c2.373-4.864,4.625-9.778,6.687-14.782c0.877-2.131,3.403-10.37,3.266-10.566c6.628-2.59,13.339-4.946,20.078-7.015
					c0.152,0.293,0.267,0.594,0.317,0.91c0.352,2.231-1.869,6.647-2.564,8.8c-1.14,3.53-2.419,7.003-3.785,10.453
					c-0.619,1.562,1.696,2.841,2.322,1.26c1.729-4.369,3.341-8.775,4.717-13.268c0.686-2.238,2.794-6.606,2.595-9.252
					c2.288-0.664,4.577-1.299,6.865-1.888c4.648-1.195,9.529-2.577,14.54-3.965c-0.165,2.572-2.61,7.215-3.165,8.614
					c-1.25,3.153-2.599,6.26-3.997,9.349c-0.697,1.541,1.619,2.813,2.322,1.26c2.003-4.427,3.882-8.906,5.578-13.46
					c0.615-1.648,2.178-4.432,2.214-6.578c6.169-1.686,12.516-3.321,18.889-4.577c0.265,1.476-1.707,3.376-2.522,4.625
					c-1.506,2.301-3.011,4.603-4.516,6.904c-0.932,1.424,1.395,2.675,2.32,1.259c2.189-3.344,4.45-6.652,6.569-10.041
					c0.604-0.966,1.504-2.148,1.533-3.36c11.659-2.028,23.308-2.598,33.999,0.374c1.642,0.457,2.266-2.111,0.63-2.565
					c-11.344-3.156-23.792-2.391-36.165-0.128c-1.363-0.762-3.361-1.174-4.401-1.51c-3.444-1.111-6.949-1.962-10.502-2.639
					c-1.667-0.318-2.303,2.247-0.632,2.566c2.22,0.424,4.424,0.901,6.606,1.488c1.103,0.296,2.775,0.577,4.238,1.022
					c-5.804,1.227-11.553,2.715-17.135,4.226c-1.215-0.9-3.197-1.325-4.323-1.717c-4.418-1.536-8.962-2.469-13.6-3.008
					c-1.67-0.193-2.316,2.371-0.63,2.567c2.604,0.301,5.182,0.704,7.736,1.307c1.159,0.275,4.972,0.985,7.198,1.835
					c-3.87,1.059-7.651,2.102-11.281,3.037c-3.286,0.846-6.565,1.784-9.839,2.765c-0.796-0.426-1.765-0.657-2.52-0.922
					C115.826,390.983,110.769,389.23,105.717,387.465z"/>
			</g>
			<g>
				<g>
					<path style="fill:#43C4B5;" d="M253.339,180.551c2.154-9.909-23.909-31.676-30.248-70.724
						c-2.272-13.995-1.308-35.903,5.887-48.254c7.194-12.35,19.724-19.352,31.425-12.289c6.611,3.992,10.32,11.652,12.602,19.283
						c5.221,17.447,4.708,36.493,1.091,54.634C270.48,141.344,253.339,180.551,253.339,180.551z"/>
				</g>
				<path style="fill:#31AFA3;" d="M268.066,91.901c0.8-1.296-1.327-2.326-2.119-1.044c-1.436,2.328-4.062,8.542-7.019,11.406
					c-0.59-6.574-1.44-13.157-2.495-19.704c0.293-0.525,0.551-1.035,0.779-1.395c2.848-4.497,5.525-9.092,8.088-13.756
					c0.734-1.336-1.388-2.372-2.119-1.043c-1.538,2.798-3.108,5.576-4.745,8.317c-0.846,1.417-1.788,2.799-2.596,4.241
					c-1.208-6.968-2.64-13.877-4.255-20.66c-0.351-1.474-2.576-0.679-2.226,0.789c1.82,7.65,3.429,15.519,4.74,23.453
					c-0.218,0.046-8.017-5.329-10.059-6.809c-2.798-2.028-5.535-4.133-8.243-6.281c-1.188-0.943-2.74,0.838-1.546,1.785
					c3.791,3.007,7.649,5.917,11.622,8.679c1.692,1.175,8.401,4.964,8.598,4.882c0.988,6.285,1.755,12.597,2.268,18.879
					c-0.285,0.077-0.57,0.119-0.856,0.102c-2.016-0.121-5.445-2.909-7.191-3.929c-2.864-1.674-5.65-3.458-8.399-5.314
					c-1.245-0.84-2.807,0.935-1.547,1.785c3.483,2.349,7.02,4.603,10.679,6.668c1.823,1.029,5.231,3.709,7.58,4.044
					c0.14,2.125,0.255,4.246,0.329,6.357c0.15,4.288,0.419,8.816,0.669,13.457c-2.214-0.639-5.798-3.665-6.913-4.419
					c-2.513-1.697-4.967-3.472-7.395-5.286c-1.212-0.905-2.767,0.874-1.547,1.785c3.481,2.599,7.031,5.101,10.681,7.457
					c1.321,0.853,3.451,2.753,5.318,3.197c0.287,5.71,0.495,11.567,0.367,17.372c-1.34-0.052-2.62-2.139-3.553-3.091
					c-1.72-1.757-3.441-3.513-5.161-5.27c-1.064-1.087-2.604,0.704-1.545,1.784c2.499,2.553,4.953,5.164,7.505,7.665
					c0.728,0.713,1.586,1.726,2.64,1.984c-0.47,10.57-2.21,20.851-6.859,29.614c-0.715,1.346,1.408,2.385,2.119,1.043
					c4.935-9.299,6.659-20.314,7.06-31.553c0.928-1.044,1.671-2.709,2.164-3.553c1.631-2.794,3.048-5.691,4.322-8.663
					c0.598-1.394-1.519-2.442-2.119-1.044c-0.796,1.857-1.637,3.69-2.569,5.482c-0.47,0.907-1.037,2.312-1.706,3.504
					c0.044-5.304-0.151-10.609-0.397-15.774c1.02-0.888,1.772-2.537,2.329-3.445c2.19-3.562,3.878-7.351,5.239-11.297
					c0.49-1.421-1.625-2.478-2.12-1.043c-0.763,2.216-1.61,4.39-2.627,6.503c-0.462,0.959-1.816,4.152-2.985,5.933
					c-0.181-3.582-0.365-7.084-0.484-10.434c-0.107-3.032-0.297-6.075-0.524-9.122c0.525-0.613,0.912-1.415,1.289-2.023
					C263.052,100.052,265.554,95.973,268.066,91.901z"/>
			</g>
			<g>
				<g>
					<path style="fill:#43C4B5;" d="M264.53,290.892c7.078-7.262,39.609,2.473,75.677-13.776
						c12.927-5.823,30.67-18.711,37.004-31.524c6.334-12.813,5.264-27.126-7.082-32.991c-6.976-3.313-15.411-2.182-23.036,0.123
						c-17.432,5.268-33.037,16.2-46.174,29.223C287.78,254.97,264.53,290.892,264.53,290.892z"/>
				</g>
				<path style="fill:#31AFA3;" d="M330.354,229.713c0.64-1.382,2.673-0.176,2.04,1.191c-1.15,2.482-4.885,8.099-5.643,12.146
					c5.809-3.134,11.769-6.055,17.813-8.786c0.276-0.534,0.56-1.03,0.734-1.419c2.18-4.855,4.537-9.623,7.014-14.333
					c0.709-1.349,2.744-0.15,2.039,1.192c-1.486,2.827-2.937,5.668-4.321,8.545c-0.716,1.487-1.349,3.035-2.106,4.504
					c6.479-2.836,13.032-5.452,19.58-7.846c1.423-0.52,1.987,1.774,0.569,2.292c-7.385,2.701-14.836,5.699-22.178,8.982
					c0.082,0.208,8.867,3.749,11.228,4.635c3.235,1.215,6.5,2.338,9.785,3.411c1.442,0.471,0.812,2.747-0.636,2.275
					c-4.599-1.504-9.155-3.117-13.65-4.908c-1.913-0.763-8.774-4.27-8.814-4.479c-5.787,2.642-11.476,5.484-16.999,8.521
					c0.093,0.28,0.215,0.541,0.387,0.77c1.213,1.614,5.43,2.937,7.243,3.831c2.976,1.465,6,2.805,9.065,4.076
					c1.388,0.575,0.768,2.857-0.636,2.275c-3.88-1.609-7.711-3.317-11.452-5.23c-1.863-0.953-5.979-2.318-7.553-4.092
					c-1.85,1.055-3.682,2.129-5.484,3.231c-3.66,2.24-7.585,4.512-11.594,6.864c1.754,1.495,6.255,2.815,7.499,3.33
					c2.802,1.16,5.635,2.228,8.488,3.254c1.423,0.512,0.798,2.79-0.636,2.275c-4.088-1.47-8.132-3.051-12.111-4.796
					c-1.44-0.632-4.2-1.361-5.6-2.673c-4.921,2.91-9.921,5.967-14.693,9.275c0.782,1.089,3.229,1.005,4.538,1.259
					c2.415,0.466,4.828,0.932,7.242,1.398c1.494,0.288,0.849,2.56-0.636,2.273c-3.508-0.676-7.039-1.284-10.533-2.033
					c-0.997-0.214-2.315-0.371-3.111-1.107c-8.558,6.221-16.174,13.343-20.919,22.055c-0.729,1.339-2.766,0.141-2.039-1.192
					c5.035-9.245,13.272-16.759,22.426-23.292c0.359-1.349,1.338-2.888,1.77-3.765c1.43-2.901,3.066-5.681,4.842-8.383
					c0.833-1.268,2.875-0.08,2.04,1.191c-1.11,1.689-2.175,3.401-3.156,5.167c-0.497,0.892-1.357,2.14-1.982,3.356
					c4.4-2.962,8.933-5.725,13.377-8.368c0.178-1.34,1.139-2.877,1.589-3.843c1.763-3.792,3.993-7.289,6.534-10.601
					c0.915-1.192,2.963-0.011,2.04,1.193c-1.427,1.859-2.774,3.764-3.976,5.778c-0.545,0.915-2.462,3.804-3.302,5.762
					c3.088-1.825,6.111-3.603,8.971-5.351c2.588-1.583,5.231-3.103,7.898-4.594c0.222-0.776,0.677-1.542,0.977-2.191
					C326.32,238.391,328.343,234.055,330.354,229.713z"/>
			</g>
			<g>
				<g>
					<path style="fill:#43C4B5;" d="M289.293,392.16c11.35-1.574,33.633,29.664,77.084,40.165
						c15.573,3.764,40.341,4.563,54.875-2.482c14.534-7.043,23.501-20.559,16.549-34.351c-3.929-7.793-12.241-12.63-20.642-15.858
						c-19.208-7.383-40.712-8.444-61.463-5.93C334.943,376.219,289.293,392.16,289.293,392.16z"/>
				</g>
				<path style="fill:#31AFA3;" d="M390.444,383.192c1.529-0.79,2.507,1.695,0.994,2.477c-2.747,1.418-9.974,3.842-13.455,6.927
					c7.357,1.23,14.701,2.754,21.987,4.507c0.617-0.285,1.214-0.531,1.639-0.757c5.311-2.822,10.719-5.442,16.195-7.929
					c1.568-0.712,2.553,1.768,0.993,2.477c-3.285,1.492-6.55,3.022-9.78,4.63c-1.669,0.831-3.308,1.773-5.001,2.56
					c7.747,1.96,15.409,4.169,22.912,6.571c1.631,0.522,0.544,2.961-1.081,2.44c-8.463-2.709-17.191-5.199-26.018-7.358
					c-0.071,0.242,5.314,9.492,6.807,11.92c2.044,3.327,4.18,6.592,6.367,9.827c0.96,1.42-1.18,3.015-2.144,1.589
					c-3.062-4.53-6.009-9.128-8.779-13.842c-1.179-2.007-4.87-9.892-4.761-10.107c-6.996-1.654-14.043-3.062-21.076-4.179
					c-0.111,0.315-0.183,0.632-0.188,0.955c-0.037,2.282,2.809,6.385,3.808,8.44c1.64,3.371,3.41,6.663,5.264,9.921
					c0.84,1.475-1.295,3.082-2.145,1.589c-2.347-4.126-4.582-8.306-6.595-12.606c-1.003-2.142-3.729-6.213-3.904-8.888
					c-2.383-0.341-4.762-0.653-7.134-0.918c-4.819-0.538-9.897-1.231-15.105-1.911c0.529,2.55,3.631,6.848,4.384,8.17
					c1.696,2.977,3.484,5.895,5.32,8.787c0.915,1.443-1.222,3.042-2.145,1.589c-2.629-4.146-5.142-8.36-7.483-12.676
					c-0.848-1.562-2.805-4.125-3.145-6.267c-6.409-0.815-12.99-1.553-19.542-1.908c-0.056,1.514,2.185,3.135,3.177,4.27
					c1.832,2.089,3.663,4.179,5.493,6.268c1.134,1.292-1.017,2.873-2.143,1.588c-2.662-3.035-5.392-6.025-7.99-9.116
					c-0.741-0.881-1.808-1.936-2.009-3.145c-11.95-0.38-23.683,0.696-33.957,5.181c-1.578,0.689-2.565-1.791-0.993-2.477
					c10.902-4.76,23.462-5.755,36.159-5.24c1.256-0.955,3.196-1.65,4.189-2.132c3.288-1.598,6.674-2.945,10.132-4.124
					c1.622-0.554,2.621,1.922,0.995,2.477c-2.161,0.737-4.298,1.527-6.398,2.423c-1.062,0.452-2.694,0.969-4.095,1.621
					c5.98,0.407,11.94,1.083,17.739,1.805c1.088-1.072,3.011-1.778,4.082-2.328c4.202-2.162,8.616-3.737,13.179-4.931
					c1.643-0.429,2.652,2.044,0.993,2.478c-2.562,0.67-5.085,1.437-7.554,2.401c-1.12,0.439-4.834,1.689-6.941,2.853
					c4.021,0.512,7.951,1.021,11.715,1.443c3.407,0.382,6.82,0.857,10.233,1.375c0.736-0.539,1.673-0.906,2.391-1.278
					C380.829,388.14,385.64,385.673,390.444,383.192z"/>
			</g>
			<g>
				<g>
					<path style="fill:#31AFA3;" d="M238.826,226.043c-5.103-8.763-39.025-7.215-70.07-31.733
						c-11.127-8.787-25.211-25.596-28.245-39.563c-3.035-13.967,1.478-27.593,14.878-30.285c7.572-1.521,15.48,1.624,22.317,5.711
						c15.632,9.342,28.117,23.735,37.701,39.556C224.991,185.551,238.826,226.043,238.826,226.043z"/>
				</g>
				<path style="fill:#48C1B5;" d="M189.82,150.716c-0.285-1.496-2.55-0.82-2.268,0.661c0.514,2.687,2.773,9.043,2.526,13.152
					c-4.875-4.45-9.947-8.731-15.147-12.847c-0.138-0.585-0.293-1.135-0.368-1.555c-0.936-5.24-2.065-10.436-3.325-15.607
					c-0.361-1.481-2.626-0.812-2.267,0.661c0.755,3.103,1.473,6.211,2.118,9.338c0.333,1.616,0.572,3.272,0.949,4.881
					c-5.596-4.324-11.319-8.452-17.09-12.364c-1.254-0.85-2.359,1.239-1.109,2.086c6.508,4.413,13.009,9.13,19.334,14.096
					c-0.13,0.182-9.512,1.484-12.017,1.771c-3.433,0.394-6.873,0.69-10.32,0.934c-1.513,0.107-1.454,2.468,0.065,2.361
					c4.826-0.343,9.638-0.802,14.433-1.448c2.042-0.276,9.548-2.013,9.638-2.206c4.973,3.968,9.802,8.105,14.422,12.392
					c-0.159,0.249-0.34,0.473-0.562,0.653c-1.569,1.272-5.98,1.531-7.957,1.958c-3.242,0.699-6.502,1.265-9.783,1.754
					c-1.486,0.221-1.438,2.585,0.065,2.361c4.155-0.619,8.286-1.346,12.379-2.294c2.039-0.472,6.363-0.797,8.321-2.137
					c1.539,1.473,3.055,2.959,4.536,4.466c3.007,3.061,6.263,6.219,9.581,9.473c-2.065,1.024-6.752,1.213-8.083,1.41
					c-2.999,0.445-6.008,0.794-9.024,1.096c-1.505,0.151-1.451,2.513,0.065,2.361c4.323-0.434,8.63-0.986,12.913-1.713
					c1.551-0.263,4.404-0.3,6.081-1.234c4.068,4.018,8.176,8.196,12.002,12.564c-1.023,0.866-3.376,0.192-4.708,0.12
					c-2.455-0.134-4.91-0.268-7.365-0.401c-1.519-0.083-1.445,2.278,0.065,2.36c3.567,0.195,7.14,0.463,10.711,0.584
					c1.018,0.035,2.336,0.202,3.287-0.319c6.792,8.113,12.452,16.87,14.94,26.473c0.382,1.475,2.649,0.808,2.267-0.662
					c-2.64-10.191-8.808-19.479-16.102-28.039c-0.021-1.396-0.597-3.127-0.803-4.082c-0.683-3.162-1.595-6.255-2.663-9.308
					c-0.501-1.432-2.77-0.775-2.268,0.661c0.667,1.907,1.285,3.827,1.808,5.778c0.265,0.986,0.797,2.405,1.108,3.737
					c-3.549-3.941-7.276-7.722-10.946-11.365c0.152-1.343-0.407-3.068-0.608-4.114c-0.79-4.106-2.104-8.04-3.765-11.87
					c-0.599-1.379-2.872-0.73-2.268,0.662c0.933,2.15,1.777,4.325,2.454,6.571c0.307,1.02,1.465,4.288,1.805,6.391
					c-2.553-2.52-5.053-4.978-7.403-7.368c-2.126-2.164-4.322-4.28-6.547-6.374c-0.027-0.807-0.283-1.66-0.416-2.363
					C191.627,160.113,190.717,155.416,189.82,150.716z"/>
			</g>
			<g>
				<g>
					<path style="fill:#31AFA3;" d="M273.195,365.876c8.288-7.458,43.28,5.562,84.021-9.672
						c14.602-5.46,34.996-18.323,42.867-31.926c7.871-13.602,7.726-29.384-5.398-36.706c-7.416-4.137-16.752-3.502-25.283-1.522
						c-19.505,4.526-37.412,15.398-52.763,28.741C301.288,328.135,273.195,365.876,273.195,365.876z"/>
				</g>
				<path style="fill:#48C1B5;" d="M349.815,303.486c0.801-1.471,2.945-0.001,2.152,1.454c-1.441,2.64-5.942,8.535-7.065,12.92
					c6.599-3.021,13.348-5.798,20.175-8.359c0.341-0.566,0.689-1.09,0.908-1.504c2.741-5.171,5.669-10.232,8.726-15.222
					c0.875-1.429,3.022,0.033,2.151,1.454c-1.834,2.994-3.63,6.008-5.355,9.065c-0.892,1.58-1.698,3.233-2.634,4.79
					c7.312-2.646,14.69-5.044,22.046-7.2c1.599-0.469,2.053,2.089,0.46,2.556c-8.297,2.432-16.688,5.186-24.979,8.26
					c0.075,0.234,9.459,4.751,11.986,5.893c3.461,1.566,6.963,3.033,10.49,4.447c1.548,0.621,0.693,3.073-0.862,2.45
					c-4.938-1.981-9.82-4.078-14.623-6.367c-2.044-0.975-9.319-5.316-9.349-5.548c-6.539,2.483-12.986,5.191-19.263,8.127
					c0.082,0.314,0.197,0.609,0.369,0.872c1.215,1.859,5.746,3.613,7.672,4.725c3.159,1.822,6.382,3.509,9.652,5.124
					c1.481,0.731,0.637,3.19-0.862,2.45c-4.142-2.045-8.222-4.194-12.189-6.562c-1.976-1.179-6.394-2.973-7.993-5.033
					c-2.106,1.025-4.193,2.071-6.249,3.151c-4.176,2.194-8.646,4.405-13.214,6.698c1.817,1.766,6.66,3.539,7.988,4.193
					c2.99,1.474,6.023,2.85,9.079,4.18c1.525,0.664,0.674,3.118-0.862,2.45c-4.379-1.906-8.703-3.933-12.942-6.133
					c-1.535-0.797-4.51-1.795-5.952-3.335c-5.609,2.839-11.315,5.833-16.788,9.12c0.78,1.251,3.47,1.335,4.889,1.708
					c2.615,0.684,5.23,1.37,7.845,2.055c1.618,0.423,0.748,2.87-0.861,2.448c-3.8-0.994-7.631-1.915-11.41-2.988
					c-1.078-0.306-2.513-0.574-3.334-1.439c-9.837,6.211-18.705,13.477-24.538,22.693c-0.896,1.416-3.044-0.044-2.151-1.455
					c6.189-9.781,15.767-17.433,26.28-23.943c0.491-1.454,1.676-3.073,2.213-4.003c1.778-3.081,3.773-6.013,5.916-8.849
					c1.005-1.331,3.16,0.119,2.152,1.454c-1.339,1.773-2.631,3.575-3.834,5.441c-0.609,0.943-1.643,2.25-2.416,3.54
					c5.04-2.933,10.212-5.639,15.278-8.22c0.292-1.458,1.457-3.075,2.019-4.102c2.207-4.033,4.905-7.71,7.931-11.161
					c1.09-1.242,3.252,0.201,2.152,1.456c-1.699,1.937-3.314,3.931-4.778,6.054c-0.664,0.964-2.974,3.997-4.037,6.085
					c3.519-1.78,6.964-3.514,10.228-5.225c2.953-1.55,5.962-3.029,8.996-4.473c0.299-0.836,0.854-1.643,1.229-2.334
					C344.765,312.717,347.297,308.105,349.815,303.486z"/>
			</g>
			<g>
				<g>
					<path style="fill:#31AFA3;" d="M255.499,202.692c6.994-7.342,39.635,2.021,75.515-14.638
						c12.86-5.971,30.454-19.06,36.642-31.945c6.188-12.884,4.954-27.185-7.458-32.908c-7.013-3.233-15.435-2.006-23.033,0.386
						c-17.371,5.467-32.85,16.576-45.838,29.747C278.338,166.507,255.499,202.692,255.499,202.692z"/>
				</g>
				<path style="fill:#48C1B5;" d="M320.621,140.766c0.624-1.389,2.67-0.207,2.053,1.168c-1.122,2.495-4.792,8.154-5.504,12.209
					c5.773-3.2,11.699-6.189,17.711-8.989c0.27-0.537,0.548-1.037,0.718-1.427c2.124-4.88,4.426-9.674,6.85-14.413
					c0.694-1.357,2.742-0.182,2.052,1.169c-1.453,2.843-2.872,5.701-4.223,8.594c-0.699,1.495-1.314,3.05-2.054,4.528
					c6.446-2.91,12.968-5.6,19.489-8.069c1.417-0.537,2.008,1.751,0.596,2.286c-7.354,2.785-14.771,5.868-22.074,9.234
					c0.084,0.207,8.909,3.647,11.28,4.507c3.248,1.178,6.526,2.264,9.823,3.3c1.447,0.455,0.843,2.738-0.61,2.282
					c-4.616-1.451-9.19-3.012-13.705-4.752c-1.922-0.741-8.822-4.169-8.865-4.378c-5.757,2.708-11.413,5.614-16.9,8.714
					c0.097,0.279,0.221,0.539,0.396,0.765c1.231,1.6,5.463,2.875,7.287,3.748c2.992,1.432,6.032,2.737,9.111,3.972
					c1.394,0.559,0.8,2.848-0.61,2.282c-3.898-1.565-7.749-3.229-11.511-5.099c-1.874-0.931-6.005-2.249-7.6-4.006
					c-1.838,1.076-3.658,2.171-5.447,3.294c-3.634,2.282-7.533,4.599-11.515,6.996c1.771,1.475,6.287,2.743,7.536,3.244
					c2.815,1.128,5.66,2.164,8.525,3.156c1.429,0.496,0.829,2.781-0.61,2.282c-4.104-1.423-8.166-2.958-12.164-4.658
					c-1.448-0.615-4.215-1.313-5.63-2.609c-4.888,2.966-9.853,6.08-14.586,9.442c0.795,1.08,3.24,0.969,4.552,1.207
					c2.419,0.438,4.838,0.877,7.257,1.316c1.497,0.271,0.878,2.551-0.61,2.28c-3.516-0.636-7.053-1.203-10.555-1.913
					c-0.999-0.202-2.318-0.345-3.124-1.072c-8.486,6.319-16.021,13.527-20.666,22.292c-0.713,1.347-2.764,0.172-2.052-1.169
					c4.929-9.302,13.08-16.909,22.159-23.546c0.344-1.353,1.305-2.903,1.727-3.784c1.397-2.918,3.001-5.716,4.746-8.438
					c0.819-1.277,2.874-0.113,2.053,1.168c-1.09,1.701-2.136,3.425-3.097,5.202c-0.487,0.898-1.333,2.155-1.944,3.378
					c4.366-3.012,8.867-5.827,13.281-8.52c0.163-1.342,1.106-2.89,1.545-3.861c1.72-3.812,3.91-7.334,6.412-10.675
					c0.902-1.202,2.963-0.045,2.053,1.17c-1.406,1.875-2.73,3.796-3.91,5.823c-0.535,0.921-2.418,3.832-3.236,5.8
					c3.067-1.86,6.069-3.672,8.909-5.453c2.57-1.612,5.195-3.163,7.845-4.684c0.213-0.779,0.66-1.549,0.952-2.202
					C316.686,149.489,318.66,145.13,320.621,140.766z"/>
			</g>
		</g>
		<path style="fill:#49C1B3;" d="M69.863,451.931c-0.005,8.763,81.26,15.906,181.508,15.955
			c100.249,0.048,181.52-7.016,181.524-15.779c0.004-8.763-81.26-15.906-181.508-15.955
			C151.138,436.103,69.867,443.168,69.863,451.931z"/>
		<g>
			<g>
				<path style="fill:#452B52;" d="M186.999,393.297c-15.935,5.602-59.611,18.611-61.948,37.048
					c-1.432,11.298,7.011,29.694,35.054,25.41c28.043-4.284,58.798-16.358,58.798-16.358l-2.189-15.588
					c0,0,29.621-7.672,38.524-7.17c17.286,0.976,23.87,5.244,23.87,5.244l-46.994,6.759c0,0,5.623,4.458,8.419,16.141
					c1.088,4.546-0.154,7.467-0.154,7.467s47.489,6.16,79.037,6.16s53.659-10.711,45.869-33.208
					c-7.79-22.497-66.021-40.557-66.021-40.557l-90.733,3.539C208.531,388.183,202.934,387.694,186.999,393.297z"/>
				<path style="fill:#F8B986;" d="M235.214,432.19c-4.211,0.026-15.515-0.23-18.439-2.921c-2.924-2.691-3.957-4.894-9.582-3.766
					c-5.625,1.129-19.283,18.611-21.209,24.431c-1.926,5.82-3.347,12.4-1.926,13.22c1.421,0.821,11.554-7.552,16.887-11.534
					c8.582-6.407,39.434,0.629,39.434,0.629S242.56,439.537,235.214,432.19z"/>
				<path style="fill:#F8B986;" d="M213.895,412.158c3.085,0,16.015-0.23,18.939-2.921c2.924-2.691,5.106-5.937,10.841-6.075
					c5.625-0.135,7.165,1.509,10.296,6.634c3.196,5.231,26.558,11.267,25.136,12.087c-1.421,0.821-24.758,3.688-31.368,4.466
					c-5.489,0.646-10.799,1.495-15.54,2.36c0.729,0.473,3.15,3.457,3.015,3.482c-9.349,1.718-19.605,0.026-19.605,0.026
					S218.583,423.287,213.895,412.158z"/>
			</g>
			<path style="fill:#D83D75;" d="M319.702,293.284c-4.619-11.922-9.375-22.053-13.366-26.044
				c-11.473-11.473-31.116-16.169-31.116-16.169s-8.412,8.108-24.453,6.604c-13.379-1.254-17.983-6.427-17.983-6.427
				s-33.61,5.599-43.541,22.802c-1.451,2.513-0.508,7.115-2.384,11.304"/>
			
				<path style="fill:none;stroke:#3A2547;stroke-width:1.9232;stroke-linecap:round;stroke-linejoin:round;stroke-miterlimit:10;" d="
				M174.668,412.814c0,0,18.672-4.951,38.584-0.712"/>
			
				<path style="fill:none;stroke:#3A2547;stroke-width:1.9232;stroke-linecap:round;stroke-linejoin:round;stroke-miterlimit:10;" d="
				M278.758,421.93c0,0,31.994-8.514,43.809-1.693"/>
			<path style="fill:#D83D75;" d="M298.497,289.38l-95.802-7.694c0,0,1.277,68.275-15.697,111.61c0,0,75.084,15.987,125.328-5.337
				c0,0-17.178-62.605-17.077-97.067"/>
			<path style="fill:#F8B986;" d="M173.49,351.561c1.068,6.246,57.901,2.231,69.374,1.44c1.506-0.104,2.903-0.841,3.788-2.064
				c1.506-2.081,3.346-6.142,3.346-13.568c0-6.23-0.706-10.596-1.419-13.415c-0.381-1.509-2.474-1.614-2.994-0.146
				c-1.128,3.185-1.606,7.125-2.463,10.767c-1.248,5.304-4.604,5.449-4.604,5.449l-40.271-0.605l4.733-30.676l-11.076-33.617
				C191.904,275.127,168.519,322.503,173.49,351.561z"/>
			<path style="fill:#D83D75;" d="M176.375,311.177c0,0,20.589,8.357,26.321,8.357l4.383-40.731l-17.836-4.752
				c0,0-9.622,13.006-17.836,32.719C171.406,309.414,176.375,311.177,176.375,311.177z"/>
			<path style="fill:#F8B986;" d="M327.401,348.623c0,10.057-59.239,5.177-70.833,4.377c-1.506-0.104-2.903-0.841-3.788-2.064
				c-1.506-2.081-3.346-6.142-3.346-13.568c0-6.23,0.706-10.596,1.419-13.415c0.382-1.509,2.474-1.614,2.994-0.146
				c1.128,3.185,1.473,7.048,2.463,10.767c1.402,5.266,1.719,5.449,1.719,5.449l46.693-0.643l-7.308-30.637l11.076-33.617
				C308.489,275.127,327.401,300.775,327.401,348.623z"/>
			<path style="fill:#D83D75;" d="M324.019,311.177c0,0-23.036,9.134-28.768,9.134l-1.936-41.508l15.163-8.95
				c0,0,12.295,17.203,20.509,36.916C328.987,309.414,324.019,311.177,324.019,311.177z"/>
			<g>
				<path style="fill:#F8B986;" d="M247.671,134.767c0,0-43.16-1.817-44.894,45.236c-1.592,43.187,20.645,57.675,43.714,61.523
					c23.069,3.848,59.447-10.737,63.089-38.543C312.724,178.981,312.683,125.071,247.671,134.767z"/>
				<path style="fill:#F8B986;" d="M272.716,253.121c-0.858-2.273-1.528-13.365-1.954-15.874
					c-15.983,2.158-34.544-20.614-34.533,2.126c0.001,1.97,1.093,12.792-1.391,14.86c0,0,4.186,5.487,19.453,5.499
					C269.559,259.744,272.716,253.121,272.716,253.121z"/>
				<path style="opacity:0.32;fill:#E28C53;" d="M271.029,239.484c0,0-23.979,2.706-31.347-0.692c0,0,8.348,6.122,31.616,3.51
					L271.029,239.484z"/>
				<path style="fill:#382344;" d="M287.99,159.35c0,0-32.414,16.906-81.292,33.68c-9.638,3.307-9.025,8.172-9.025,8.172
					s-22.681-28.193-2.349-62.148c28.224-47.135,83.517-29.857,95.783-21.753c14.435,9.537,24.081,21.268,25.944,43.698
					c0.85,10.237-3.107,26.157-4.263,31.555c-1.365,6.368-2.616,0.488-2.616,0.488S300.366,181.551,287.99,159.35z"/>
				<g>
					<circle style="fill:#F8B986;" cx="310.607" cy="198.724" r="7.83"/>
					<g>
						<path style="fill:#D98D49;" d="M315.322,199.645c-0.416,0-0.793-0.284-0.894-0.707c-1.02-4.282-4.062-4.062-4.096-4.062
							c-0.497,0.048-0.953-0.329-0.997-0.837c-0.044-0.506,0.33-0.953,0.837-0.997c1.605-0.139,4.941,0.82,6.047,5.469
							c0.117,0.495-0.188,0.991-0.682,1.109C315.465,199.637,315.393,199.645,315.322,199.645z"/>
					</g>
				</g>
				<g>
					<path style="fill:#F8B986;" d="M194.866,198.724c0,4.324,3.506,7.83,7.83,7.83c4.325,0,7.83-3.506,7.83-7.83
						c0-4.324-3.506-7.83-7.83-7.83C198.371,190.894,194.866,194.4,194.866,198.724z"/>
					<g>
						<path style="fill:#D98D49;" d="M197.981,199.645c-0.071,0-0.142-0.008-0.214-0.025c-0.494-0.118-0.8-0.614-0.682-1.109
							c1.106-4.649,4.432-5.606,6.048-5.469c0.506,0.044,0.88,0.491,0.836,0.997c-0.044,0.505-0.492,0.861-0.99,0.838
							c-0.145-0.016-3.101-0.152-4.104,4.06C198.775,199.361,198.397,199.645,197.981,199.645z"/>
					</g>
				</g>
				<g>
					<g>
						<path style="fill:#D98D49;" d="M254.963,200.705c0.009,0,0.017-0.001,0.025-0.001c0.131-0.004,1.301-0.039,2.064-0.209
							c1.847-0.412,2.553-1.336,2.822-2.038c0.277-0.725,0.358-1.937-0.826-3.586c-1.051-1.465-1.074-4.285-0.994-5.249
							c0.043-0.516-0.34-0.969-0.856-1.011c-0.524-0.044-0.969,0.341-1.011,0.856c-0.014,0.17-0.326,4.178,1.339,6.497
							c0.537,0.747,0.755,1.413,0.597,1.825c-0.147,0.385-0.672,0.697-1.479,0.876c-0.498,0.112-1.4,0.157-1.706,0.165
							c-0.518,0.014-0.926,0.444-0.912,0.962C254.04,200.302,254.457,200.705,254.963,200.705z"/>
					</g>
					<path style="opacity:0.32;fill:#E28C53;" d="M209.326,204.905c0,6.211,5.035,11.245,11.245,11.245
						c6.211,0,11.245-5.035,11.245-11.245c0-6.211-5.035-11.245-11.245-11.245C214.361,193.66,209.326,198.695,209.326,204.905z"/>
					<path style="opacity:0.32;fill:#E28C53;" d="M282.193,204.905c0,6.211,5.035,11.245,11.245,11.245
						c6.211,0,11.245-5.035,11.245-11.245c0-6.211-5.035-11.245-11.245-11.245C287.228,193.66,282.193,198.695,282.193,204.905z"/>
					<g>
						<path style="fill:#D98D49;" d="M257.223,211.752c-4.854,0-8.686-3.346-8.855-3.495c-0.38-0.337-0.415-0.918-0.079-1.298
							c0.336-0.381,0.917-0.418,1.299-0.08c0.038,0.032,3.834,3.337,8.262,3.009c2.423-0.177,4.625-1.419,6.544-3.69
							c0.329-0.39,0.911-0.434,1.298-0.109c0.388,0.328,0.436,0.91,0.109,1.298c-2.255,2.667-4.89,4.126-7.831,4.339
							C257.718,211.743,257.469,211.752,257.223,211.752z"/>
					</g>
					<g>
						<path style="fill:#1C1C1A;" d="M238.881,187.982c0.541,2.84-0.589,7.517-4.199,7.551c-3.827,0.036-4.593-4.316-4.171-7.255
							c0.12-0.834,0.686-1.52,1.591-1.503c0.763,0.014,1.622,0.764,1.503,1.591c-0.127,0.886-0.594,3.863,0.902,4.057
							c1.373,0.177,1.527-2.86,1.366-3.702C235.502,186.768,238.508,186.023,238.881,187.982L238.881,187.982z"/>
					</g>
					<g>
						<path style="fill:#1C1C1A;" d="M283.7,187.179c0.541,2.84-0.589,7.517-4.199,7.551c-3.827,0.036-4.593-4.315-4.171-7.255
							c0.12-0.834,0.686-1.52,1.591-1.503c0.763,0.014,1.622,0.764,1.503,1.591c-0.127,0.886-0.593,3.863,0.902,4.057
							c1.372,0.177,1.527-2.86,1.366-3.702C280.321,185.964,283.327,185.22,283.7,187.179L283.7,187.179z"/>
					</g>
				</g>
				<path style="fill:#C63671;" d="M235.233,251.072c0,0,17.415,8.019,36.85-0.859c0,0,4.458,0.574,7.36,2.076
					c0,0-9.445,9.365-25.434,9.365c-14.283,0-22.396-4.622-25.447-8.537L235.233,251.072z"/>
				<path style="fill:#382344;" d="M211.194,261.776c9.377,14.345,3.932,49.123-1.868,54.923c0,0,22.49,2.429,31.901-35.31
					c3.314-13.289,0.076-40.602-4.999-42.378c-6.966-2.438-13.655-6.907-18.41-10.921
					C207.195,232.889,202.58,248.599,211.194,261.776z"/>
			</g>
			<path style="fill:#E8A572;" d="M248.454,333.333c0,1.763,0,8.074,0.827,11.291l0.435-2.523c0,0-0.274-5.89,0-11.199l-0.374-3.105
				C249.342,327.797,248.454,331.571,248.454,333.333z"/>
			<polygon style="fill:#C63671;" points="295.25,296.792 297.771,319.887 300.635,319.165 			"/>
			<polygon style="fill:#C63671;" points="204.005,296.439 201.485,319.534 198.62,318.811 			"/>
		</g>
		<path style="fill:#EAAA7A;" d="M218.558,428.552c2.05,1.29,8.621,3.185,15.487,2.082l1.169,1.556c0,0-6.152,1.306-11.12,0
			c-6.451-1.696-7.933-3.504-7.933-3.504l0.32-1.773C216.48,426.914,216.507,427.262,218.558,428.552z"/>
	</g>
</g>
</svg>
