<?xml version="1.0" encoding="utf-8"?>
<!-- Generator: Adobe Illustrator 27.5.0, SVG Export Plug-In . SVG Version: 6.00 Build 0)  -->
<svg version="1.1" id="Capa_1" xmlns="http://www.w3.org/2000/svg" xmlns:xlink="http://www.w3.org/1999/xlink" x="0px" y="0px"
	 viewBox="0 0 2122 2122" style="enable-background:new 0 0 2122 2122;" xml:space="preserve">
<path style="fill:#F08774;" d="M1885.966,1726.158c-22.836-27.494-53.949-46.845-85.817-63.055
	c-31.43-16.017-64.201-29.37-97.819-40.086c17.341-3.786,34.985-5.266,52.529-2.734c5.919,0.858,11.98,2.158,17.822,0.848
	c5.837-1.311,11.425-6.207,11.152-12.185c-0.166-3.62-2.392-6.825-4.936-9.403c-6.085-6.158-14.187-9.822-22.09-13.355
	c-33.88-15.143-70.694-30.631-106.957-22.757c-17.559,3.815-33.51,12.901-50.685,18.202c-14.006,4.327-28.795,6.015-43.423,5.126
	c-15.976-3.752-31.888-7.725-47.658-12.204c-7.708-3.182-15.347-6.572-23.121-9.575c-9.759-3.77-19.968-6.954-30.304-8.264
	c-30.328-11.954-59.51-27.14-85.505-46.791c-1.008-0.755-2.022-1.564-3.035-2.427c-3.21-5.111-6.879-10.041-10.85-14.772
	c-8.424-10.09-18.031-19.371-26.504-28.049c-2.426-2.489-4.789-5.02-7.091-7.589c-0.476-0.531-0.921-1.083-1.392-1.617
	c-1.798-2.043-3.585-4.093-5.306-6.183c-0.61-0.741-1.183-1.507-1.783-2.255c-1.553-1.932-3.107-3.865-4.594-5.837
	c-0.39-0.516-0.754-1.048-1.139-1.567c-1.693-2.279-3.368-4.568-4.974-6.898c-1.825-2.632-3.592-5.293-5.308-7.981
	c-5.333-8.372-10.156-17.022-14.473-25.909c-5.335-11.03-9.89-22.411-13.71-34.046c-2.402-7.362-4.502-14.821-6.295-22.382
	c-2.186-9.104-3.883-18.342-5.205-27.654c63.063,41.92,125.305,85.047,189.94,124.619c17.052,10.436,34.509,20.731,53.817,26.315
	c19.303,5.583,40.93,6.036,58.898-2.821c4.889-2.41,9.396-5.626,13.34-9.393c17.802-9.424,28.146-31.87,27.698-52.722
	c-0.531-24.891-12.385-47.937-23.386-70.29c-41.895-85.13-75.206-174.45-99.259-266.183c-8.701-33.188-16.224-66.772-28-99.006
	c-11.625-31.81-27.357-62.119-46.694-89.954c-10.801-15.556-23.084-30.655-39.323-40.457c-13.748-8.296-38.119-15.178-61.123-15.769
	c-2.275-8.183-7.434-14.598-18.75-16.465c-1.671-0.277-3.313-0.531-4.984-0.76c-2.128-0.322-4.262-0.586-6.392-0.878
	c-2.153-0.295-4.304-0.614-6.46-0.888c-4.587-0.584-9.181-1.136-13.783-1.698c-15.352-1.871-30.68-3.845-45.729-7.689
	c-35.357-9.033-70.007-28-77.573-66.65c-2.402-12.292-1.92-25.14,1.949-37.077c0.68-2.105,1.414-4.342,2.078-6.619
	c1.175-0.972,2.337-1.969,3.487-2.986c0.143,0.063,0.28,0.144,0.422,0.206c17.335,7.596,37.467,8.59,55.464,2.743
	c-10.056-8.185-16.044-21.145-15.761-34.105c17.851,6.996,38.841,5.442,55.459-4.112c-15.462-17.923-21.595-41.368-19.655-64.647
	c5.85,2.741,12.892,3.255,19.446,2.615c39.26-3.83,60-47.927,62.577-83.055c0.95-12.935-1.632-27.537-14.48-33.618
	c-11.962-5.657-23.911-2.807-34.831,4.669c1.703-4.688,3.269-9.42,4.594-14.204c9.325-33.671,10.061-69.116,8.512-104.019
	c-0.531-11.932-1.379-24.112-5.998-35.123c-7.512-17.925-23.98-30.427-40.75-40.249c-18.694-10.943-38.679-19.679-59.415-25.954
	c-11.301-3.423-24.214-5.773-35.225-2.886c-15.247-34.916-51.683-60.867-92.502-55.871c-10.075,1.233-19.708,4.984-28.624,9.832
	c-43.781,23.805-68.385,71.245-90.027,116.131c-1.709,3.544-3.437,7.107-5.179,10.673c-13.552,13.772-28.682,25.993-45.037,36.274
	c-15.011,9.432-31.045,17.242-47.771,23.123c20.425,3.359,41.268,1.949,61.375-3.025c-13.85,20.385-30.306,38.362-51.49,50.879
	c24.17,11.354,51.296,14.913,77.944,12.151c1.185,9.245,3.711,18.762,7.043,28.033c-7.802-7.09-17.201-12.192-28.392-14.001
	c-8.609-1.393-18.207-0.833-25.043,4.453c-7.332,5.671-9.758,15.401-10.041,24.419c-0.867,27.912,34.377,107.05,75.732,90.597
	c2.428-0.966,4.426-2.326,6.235-3.846c0.539,4.197,1.003,8.323,1.19,12.313c1.179,25.213-4.755,50.786-17.34,72.701
	c11.82-2.353,22.84-8.57,30.962-17.471c2.441,14.85,0.048,30.451-6.729,43.883c20.479-2.76,39.031-12.208,54.681-25.627
	c7.293,7.8,15.242,14.887,23.831,21.008c0.635,18.784-0.789,37.487-8.192,54.563c-5.286,12.215-13.428,22.889-23.343,31.791
	c-8.779,7.917-18.923,14.392-29.646,19.328c-19.021,8.75-38.874,15.956-59.284,20.765c-7.361,1.72-14.825,3.133-22.309,4.2
	c-10.043,1.379-26.709-1.102-34.615,7.219c-19.611,2.355-38.51,8.095-50.198,14.71c-17.311,9.812-30.402,24.906-41.934,40.472
	c-20.614,27.829-37.384,58.134-49.764,89.954c-12.57,32.214-20.59,65.802-29.856,99.006
	c-25.637,91.722-61.16,181.037-105.827,266.182c-11.722,22.358-24.365,45.398-24.931,70.281
	c-0.404,17.791,7.568,36.728,21.686,47.771c4.844,5.947,11.023,10.939,17.939,14.348c17.968,8.857,39.595,8.404,58.899,2.821
	c19.308-5.584,36.77-15.879,53.817-26.315c64.198-39.303,126.035-82.112,188.66-123.764c-2.543,10.751-5.755,21.375-9.542,31.833
	c-7.815,21.598-17.91,42.543-28.531,62.597c-1.038,1.973-2.1,3.975-3.162,5.92l-0.429,0.809
	c-7.591,14.09-23.172,35.186-36.473,57.798c-12.292,13.15-23.776,27.162-34.655,35.357c-33.184,25.067-71.503,42.948-110.806,56
	c-26.609,8.854-53.776,15.754-81.106,22.086c-14.349-1.582-28.426-5.671-41.335-12.142c-16.064-8.053-30.305-19.634-47.001-26.285
	c-34.475-13.73-73.335-4.502-109.242,4.862c-8.375,2.188-16.97,4.473-23.985,9.545c-2.933,2.124-5.657,4.921-6.417,8.463
	c-1.247,5.851,3.454,11.6,9.004,13.851c5.544,2.251,11.732,1.964,17.715,2.095c29.807,0.651,58.051,12.487,84.101,27.374
	c-6.491,1.811-12.966,3.674-19.404,5.669c-35.259,10.952-69.608,24.892-102.538,41.661c-31.844,16.209-62.957,35.561-85.797,63.055
	c-22.841,27.493-36.546,64.37-29.564,99.425c2.736,13.728,9.32,27.401,20.078,35.94c6.787,23.416,39.736,41.528,59.761,52.459
	c25.579,13.968,53.408,23.698,81.915,29.578c74.48,15.372,152.233,8.809,227.347,2.495c77.944-6.553,155.654-15.99,232.911-28.248
	c38.265-6.075,76.419-12.857,114.436-20.326c19.001-3.737,37.978-7.61,56.858-11.951c16.105-3.703,34.378-6.19,49.466-13.652
	c59.552,17.917,119.561,34.182,180.414,47.275c162.665,35.001,339.766,57.744,505.222,29.364
	c49.586-8.507,113.224-32.109,142.184-77.267c1.176-1.142,2.38-2.254,3.531-3.424c1.141-0.405,2.227-0.863,3.338-1.394
	c15.406-7.308,24.36-24.103,27.698-40.848C1922.516,1790.528,1908.807,1753.651,1885.966,1726.158z M1313.948,1072.604
	c30.832,70.581,62.666,140.724,95.342,210.477c-15.915-4.186-32.012-7.953-47.766-12.318c-25.184-6.977-49.856-15.689-73.798-26.007
	c-10.429-4.496-20.721-9.3-30.861-14.396c3.426-28.585,10.291-56.781,20.377-83.742
	C1286.859,1120.849,1303.485,1097.903,1313.948,1072.604z M840.569,1244.755c-23.941,10.319-48.614,19.03-73.798,26.007
	c-10.398,2.881-20.947,5.5-31.493,8.151c30.877-61.849,60.946-124.055,90.25-186.583c5.475,11.128,11.082,22.181,15.607,33.497
	c13.447,33.669,25.271,68.349,30.978,104.182C861.752,1235.235,851.232,1240.158,840.569,1244.755z M1472.822,1938.138
	c-92.32-7.227-183.69-23.072-273.985-43.866c98.188,20.037,197.173,35.737,296.822,45.407
	C1488.045,1939.208,1480.432,1938.733,1472.822,1938.138z"/>
<path style="fill:#EC616E;" d="M1885.966,1726.158c-22.836-27.494-53.949-46.845-85.817-63.055
	c-31.43-16.017-64.201-29.37-97.819-40.086c17.341-3.786,34.985-5.266,52.529-2.734c5.919,0.858,11.98,2.158,17.822,0.848
	c5.837-1.311,11.425-6.207,11.152-12.185c-0.166-3.62-2.392-6.825-4.936-9.403c-6.085-6.158-14.187-9.822-22.09-13.355
	c-33.88-15.143-70.694-30.631-106.957-22.757c-17.559,3.815-33.51,12.901-50.685,18.202c-14.006,4.327-28.795,6.015-43.423,5.126
	c-8.088-0.492-16.129-1.746-23.957-3.839c-8.107-2.168-15.938-5.16-23.7-8.364c-7.708-3.182-15.347-6.572-23.121-9.575
	c-9.759-3.77-19.968-6.954-30.304-8.264c-30.328-11.954-59.51-27.14-85.505-46.791c-1.008-0.755-2.022-1.564-3.035-2.427
	c-3.21-5.111-6.879-10.041-10.85-14.772c-8.424-10.09-18.031-19.371-26.504-28.049c-2.426-2.489-4.789-5.02-7.091-7.589
	c-0.476-0.531-0.921-1.083-1.392-1.617c-1.798-2.043-3.585-4.093-5.306-6.183c-0.61-0.741-1.183-1.507-1.783-2.255
	c-1.553-1.932-3.107-3.865-4.594-5.837c-0.39-0.516-0.754-1.048-1.139-1.567c-1.693-2.279-3.368-4.568-4.974-6.898
	c-1.825-2.632-3.592-5.293-5.308-7.981c-5.345-8.37-10.166-17.007-14.473-25.909c-7.464,4.171-15.226,8.497-23.601,12.673
	c-85.588,42.592-184.891,57.92-279.157,41.325c-50.816-8.95-99.557-26.529-148.497-42.797c-1.038,1.973-2.1,3.975-3.162,5.92
	l-0.429,0.809c-7.591,14.09-23.172,35.186-36.473,57.798c-12.292,13.15-23.776,27.162-34.655,35.357
	c-33.184,25.067-71.503,42.948-110.806,56c-26.609,8.854-53.776,15.754-81.106,22.086c-14.349-1.582-28.426-5.671-41.335-12.142
	c-16.064-8.053-30.305-19.634-47.001-26.285c-34.475-13.73-73.335-4.502-109.242,4.862c-8.375,2.188-16.97,4.473-23.985,9.545
	c-2.933,2.124-5.657,4.921-6.417,8.463c-1.247,5.851,3.454,11.6,9.004,13.851c5.544,2.251,11.732,1.964,17.715,2.095
	c29.807,0.651,58.051,12.487,84.101,27.374c-6.491,1.811-12.966,3.674-19.404,5.669c-35.259,10.952-69.608,24.892-102.538,41.661
	c-31.844,16.209-62.957,35.561-85.797,63.055c-22.841,27.493-36.546,64.37-29.564,99.425c2.736,13.728,9.32,27.401,20.078,35.94
	c6.787,23.416,39.736,41.528,59.761,52.459c25.579,13.968,53.408,23.698,81.915,29.578c74.48,15.372,152.233,8.809,227.347,2.495
	c77.944-6.553,155.654-15.99,232.911-28.248c38.265-6.075,76.419-12.857,114.436-20.326c19.001-3.737,37.978-7.61,56.858-11.951
	c16.105-3.703,34.378-6.19,49.466-13.652c59.552,17.917,119.561,34.182,180.414,47.275
	c162.665,35.001,339.766,57.744,505.222,29.364c49.586-8.507,113.224-32.109,142.184-77.267c1.176-1.142,2.38-2.254,3.531-3.424
	c1.141-0.405,2.227-0.863,3.338-1.394c15.406-7.308,24.36-24.103,27.698-40.848
	C1922.516,1790.528,1908.807,1753.651,1885.966,1726.158z"/>
<path style="fill:#6F183F;" d="M1206.465,572.573c-8.875,20.621-19.106,39.968-29.955,56.938
	c-11.3,17.674-24.248,34.6-39.268,47.877c0.143,0.063,0.28,0.144,0.422,0.206c17.335,7.596,37.467,8.59,55.464,2.743
	c-10.056-8.185-16.044-21.145-15.761-34.105c17.851,6.996,38.841,5.442,55.459-4.112c-15.462-17.923-21.595-41.368-19.655-64.647
	c-1.899-0.89-3.676-2.009-5.265-3.407C1207.378,573.602,1206.935,573.078,1206.465,572.573z"/>
<path style="fill:#6F183F;" d="M928.791,566.055c-1.582,3.65-3.902,6.845-6.966,9.418c0.539,4.197,1.003,8.323,1.19,12.313
	c1.179,25.213-4.755,50.786-17.34,72.701c11.82-2.353,22.84-8.57,30.962-17.471c2.441,14.85,0.048,30.451-6.729,43.883
	c20.479-2.76,39.031-12.208,54.681-25.627c-16.919-18.1-30.425-39.808-40.79-60.984
	C938.377,589.209,933.336,577.759,928.791,566.055z"/>
<path style="fill:#EA556A;" d="M1105.646,620.468c-7.245-1.856-14.017-5.096-21.339-6.665c-7.328-1.569-15.805-1.145-21.33,3.513
	c-6.724-5.471-17.286-3.191-25.501,0.19c-8.214,3.381-18.972,7.357-27.557,4.872c3.491,2.449,7.806,4.312,12.383,5.567
	c-1.042,1.645-0.556,3.941,2.716,7.246c2.056,2.08,4.302,3.995,6.704,5.739c24.005,17.457,63.216,17.637,78.382-11.303l0.477-0.93
	c6.046-1.367,11.723-3.892,13.842-8.059C1113.48,624.863,1112.101,622.12,1105.646,620.468z"/>
<path style="fill:#E56959;" d="M1093.636,747.869c12.848-6.573,24.989-14.544,36.093-23.8c-2.402-12.292-1.92-25.14,1.949-37.077
	c0.68-2.105,1.414-4.342,2.078-6.619c-23.282,19.272-51.42,29.594-85.961,20.67c-14.438-3.731-27.518-10.315-39.374-18.763
	c0.635,18.784-0.789,37.487-8.192,54.563c-5.286,12.215-13.428,22.889-23.343,31.791
	C1016.871,773.365,1057.417,766.383,1093.636,747.869z"/>
<path style="fill:#E56959;" d="M1043.98,356.001c-25.235,31.199-56.319,58.482-92.838,74.89c-2.426,4.715-5.089,9.341-7.221,14.191
	c-3.433,7.824-5.396,16.271-5.875,24.798c5.682-4.414,10.872-8.208,12.228-9.241c11.055-8.428,22.714-16.063,34.835-22.86
	c17.49-9.812,35.986-17.785,55.055-24.022C1046.623,394.76,1049.324,375.15,1043.98,356.001z"/>
<path style="fill:#E56959;" d="M1126.299,355.373c-1.535-8.834-5.267-17.034-9.596-24.942
	c-7.522,26.249-19.509,51.226-35.521,72.954c12.733-2.315,25.594-3.853,38.515-4.54
	C1125.124,385.009,1128.842,369.996,1126.299,355.373z"/>
<path style="fill:#E56959;" d="M1146.844,368.963c-4.769,12.659-13.97,23.662-26.023,29.806c1.203-0.059,2.402-0.199,3.607-0.244
	c11.298-0.423,22.096,0.599,32.806,1.977c-2.29-3.394-4.354-6.921-6-10.698C1148.434,383.372,1146.937,376.16,1146.844,368.963z"/>
<path style="fill:#6F183F;" d="M930.25,525.287c-2.911-15.893-3.224-32.241-1.062-48.252c0.422-3.113,0.947-6.209,1.557-9.291
	c0.699,2.046,1.51,4.042,2.428,5.993c1.501,3.191,3.224,6.269,5.292,9.105c-0.548-4.296-0.661-8.638-0.418-12.961
	c0.479-8.527,2.441-16.974,5.875-24.798c2.132-4.85,4.794-9.476,7.221-14.191c36.519-16.408,67.603-43.691,92.838-74.89
	c5.345,19.149,2.643,38.759-3.815,57.756c-5.174,15.218-12.752,30.044-20.575,43.92c24.542-13.115,45.162-31.999,61.592-54.293
	c16.012-21.728,27.999-46.705,35.521-72.954c4.329,7.908,8.061,16.108,9.596,24.942c2.543,14.623-1.174,29.637-6.602,43.473
	c-0.084,0.215-0.158,0.435-0.243,0.649c0.469-0.22,0.907-0.49,1.368-0.725c12.054-6.143,21.254-17.147,26.023-29.806
	c0.092,7.197,1.589,14.408,4.389,20.841c1.646,3.776,3.71,7.303,6,10.698c6.543,9.7,15.008,18.273,21.415,28.148
	c9.72,14.972,14.509,33.871,9.603,51.035c4.409-5.953,7.862-12.578,10.392-19.54c2.25,14.231,1.616,28.726-2.963,42.391
	c6.159-6.292,11.016-13.479,14.889-21.225c-3.316,20.031-9.12,39.701-16.672,58.326c24.539-17.212,41.7-43.246,51.985-71.55
	c1.703-4.688,3.269-9.42,4.594-14.204c9.325-33.671,10.061-69.116,8.512-104.019c-0.531-11.932-1.379-24.112-5.998-35.123
	c-7.512-17.925-23.98-30.427-40.75-40.249c-18.694-10.943-38.679-19.679-59.415-25.954c-11.301-3.423-24.214-5.773-35.225-2.886
	c-15.247-34.916-51.683-60.867-92.502-55.871c-10.075,1.233-19.708,4.984-28.624,9.832c-43.781,23.805-68.385,71.245-90.027,116.131
	c-1.709,3.544-3.437,7.107-5.179,10.673c-13.552,13.772-28.682,25.993-45.037,36.274c-15.011,9.432-31.045,17.242-47.771,23.123
	c20.425,3.359,41.268,1.949,61.375-3.025c-13.85,20.385-30.306,38.362-51.49,50.879c24.17,11.354,51.296,14.913,77.944,12.151
	c1.185,9.245,3.711,18.762,7.043,28.033C910.569,493.995,921.506,512.952,930.25,525.287z"/>
<path style="fill:#E56959;" d="M862.065,485.677c-1.652,1.121-0.58,3.401,1.311,3.103c12.711-1.996,21.927,4.988,28.799,14.367
	c-6.361,1.264-11.9,5.422-14.963,11.363c-3.02,5.846-3.64,17.915,3.021,21.612c1.067,0.59,2.943,0.146,3.138-1.277
	c0.302-2.25-0.161-3.673-0.516-5.9c-0.546-3.474,0.058-6.723,1.403-9.949c2.176-5.221,6.627-8.237,11.823-9.912
	c0.542,0.917,1.072,1.84,1.58,2.769c6.163,11.284,6.962,23.055,11.215,34.806c0.449,1.242,2.382,1.452,2.743,0
	C916.725,526.003,889.602,466.909,862.065,485.677z"/>
<path style="fill:#E56959;" d="M1229.451,544.605c3.81-9.346,9.163-21.278,16.274-31.69c8.467-1.876,15.868,3.601,15.721,12.43
	c-0.122,7.645-6.285,12.107-10.972,17.209c-0.697,0.765-0.287,2.451,0.95,2.294c11.035-1.359,18.397-13.656,16.132-24.297
	c-1.742-8.201-9.446-14.631-17.284-13.703c8.195-10.065,18.353-17.578,30.799-17.751c1.062-0.014,1.516-1.272,0.838-2.027
	c-9.617-10.733-26.163,5.374-33.062,12.244c-11.829,11.771-22.119,27.088-26.256,43.396
	C1221.436,547.27,1227.765,548.737,1229.451,544.605z"/>
<path style="fill:#E56959;" d="M1058.688,589.492c11.099,2.816,24.901-2.538,31.435-11.839c1.973-2.801-1.759-5.695-4.365-4.365
	c-8.872,4.526-17.973,12.356-28.428,6.894c-3.801-1.983-7.226-5.525-8.731-9.568c-2.022-5.408-0.025-10.855,1.968-15.951
	c3.907-9.997,7.059-20.122,8.214-30.84c0.56-5.174,0.862-10.383,0.18-15.542c-0.629-4.765-0.02-11.289-2.548-15.508
	c-0.341-0.57-1.184-0.434-1.379,0.181c-0.858,2.743-0.282,5.622-0.253,8.477c0.034,3.703-0.56,7.152-0.95,10.806
	c-0.731,6.884-1.725,13.73-3.269,20.482c-1.53,6.675-3.761,13.057-6.295,19.4c-2.173,5.432-4.054,11.065-3.474,17.004
	C1041.748,578.87,1049.256,587.1,1058.688,589.492z"/>
<path style="fill:#6F183F;" d="M1033.782,491.08c0,0-44.521-36.677-87.298,3.771C946.484,494.851,982.211,477.433,1033.782,491.08z"
	/>
<path style="fill:#6F183F;" d="M1173.787,495.723c-41.179-42.076-87.089-7.152-87.089-7.152
	C1138.761,476.936,1173.787,495.723,1173.787,495.723z"/>
<path style="fill:#CF4264;" d="M1009.919,622.379c3.491,2.449,7.806,4.312,12.383,5.567c6.274,1.721,13.052,2.263,18.994,1.283
	c3.181-0.526,6.377-1.432,9.588-1.062c5.091,0.594,9.691,4.351,14.733,3.479c2.178-0.38,4.058-1.589,6.09-2.392
	c7.756-3.055,16.57,0.039,24.994,0.653c3.729,0.272,8.927-0.087,13.88-1.207c6.046-1.367,11.723-3.892,13.842-8.059
	c-10.943,4.224-12.322,1.481-18.777-0.171c-7.245-1.856-14.017-5.096-21.339-6.665c-7.328-1.569-15.805-1.145-21.33,3.513
	c-6.724-5.471-17.286-3.191-25.501,0.19C1029.261,620.887,1018.503,624.863,1009.919,622.379z"/>
<path style="fill:#E56959;" d="M1021.773,578.671c0-9.666-13.179-17.5-29.432-17.5c-16.258,0-29.437,7.834-29.437,17.5
	c0,9.666,13.179,17.505,29.437,17.505C1008.593,596.176,1021.773,588.337,1021.773,578.671z"/>
<path style="fill:#559AB9;" d="M1257.493,1314.757c-14.083-9.361-28.23-18.629-42.432-27.816
	c-7.981-5.162-15.957-10.328-23.993-15.409c-18.046-11.41-36.551-22.729-57.194-28.634c-4.811-1.376-10.046-2.696-14.326-5.091
	c-15.137-0.772-31.396-9.889-40.641-19.299c-6.156-6.264-10.974-13.613-14.759-21.521c-3.784,7.909-8.603,15.258-14.757,21.521
	c-9.248,9.411-25.51,18.528-40.645,19.299c-4.28,2.395-9.513,3.715-14.321,5.091c-20.648,5.905-39.152,17.223-57.199,28.634
	c-22.768,14.398-45.285,29.168-67.705,44.08c-2.543,10.751-5.755,21.375-9.542,31.833c32.633-11.143,66.135-19.551,100.074-25.287
	c72.149-12.195,146.299-12.205,218.439,0.045c28.458,4.828,56.609,11.557,84.204,20.21
	C1260.511,1333.307,1258.815,1324.069,1257.493,1314.757z"/>
<path style="fill:#559AB9;" d="M1308.905,929.828c-4.097-28.453-5.208-57.311-4.073-86.022c0.328-8.342,0.641-17.258-1.43-24.71
	c-2.275-8.183-7.434-14.598-18.75-16.465c-1.671-0.277-3.313-0.531-4.984-0.76c-2.128-0.322-4.262-0.586-6.392-0.878
	c-2.153-0.295-4.304-0.614-6.46-0.888c-4.587-0.584-9.181-1.136-13.783-1.698c-11.732,52.253-45.198,99.527-91.079,127.298
	c-51.825,31.337-118.295,37.106-174.723,15.201c-32.326-12.57-61.666-34.222-80.053-63.634
	c-12.721-20.39-19.752-44.619-19.221-68.546c-7.361,1.72-14.825,3.133-22.309,4.2c-10.043,1.379-26.709-1.102-34.615,7.219
	c-0.198,0.209-0.456,0.343-0.644,0.567c-3.084,3.669-3.338,8.906-3.264,13.71c0.253,17.481,5.008,34.373,4.882,51.752
	c-0.102,18.061-2.451,36.141-7.006,53.622c-8.044,30.806-24.482,61.89-20.131,94.568c2.736,20.572,11.514,39.371,20.661,57.967
	c5.475,11.128,11.082,22.181,15.607,33.497c13.447,33.669,25.271,68.349,30.978,104.182c30.407-15.336,59.418-33.331,86.454-53.776
	c3.287-2.486,6.891-6.353,10.774-10.352c4.641-17.751,17.486-32.421,28.239-47.551c0.073-0.102,0.15-0.203,0.222-0.304
	c3.635-5.133,6.961-10.47,10.139-15.896c17.309-29.561,27.807-63.109,30.1-97.293c0.497-7.376,0.643-14.889,2.909-21.924
	c2.27-7.035,7.098-13.7,14.109-16.059c2.431-0.818,5.271-1.038,7.44,0.341c0.681,0.432,1.195,1.008,1.65,1.629
	c0.454-0.621,0.968-1.197,1.648-1.629c2.168-1.379,5.008-1.159,7.445-0.341c7.006,2.358,11.839,9.023,14.105,16.059
	c2.27,7.035,2.412,14.548,2.909,21.924c2.371,35.356,13.434,70.08,31.829,100.364c2.655,4.37,5.458,8.651,8.414,12.824
	c0.847,1.196,1.728,2.385,2.599,3.577c10.217,13.987,21.551,27.811,25.857,44.279c3.882,3.999,7.486,7.866,10.774,10.352
	c20.098,15.198,41.318,28.993,63.36,41.4c7.831,4.408,15.74,8.686,23.776,12.725c3.426-28.585,10.291-56.781,20.377-83.742
	c9.617-25.767,26.243-48.714,36.706-74.012c3.351-8.1,6.082-16.436,7.732-25.189
	C1329.168,1007.708,1314.522,968.755,1308.905,929.828z"/>
<path style="fill:#E56959;" d="M960.054,1322.157c56.771-0.031,113.655,0.857,169.752,9.278
	c35.182,5.257,69.832,13.481,104.18,22.66c7.742,2.075,21.423,7.591,35.006,10.699c-2.402-7.362-4.502-14.821-6.295-22.382
	c-27.595-8.653-55.746-15.381-84.204-20.21C1106.354,1309.952,1032.203,1309.962,960.054,1322.157z"/>
<path style="fill:#E56959;" d="M1141.826,596.176c16.258,0,29.437-7.839,29.437-17.505c0-9.666-13.179-17.5-29.437-17.5
	c-16.253,0-29.432,7.834-29.432,17.5C1112.394,588.337,1125.573,596.176,1141.826,596.176z"/>
<path style="fill:#272A5B;" d="M979.699,527.296c3.034,1.233,6.161,2.175,9.329,2.833c-0.413,1.784-1.229,3.628-2.179,4.834
	c-2.748,3.478-5.481,6.441-15.084,8.521c5.072,0.784,10.387-0.078,14.952-2.417c4.301-2.208,7.876-5.75,10.225-9.975
	c12.499,0.559,24.891-3.737,33.834-14.536c1.589-1.915,0.122-4.809-2.461-4.224c-11.04,2.5-20.272,9.705-31.756,10.831
	c-14.1,1.379-24.283-7.079-36.97-11.191c-0.482-0.151-0.755,0.463-0.462,0.794c3.703,4.22,8.117,7.79,12.923,10.67
	c-0.003,0.074-0.047,0.107-0.036,0.195c0.292,2.314-0.965,5.724-2.441,7.591c-2.748,3.478-5.481,6.441-15.084,8.521
	c5.072,0.784,10.387-0.073,14.953-2.417C973.766,535.109,977.354,531.547,979.699,527.296z"/>
<path style="fill:#272A5B;" d="M1166.625,512.766c0.292-0.331,0.019-0.945-0.463-0.794c-12.687,4.112-22.865,12.57-36.969,11.191
	c-11.484-1.126-20.716-8.331-31.757-10.831c-2.577-0.585-4.049,2.305-2.46,4.224c8.944,10.802,21.339,15.099,33.839,14.538
	c2.343,4.225,5.919,7.766,10.219,9.974c4.566,2.338,9.881,3.201,14.953,2.417c-9.603-2.081-12.336-5.043-15.084-8.521
	c-0.95-1.206-1.765-3.05-2.178-4.833c3.167-0.658,6.295-1.6,9.328-2.834c2.347,4.25,5.937,7.812,10.258,10.03
	c4.566,2.343,9.881,3.201,14.953,2.417c-9.603-2.08-12.336-5.043-15.084-8.521c-1.476-1.866-2.733-5.277-2.441-7.591
	c0.011-0.087-0.034-0.119-0.036-0.194C1158.508,520.557,1162.922,516.986,1166.625,512.766z"/>
<path style="fill:#DB4D5E;" d="M537.53,1718.479c-35.347,10.947-83.99,26.397-108.424,55.42c-1.705,2.026-0.146,5.51,2.724,4.682
	c16.833-4.872,31.362-15.196,46.962-23.002c19.966-9.992,40.779-18.27,62.104-24.877c19.138-5.924,38.66-10.373,58.417-13.671
	c15.225-2.541,31.134-2.833,46.402-5.456c-9.089-3.787-18.214-7.489-27.401-11.031
	C590.445,1702.752,561.156,1711.165,537.53,1718.479z"/>
<path style="fill:#E56959;" d="M1126.669,863.445c24.955-16.414,50.519-22.475,79.907-25.437c1.462-0.146,2.085-2.48,0.375-2.797
	c-29.866-5.505-60.375,5.311-83.922,23.518C1120.34,860.809,1123.838,865.306,1126.669,863.445z"/>
<path style="fill:#E56959;" d="M937.047,835.669c12.195,3.971,26.246,1.72,39.026,4.663c12.921,2.972,24.419,9.076,36.643,13.924
	c1.286,0.511,2.222-1.364,1.311-2.246c-16.361-15.756-55.601-31.109-77.583-20.965C934.333,832.02,935.151,835.055,937.047,835.669z
	"/>
<path style="fill:#3A88A3;" d="M931.619,1115.673c-16.487-0.901-29.364-8.599-44.775-12.872c-2.572-0.716-4.862,2.212-3.479,4.526
	c20.295,33.961,71.113,22.084,114.214,11.003c0.073-0.102,0.15-0.203,0.222-0.304c3.635-5.133,6.961-10.47,10.139-15.896
	c-10.678,2.571-21.343,5.516-32.244,8.145C961.305,1113.744,946.489,1116.487,931.619,1115.673z"/>
<path style="fill:#3A88A3;" d="M1246.751,1123.932c2.592-0.989,1.574-4.526-1.135-4.117c-43.094,6.535-82.935-5.255-123.532-14.612
	c2.655,4.37,5.458,8.651,8.414,12.824c0.847,1.196,1.728,2.385,2.599,3.577C1171.253,1130.52,1209.371,1138.172,1246.751,1123.932z"
	/>
<path style="fill:#3A88A3;" d="M1282.576,820.029c3.362,49.072,6.704,98.139,10.041,147.206c2.149,31.469,4.249,63.513-2.933,94.217
	c-6.499,27.824-20.336,53.296-31.591,79.547c-10.596,24.727-18.945,50.41-25.005,76.635c7.831,4.408,15.74,8.686,23.776,12.725
	c3.426-28.585,10.291-56.781,20.377-83.742c9.617-25.767,26.243-48.714,36.706-74.012c3.351-8.1,6.082-16.436,7.732-25.189
	c7.489-39.708-7.157-78.66-12.775-117.588c-4.097-28.453-5.208-57.311-4.073-86.022c0.328-8.342,0.641-17.258-1.43-24.71
	c-2.275-8.183-7.434-14.598-18.75-16.465c-1.671-0.277-3.313-0.531-4.984-0.76C1281.031,809.282,1282.274,815.732,1282.576,820.029z
	"/>
<path style="fill:#3A88A3;" d="M1215.061,1286.941c-2.963,5.704-6.604,10.994-11.247,15.631c-7.284,7.284-16.999,13.155-25.32,19.63
	c28.458,4.828,56.609,11.557,84.204,20.21c-2.186-9.104-3.883-18.342-5.205-27.654
	C1243.411,1305.396,1229.263,1296.129,1215.061,1286.941z"/>
<path style="fill:#F08774;" d="M738.523,1664.257c-5.725-4.146-11.342-8.925-14.246-15.371c-5.067-11.23-0.731-24.419-2.694-36.584
	c-2.665-16.512-17.092-29.335-33.077-34.256c-15.985-4.921-33.257-3.211-49.637,0.17c-16.38,3.382-32.482,8.39-49.13,9.998
	c-8.285,0.8-16.648,0.708-24.921-0.203c-14.349-1.582-28.426-5.671-41.335-12.142c-16.064-8.053-30.305-19.634-47.001-26.285
	c-34.475-13.73-73.335-4.502-109.242,4.862c-8.375,2.188-16.97,4.473-23.985,9.545c-2.933,2.124-5.657,4.921-6.417,8.463
	c-1.247,5.851,3.454,11.6,9.004,13.851c5.544,2.251,11.732,1.964,17.715,2.095c29.807,0.651,58.051,12.487,84.101,27.374
	c3.755,2.146,7.467,4.355,11.129,6.604c29.072,17.847,56.634,38.577,87.995,51.995c11.444,4.896,23.289,8.77,35.055,12.838
	c12.236,4.23,24.397,8.678,36.477,13.336c9.186,3.542,18.312,7.244,27.401,11.031c25.493,10.62,50.595,22.175,75.225,34.676
	c2.246-12.613,5.87-24.871,11.995-36.314c4.787-8.933,15.539-27.185,26.014-34.458
	C753.239,1671.294,742.914,1667.435,738.523,1664.257z"/>
<path style="fill:#F08774;" d="M1778.897,1599.542c-6.085-6.158-14.187-9.822-22.09-13.355
	c-33.88-15.143-70.694-30.631-106.957-22.757c-17.559,3.815-33.51,12.901-50.685,18.202c-14.006,4.327-28.795,6.015-43.423,5.126
	c-8.088-0.492-16.129-1.746-23.957-3.839c-8.107-2.168-15.938-5.16-23.7-8.364c-7.708-3.182-15.347-6.572-23.121-9.575
	c-9.759-3.77-19.968-6.954-30.304-8.264c-6.186-0.784-12.419-0.898-18.626-0.062c-16.575,2.227-32.916,12.501-38.261,28.351
	c-3.936,11.678-1.827,25.398-8.672,35.644c-3.922,5.881-10.251,9.671-16.58,12.823c-4.179,2.078-12.791,3.932-19.156,6.443
	c2.154,7.782,3.84,15.791,6.274,23.238c4.718,14.428,10.633,28.34,15.829,42.564c13.313-0.114,26.628-0.109,39.948,0.051
	c35.537-9.747,71.556-17.75,107.892-23.902c12.273-2.075,24.594-3.951,36.687-6.899c33.14-8.078,63.737-24,95.342-36.823
	c15.187-6.161,30.96-11.627,46.994-15.127c17.341-3.786,34.985-5.266,52.529-2.734c5.919,0.858,11.98,2.158,17.822,0.848
	c5.837-1.311,11.425-6.207,11.152-12.185C1783.667,1605.324,1781.44,1602.119,1778.897,1599.542z"/>
<path style="fill:#DB4D5E;" d="M1892.013,1827.614c-14.163,30.845-33.847,58.489-63.177,76.497
	c-35.245,21.632-77.705,28.395-118.231,32.185c-71.547,6.69-143.284,7.801-214.946,3.383c-7.614-0.471-15.324-0.186-22.837-1.541
	c-95.514-17.227-183.69-23.072-273.985-43.866c-69.505-16.007-138.375-34.945-206.545-55.159
	c-86.838-25.748-171.872-55.644-256.709-87.201c3.893-19.948,12.129-43.586,27.32-56.653c13.618-11.717,36.399,1.832,52.892,6.012
	c36.638,9.286,74.027,15.63,111.556,20.034c83.435,9.793,167.688,8.687,251.503,5.847c84.574-2.865,169.173-8.049,253.826-6.417
	c86.422,1.666,170.197,13.774,254.45,32.551c4.614,1.028,6.202-5.311,1.924-6.967c-15.985-6.181-32.307-11.409-48.866-15.856
	c28.868-7.846,59.835-16.567,86.449-28.923c3.65-1.696,1.846-7.781-2.046-7.552c-32.804,1.91-68.833,14.996-98.178,29.408
	c-1.408,0.691-2.183,1.772-2.484,2.967c-65.192-15.39-133.616-19.393-199.942-20.531c-2.859-0.048-5.715-0.029-8.574-0.064
	c-13.319-0.16-26.635-0.165-39.948-0.051c-5.196-14.225-11.112-28.136-15.829-42.564c-2.434-7.447-4.12-15.456-6.274-23.238
	c-1.822-6.586-3.972-13.012-7.241-18.77c-0.212-0.374-0.482-0.645-0.748-0.918c-0.616-1.161-1.761-1.997-3.403-1.908
	c-36.594,2.017-74.967,18.938-110.431,28.219c-39.444,10.319-79.215,19.215-119.186,27.225
	c-42.597,8.536-85.315,15.206-128.487,20.063c-29.827,3.359-64.465,1.952-94.965,7.897c-3.53-0.576-7.062-1.133-10.585-1.758
	c-22.519-3.99-44.872-9.043-66.913-15.133c-12.887-3.562-34.173-15.693-47.089-12.068c-1.759,0.494-3.559,1.462-5.367,2.716
	c-10.475,7.273-21.227,25.525-26.014,34.458c-6.125,11.443-9.749,23.701-11.995,36.314c-0.625,3.508-1.162,7.04-1.593,10.594
	c-0.415,3.391,2.684,6.417,5.608,7.372c99.336,32.336,198.086,67.41,297.974,98.429c-22.635,3.843-46.045,11.551-66.379,15.681
	c-36.38,7.386-72.892,14.139-109.515,20.234c-75.703,12.609-151.864,22.407-228.287,29.423
	c-74.11,6.801-151.61,16.078-225.505,3.259c-30.246-5.247-60.395-14.105-87.815-28.054c-15.337-7.805-30.021-17.057-43.23-28.122
	c-9.155-7.669-15.444-15.693-26.709-19.771c-3.225-1.164-6.129,2.353-5.35,5.35c0.077,0.296,0.207,0.582,0.292,0.876
	c6.787,23.416,39.736,41.528,59.761,52.459c25.579,13.968,53.408,23.698,81.915,29.578c74.48,15.372,152.233,8.809,227.347,2.495
	c77.944-6.553,155.654-15.99,232.911-28.248c38.265-6.075,76.419-12.857,114.436-20.326c19.001-3.737,37.978-7.61,56.858-11.951
	c16.105-3.703,34.378-6.19,49.466-13.652c59.552,17.917,119.561,34.182,180.414,47.275
	c162.665,35.001,339.766,57.744,505.222,29.364c49.586-8.507,113.224-32.109,142.184-77.267
	c8.011-12.492,13.379-26.628,15.048-42.557C1896.212,1826.62,1892.88,1825.729,1892.013,1827.614z M993.212,1704.54
	c37.856-4.78,75.679-10.353,113.305-16.672c40.224-6.753,80.166-15.274,119.786-24.931c35.357-8.625,78.978-15.42,111.531-33.424
	c0.987,13.408,7.015,27.463,11.519,39.646c4.583,12.407,9.802,24.979,16.22,36.65c-71.029,0.914-141.999,4.964-213,7.174
	c-65.337,2.032-131.302,2.654-196.61-2.993C968.896,1708.081,981.498,1706.019,993.212,1704.54z"/>
<path style="fill:#DB4D5E;" d="M332.361,1862.815c4.092-0.906,2.704-6.421-0.921-6.807c-19.859-2.105-38.855-6.83-54.967-19.196
	c-13.837-10.611-20.984-24.599-30.441-38.704c-3.986-5.953-12.039-2.012-11.045,4.653
	C241.311,1845.159,293.423,1871.409,332.361,1862.815z"/>
<path style="fill:#DB4D5E;" d="M1842.917,1762.206c3.834,9.905,7.829,19.479,7.946,30.3c0.117,10.811-3.571,20.521-6.382,30.743
	c-1.067,3.888,3.708,6.358,6.529,3.8c18.519-16.789,17.023-52.35,0.405-69.792
	C1848.086,1753.767,1841.036,1757.354,1842.917,1762.206z"/>
<path style="fill:#DB4D5E;" d="M808.107,1574.577c25.759,19.084,55.322,32.882,81.88,50.928
	c28.706,19.503,55.084,41.71,82.324,63.118c3.892,3.06,8.925-1.666,5.525-5.525c-22.519-25.539-49.491-47.406-77.369-66.855
	c-27.367-19.099-57.018-39.435-89.467-48.541C806.64,1566.479,804.852,1572.165,808.107,1574.577z"/>
<path style="fill:#DB4D5E;" d="M1191.448,1654.82c18.733-13.106,35.703-28.633,54.411-41.846
	c18.797-13.276,38.529-25.213,57.189-38.65c2.105-1.515,0.926-5.705-1.929-4.585c-40.916,16.117-85.086,46.217-113.691,79.873
	C1185.163,1652.277,1188.145,1657.135,1191.448,1654.82z"/>
<path style="fill:#DB4D5E;" d="M1098.216,1491.03c41.101,0.536,82.606-2.704,121.909-14.768
	c28.434-8.755,59.718-22.738,82.358-43.532c-1.825-2.632-3.592-5.293-5.308-7.981c-5.345-8.37-10.166-17.007-14.473-25.909
	c-7.464,4.171-15.226,8.497-23.601,12.673c-85.588,42.592-184.891,57.92-279.157,41.325c-50.816-8.95-99.557-26.529-148.497-42.797
	c-1.038,1.973-2.1,3.975-3.162,5.92C907.098,1467.356,1003.595,1489.792,1098.216,1491.03z"/>
<path style="fill:#E56959;" d="M562.119,1370.538c21.369-10.066,38.792-28.799,59.157-41.203
	c22.855-13.924,47.113-25.014,72.341-33.915c3.888-1.369,2.29-7.517-1.725-6.246c-20.924,6.621-41.068,14.805-60.393,24.975
	c-0.323-0.534-0.866-0.913-1.653-0.843c-11.035,0.989-25.52,0.74-35.152,6.87c-0.979,0.619-0.911,2.319,0.336,2.597
	c8.073,1.799,17.216-0.322,25.737-2.714c-1.225,0.705-2.463,1.381-3.681,2.104c-19.63,11.644-45.165,26.193-57.125,46.212
	C559.094,1369.827,560.765,1371.176,562.119,1370.538z"/>
<path style="fill:#E56959;" d="M1433.821,1294.611c20.614,16.108,48.41,22.826,70.343,38.198
	c26.153,18.329,44.687,42.373,68.132,63.313c1.111,0.994,3.449,0.049,2.777-1.613c-10.204-25.185-32.687-46.799-53.964-63.35
	c10.538,2.899,21.609,4.467,31.64,5.108c0.531,0.034,0.775-0.799,0.278-1.033c-15.836-7.382-34.491-15.878-51.882-18.873
	c-19.794-13.806-43.74-27.324-65.2-26.881C1433.597,1289.53,1431.653,1292.916,1433.821,1294.611z"/>
<path style="fill:#E56959;" d="M1071.775,1165.579c0.239-7.844,0.083-15.693,0.039-23.542c-0.088-15.284-0.312-30.563-0.531-45.842
	c-0.214-14.884-0.302-29.749-1.169-44.609c-0.458-7.878-1.228-15.635-1.379-23.547c-0.136-7.026,0.287-14.285-1.008-21.208
	c-0.098-0.516-0.955-0.521-1.048,0c-1.164,6.548-0.726,13.335-0.77,19.971c-0.049,7.912-0.594,15.664-0.984,23.542
	c-0.76,15.274-0.404,30.568-0.214,45.851c0.19,14.87,0.424,29.735,0.877,44.604c0.239,7.844,0.336,15.713,0.892,23.542
	c0.497,7.026,0.346,14.5,2.07,21.35c0.253,1.009,1.876,1.067,2.095,0C1071.98,1179.162,1071.58,1172.224,1071.775,1165.579z"/>
<path style="fill:#E56959;" d="M970.791,1180.005c-1.286,0.545-1.851,1.861-1.574,3.206c0.19,0.901,0.331,1.754,0.697,2.602
	c0.297,0.677,0.609,1.354,0.916,2.031c0.609,1.354,1.242,2.675,1.963,3.981c0.356,0.638,0.673,1.325,1.072,1.934
	c0.453,0.687,1.067,1.262,1.559,1.915c0.838,1.115,1.578,2.329,2.358,3.488c0.775,1.15,2.587,0.448,2.256-0.95
	c-0.317-1.349-0.682-2.699-0.965-4.049c-0.166-0.809-0.127-1.661-0.326-2.46c-0.176-0.706-0.463-1.408-0.692-2.1
	c-0.511-1.564-1.126-3.069-1.769-4.585c-0.287-0.682-0.545-1.393-0.872-2.056c-0.326-0.657-0.804-1.242-1.228-1.846
	C973.392,1180.005,972.111,1179.449,970.791,1180.005z"/>
<path style="fill:#E56959;" d="M1154.644,1208.273c-1.023,1.437-1.832,2.938-2.655,4.497c-1.004,1.895,1.442,3.942,3.025,2.334
	c1.267-1.281,2.48-2.538,3.567-3.98l3.172-4.195c1.023-1.354,2.105-2.67,2.972-4.132c0.897-1.515,1.311-3.264,1.842-4.935
	c0.273-0.863-0.819-1.774-1.598-1.228c-1.354,0.955-2.899,1.827-4.005,3.059c-1.247,1.389-2.285,2.923-3.367,4.439
	C1156.613,1205.51,1155.629,1206.894,1154.644,1208.273z"/>
<path style="fill:#E56959;" d="M1376.525,941.272c-10.621,9.71-19.313,20.745-26.363,33.291c-3.42,6.091-6.373,12.395-8.852,18.923
	c-2.568,6.758-3.615,13.418-4.108,20.565c-0.063,0.94,1.457,1.403,1.842,0.502c5.247-12.302,10.124-25.052,16.487-36.848
	c6.494-12.034,14.64-23.488,23.717-33.71C1380.895,942.144,1378.361,939.591,1376.525,941.272z"/>
<path style="fill:#E56959;" d="M778.513,970.626c2.88,5.676,5.276,11.527,7.474,17.495c2.246,6.11,3.746,12.448,6.08,18.509
	c1.053,2.724,5.545,2.611,5.438-0.736c-0.429-13.106-6.007-26.563-11.654-38.232c-2.914-6.017-6.221-11.839-9.915-17.413
	c-3.737-5.637-7.42-11.172-13.681-14.124c-1.398-0.658-3.259,0.439-2.757,2.124c1.803,6.017,5.603,10.504,9.106,15.625
	C772.267,959.235,775.58,964.834,778.513,970.626z"/>
<path style="fill:#3A88A3;" d="M837.1,1075.82c-1.652-0.862-3.347,1.218-2.012,2.607c5.062,5.262,10.826,9.559,16.551,14.076
	c3.381,2.67,7.196-2.183,3.639-4.716C849.33,1083.547,843.575,1079.211,837.1,1075.82z"/>
<path style="fill:#3A88A3;" d="M1005.719,1283.06c41.316,1.501,84.307-4.94,125.31-9.808c4.224-0.502,4.468-7.016,0-6.801
	c-41.505,1.988-85.281,2.806-126.046,11.176C1001.831,1278.27,1002.703,1282.947,1005.719,1283.06z"/>
<path style="fill:#E56959;" d="M669.154,1689.027c5.618-3.201,10.114-7.381,15.099-11.493c5.393-4.453,11.342-8.361,17.447-11.771
	c4.326-2.417,1.335-10.246-3.473-8.234c-13.087,5.481-28.093,14.67-32.205,29.092
	C665.505,1688.428,667.556,1689.943,669.154,1689.027z"/>
<path style="fill:#E56959;" d="M1406.376,1661.822c-2.685-4.624-5.223-11.313-10.285-13.618c-1.988-0.901-3.971,0.185-4.16,2.387
	c-0.482,5.569,4.102,11.065,6.826,15.683c3.182,5.399,6.602,10.485,10.957,14.991c1.798,1.861,5.106-0.044,4.36-2.533
	C1412.276,1672.72,1409.523,1667.244,1406.376,1661.822z"/>
<path style="fill:#E56959;" d="M617.315,1618.445c1.345-0.2,0.989-2.329-0.317-2.329c-52.96,0-96.214-20.74-138.509-50.46
	c-2.31-1.622-4.253,1.734-2.777,3.6C508.892,1611.196,566.1,1626.046,617.315,1618.445z"/>
<path style="fill:#E56959;" d="M1528.11,1601.188c35.776,10.728,81.106,9.55,111.133-15.074c1.355-1.11-0.102-3.425-1.69-2.904
	c-37.32,12.156-68.814,22.212-108.809,15.693C1527.267,1598.66,1526.62,1600.74,1528.11,1601.188z"/>
<path style="fill:#E56959;" d="M1048.135,1397.773c15.464,0,15.488-24.029,0-24.029
	C1032.677,1373.744,1032.652,1397.773,1048.135,1397.773z"/>
</svg>
