<?xml version="1.0" encoding="UTF-8"?>
<svg xmlns="http://www.w3.org/2000/svg" xmlns:xlink="http://www.w3.org/1999/xlink" viewBox="0 0 1920 1080">
  <defs>
    <style>
      .cls-1 {
        fill: none;
      }

      .cls-2 {
        clip-path: url(#clippath);
      }

      .cls-3 {
        fill: #ffa000;
      }

      .cls-4 {
        fill: orange;
      }

      .cls-5 {
        fill: #1e0658;
      }

      .cls-6 {
        fill: #1a0c54;
      }

      .cls-7 {
        fill: #8144a8;
      }

      .cls-8 {
        fill: #281466;
      }

      .cls-9 {
        fill: #3b197f;
      }

      .cls-10 {
        fill: #5f2b89;
      }
    </style>
    <clipPath id="clippath">
      <rect class="cls-1" y="-5.29" width="1920" height="1085.29"/>
    </clipPath>
  </defs>
  <g id="Layer_3" data-name="Layer 3">
    <rect class="cls-6" y="-5.29" width="1920" height="1086.12"/>
  </g>
  <g id="Layer_2" data-name="Layer 2">
    <g class="cls-2">
      <rect class="cls-9" x="-259.08" y="222.94" width="411.27" height="154.98" rx="77.49" ry="77.49"/>
      <path class="cls-3" d="m1113.14,393.87c0-3.01-1.08-5.85-2.7-8.35-6.13-9.47-18.3-14.81-28.33-18.87-9.15-3.7-18.26-5.87-27.76-8.2-6.52-1.6-15.22-4.19-17.54-11.36-.92-2.86.12-6.72,1.29-9.34,4.12-9.22,12.63-13.27,18.2-20.73,12.58-16.85-4.61-36.02-31.15-53.17-26.38-17.04-57.59-29.89-90.52-38.67-3.93-1.05-5.27-6.57-2.43-10.09,1.79-2.22,2.81-4.56,2.97-6.98,1.18-18.26-46.97-34.51-107.53-36.31-60.56-1.8-110.62,11.55-111.79,29.8-.26,4.08,1.94,8.06,6.2,11.81,3.65,3.21,2.36,10.01-2.22,11.54-3.37,1.13-6.73,2.32-10.07,3.58-23.09,8.74-45.6,20.72-65.65,37.05-23.38,19.04-55.6,46.61-29.02,80.24,11.65,14.73,37.2,33.23,16.54,52.66-3.2,3.01-7.31,4.83-11.34,6.6-27.96,12.27-48.7,23.34-46.24,58.89,2.19,31.71,36.55,69.64,62.03,86.1,31.77,20.52,70.53,34.98,110.87,43.56,4.66.99,5.88,7.82,2.06,11.33-3.56,3.28-5.53,6.75-5.63,10.32-.49,18.26,48.32,32.09,109.02,30.89,60.7-1.2,110.31-16.97,110.8-35.23.15-5.69-4.49-10.95-12.79-15.46-3.81-2.07-3.26-8.46.88-10.02.06-.02.13-.05.19-.07,23.09-8.74,45.6-20.72,65.65-37.05,23.38-19.04,55.61-46.62,29.02-80.24-5.97-7.55-19.48-9.95-20.1-22.54,0-.04,0-.08,0-.13-.34-8.06,9.83-11.07,16.01-12.45,8.89-1.98,17.71-4.25,26.39-7.01,12.35-3.93,25.52-8.69,35.68-17.01,4.57-3.74,9.02-8.86,9.02-15.1Z"/>
      <g>
        <path class="cls-8" d="m516.75,861.65c.25-1.94.12-3.97-.51-5.95l-50.42-160.96c-25.59-81.54-82.31-136.96-163.21-159.38-5.81-1.61-12.01.7-15.34,5.73-46.4,69.96-52.92,148.99-18.8,227.35,16.65,38.2,33.31,76.39,49.96,114.59,9.59,21.99,19.62,43.06,33.57,62.61,3.87,5.42,10.89,7.58,17.13,5.26l131.54-48.81c4.66-1.73,8.13-5.69,9.24-10.53l6.29-27.47c.24-.74.41-1.5.52-2.27,0,0,.04-.16.02-.15Z"/>
        <path class="cls-10" d="m534.06,832.61l-6.85,29.9c-1.11,4.84-4.58,8.8-9.24,10.53l-131.54,48.81c-6.24,2.32-13.26.16-17.13-5.26l-16.12-22.58"/>
        <path class="cls-8" d="m483.11,665.7c-25.59-81.54-82.31-136.96-163.21-159.38-5.81-1.61-12.01.7-15.34,5.73-46.4,69.96-52.92,148.99-18.8,227.35l67.42,154.62c2.95,6.77,10.69,10.05,17.61,7.47l154.34-57.63c6.92-2.59,10.62-10.13,8.41-17.19l-50.42-160.96Z"/>
        <rect class="cls-7" x="299.65" y="486.6" width="24.38" height="43.1" rx="9.14" ry="9.14" transform="translate(-158.06 141.2) rotate(-20.48)"/>
        <rect class="cls-10" x="343.19" y="777.46" width="170.38" height="85.53" transform="translate(-259.87 201.68) rotate(-20.48)"/>
        <polygon class="cls-10" points="436.64 584.39 267.55 647.53 314.95 523.38 436.64 584.39"/>
        <rect class="cls-10" x="289.09" y="668.8" width="180.49" height="40.22" transform="translate(-217.03 176.23) rotate(-20.48)"/>
        <path class="cls-8" d="m466.45,679.83c-23.89-76.12-74.92-129.46-147.41-154.46-4.59,7.25-8.83,14.71-11.9,23.06,1.82-.32,3.73-.22,5.58.39,66.19,21.84,113.64,71.72,136.54,143.5l5.58,17.53-3.96-12.42c17.02,53.44,31.19,120.53,36.9,152.02l29.08-8.66-50.42-160.96Z"/>
        <path class="cls-7" d="m319.89,506.32c-5.81-1.61-12.01.7-15.34,5.73-46.4,69.96-52.92,148.99-18.8,227.35l67.42,154.62c2.95,6.77,10.69,10.05,17.61,7.47l154.34-57.63c6.92-2.59,10.62-10.13,8.41-17.19l-50.42-160.96c-25.59-81.54-82.31-136.96-163.21-159.38Zm146.03,171.87l5.58,17.53-3.96-12.42c17.02,53.44,31.19,120.53,36.9,152.02l-123.64,46.17c-16.33-27.53-49.6-87.48-71.77-139l5.15,11.97-5.15-11.97s0,0,0,0l-2.12-4.93c-29.75-69.23-26.61-137.99,9.06-197.88,2.74-4.6,8.31-6.68,13.39-5,66.19,21.84,113.64,71.72,136.54,143.5Z"/>
        <path class="cls-8" d="m309.41,743.33l4.79,11.13-4.79-11.13c-5.41,4.45-10.73,9-15.99,13.63l8.92,20.45c5.52-4.33,11.03-8.68,16.54-13.03-3.31-7.1-6.49-14.15-9.47-21.06,0,0,0,0,0,0Z"/>
        <path class="cls-8" d="m470.06,691.18l1.44,4.54-1.44-4.54s-.04,0-.06,0c1.73,5.64,3.42,11.4,5.08,17.22,7.4,1.06,14.82,1.91,22.25,2.7l-6.42-20.51c-6.95.43-13.9.73-20.85.59Z"/>
        <path class="cls-7" d="m338.18,714.9c-3.67-3.85-9.81-3.95-13.89-.53l-144.4,120.93c-3.78,3.16-4.54,8.64-1.86,12.78.04.06.07.11.11.17,3.28,5.02,10.25,6.01,14.85,2.15l144.4-120.93c4.4-3.68,4.83-10.35.8-14.57Z"/>
        <path class="cls-7" d="m408.91,679.21c-.34,5.31,3.75,9.89,9.03,10.58l186.79,24.22c4.89.63,9.43-2.52,10.66-7.29.02-.07.03-.13.05-.2,1.47-5.82-2.53-11.61-8.48-12.38l-186.78-24.22c-5.69-.74-10.88,3.47-11.26,9.29Z"/>
        <path class="cls-8" d="m439.54,663.5c-5.1-8.79-11.56-13.19-21.93-11.86,7.66-3.26,15.45-7.31,23.11-10.57"/>
        <path class="cls-8" d="m475.49,781.34c-2.94-11.11-10.96-16.47-22.26-17.43,7.57-4.38,15.94-8.07,24.58-9.42"/>
        <rect class="cls-10" x="160.62" y="820.07" width="30.16" height="63.71" rx="15.08" ry="15.08" transform="translate(710.79 166.13) rotate(49.62)"/>
        <rect class="cls-10" x="605.28" y="673.59" width="30.16" height="63.71" rx="15.08" ry="15.08" transform="translate(1404.93 188.79) rotate(97.96)"/>
        <path class="cls-7" d="m634.39,692.18l-31.06-4.34c-6.86-.96-13.21,3.83-14.17,10.69l-.7,5.01c-.96,6.86,3.83,13.21,10.69,14.17l29.97,4.19c3.71-9.52,5.57-19.8,5.27-29.72Z"/>
        <path class="cls-7" d="m176.7,857.06c2.1,2.83,4.46,5.44,7.01,7.85l16.47-14.01c5.28-4.49,5.92-12.41,1.43-17.69l-3.28-3.85c-4.49-5.28-12.41-5.92-17.69-1.43l-12.94,11.01c1.92,6.5,4.97,12.69,9.01,18.12Z"/>
        <path class="cls-4" d="m603.9,693.82c8.57-.73,30.49-1.39,30.49-1.64l-31.06-4.34c-4.44-.62-8.65,1.17-11.34,4.36l-171.82-22.28c-5.64-.73-10.79,3.4-11.24,9.14,2.18-2.31,5.43-3.59,8.87-3.16,0,0,176.42,22.26,176.53,22.28.25.03,2.31-2.1,2.71-2.36,1.1-.72,2.39-1.36,3.68-1.65.44-.1,1.57-.22,3.18-.36Z"/>
        <path class="cls-4" d="m311.66,493.07l16.49,28.57c.5.87,1.82.24,1.47-.69l-10.71-28.69c-1.77-4.73-7.03-7.13-11.76-5.36l-4.5,1.68c3.52-.42,7.12,1.24,9,4.5Z"/>
      </g>
      <g id="_3-HAPPY" data-name="3-HAPPY">
        <g>
          <path class="cls-5" d="m790.72,400.33c-19.42,0-35.23-15.74-35.24-35.08,0-4.1,3.34-7.43,7.47-7.43s7.47,3.33,7.47,7.44c0,11.13,9.11,20.2,20.3,20.2s20.29-9.05,20.28-20.18c0-4.1,3.34-7.43,7.47-7.43,4.12,0,7.47,3.33,7.47,7.44,0,19.33-15.78,35.05-35.21,35.04Z"/>
          <path class="cls-5" d="m873.24,400.37c-19.42,0-35.23-15.74-35.24-35.08,0-4.1,3.34-7.43,7.47-7.43s7.47,3.33,7.47,7.44c0,11.13,9.11,20.2,20.3,20.2,11.19,0,20.29-9.05,20.28-20.18,0-4.1,3.34-7.43,7.47-7.43,4.12,0,7.47,3.33,7.47,7.44,0,19.33-15.78,35.05-35.21,35.04Z"/>
        </g>
        <path class="cls-5" d="m832.01,460.08c-58.71-.03-110.93-37.18-129.94-92.45-1.34-3.89.74-8.11,4.65-9.44,3.9-1.33,8.15.75,9.49,4.63,16.94,49.25,63.48,82.36,115.8,82.38,52.32.02,98.83-33.04,115.72-82.28,1.33-3.89,5.58-5.96,9.48-4.62,3.91,1.33,5.99,5.56,4.66,9.44-18.96,55.25-71.14,92.35-129.86,92.33h0Z"/>
      </g>
      <rect class="cls-9" x="82.47" y="420.31" width="118.06" height="51.11" rx="25.56" ry="25.56"/>
      <path class="cls-4" d="m848.59,159.27c-.69,0-1.38-.05-2.08-.16-17.86-2.81-35.98-2.89-53.87-.22-7.26,1.07-14.02-3.93-15.1-11.19-1.08-7.26,3.93-14.02,11.19-15.1,20.55-3.06,41.38-2.97,61.91.26,7.25,1.14,12.2,7.94,11.06,15.19-1.03,6.55-6.68,11.22-13.11,11.22Z"/>
      <rect class="cls-9" x="-64.49" y="-43.79" width="411.27" height="154.98" rx="77.49" ry="77.49"/>
      <rect class="cls-9" x="-165.1" y="101" width="582.14" height="154.98" rx="77.49" ry="77.49"/>
      <rect class="cls-9" x="929.38" y="854.62" width="411.27" height="154.98" rx="77.49" ry="77.49"/>
      <rect class="cls-9" x="1065.05" y="932.11" width="843.41" height="317.83" rx="158.91" ry="158.91"/>
      <rect class="cls-9" x="1446.7" y="855.95" width="168.64" height="51.11" rx="25.56" ry="25.56"/>
      <rect class="cls-9" x="913.08" y="779.55" width="118.06" height="51.11" rx="25.56" ry="25.56"/>
      <g id="SPRITE-15">
        <path class="cls-7" d="m1102.09,587.82h0c-1.56-2.9-5.7-2.93-7.3-.06h0c-4.1,7.36-10.23,13.39-17.66,17.38h0c-2.9,1.56-2.93,5.7-.06,7.3h0c7.36,4.1,13.39,10.23,17.38,17.66h0c1.56,2.9,5.7,2.93,7.3.06h0c4.1-7.36,10.23-13.39,17.66-17.38h0c2.9-1.56,2.93-5.7.06-7.3h0c-7.36-4.1-13.39-10.23-17.38-17.66Z"/>
      </g>
      <g id="SPRITE-15-2" data-name="SPRITE-15">
        <path class="cls-7" d="m472.2,333.74h0c-.89-1.67-3.28-1.68-4.2-.03h0c-2.36,4.23-5.88,7.7-10.15,9.98h0c-1.67.89-1.68,3.28-.03,4.2h0c4.23,2.36,7.7,5.88,9.98,10.15h0c.89,1.67,3.28,1.68,4.2.03h0c2.36-4.23,5.88-7.7,10.15-9.98h0c1.67-.89,1.68-3.28.03-4.2h0c-4.23-2.36-7.7-5.88-9.98-10.15Z"/>
      </g>
      <g id="SPRITE-15-3" data-name="SPRITE-15">
        <path class="cls-7" d="m1208.64,755.77h0c-.89-1.67-3.28-1.68-4.2-.03h0c-2.36,4.23-5.88,7.7-10.15,9.98h0c-1.67.89-1.68,3.28-.03,4.2h0c4.23,2.36,7.7,5.88,9.98,10.15h0c.89,1.67,3.28,1.68,4.2.03h0c2.36-4.23,5.88-7.7,10.15-9.98h0c1.67-.89,1.68-3.28.03-4.2h0c-4.23-2.36-7.7-5.88-9.98-10.15Z"/>
      </g>
      <g id="SPRITE-15-4" data-name="SPRITE-15">
        <path class="cls-7" d="m112.31,580.22h0c-.89-1.67-3.28-1.68-4.2-.03h0c-2.36,4.23-5.88,7.7-10.15,9.98h0c-1.67.89-1.68,3.28-.03,4.2h0c4.23,2.36,7.7,5.88,9.98,10.15h0c.89,1.67,3.28,1.68,4.2.03h0c2.36-4.23,5.88-7.7,10.15-9.98h0c1.67-.89,1.68-3.28.03-4.2h0c-4.23-2.36-7.7-5.88-9.98-10.15Z"/>
      </g>
      <g id="SPRITE-15-5" data-name="SPRITE-15">
        <path class="cls-7" d="m1110.39,82.94h0c-.89-1.67-3.28-1.68-4.2-.03h0c-2.36,4.23-5.88,7.7-10.15,9.98h0c-1.67.89-1.68,3.28-.03,4.2h0c4.23,2.36,7.7,5.88,9.98,10.15h0c.89,1.67,3.28,1.68,4.2.03h0c2.36-4.23,5.88-7.7,10.15-9.98h0c1.67-.89,1.68-3.28.03-4.2h0c-4.23-2.36-7.7-5.88-9.98-10.15Z"/>
      </g>
      <circle class="cls-7" cx="537.18" cy="505.81" r="6.7"/>
      <circle class="cls-7" cx="698.78" cy="969.32" r="6.7"/>
      <circle class="cls-7" cx="1058.35" cy="179.28" r="6.7"/>
      <circle class="cls-7" cx="690.43" cy="59.26" r="6.7"/>
      <circle class="cls-7" cx="766.32" cy="902.36" r="6.7"/>
    </g>
  </g>
</svg>