<?xml version="1.0" encoding="UTF-8"?>
<svg xmlns="http://www.w3.org/2000/svg" xmlns:xlink="http://www.w3.org/1999/xlink" viewBox="0 0 1920 1080">
  <defs>
    <style>
      .cls-1 {
        fill: none;
      }

      .cls-2 {
        clip-path: url(#clippath);
      }

      .cls-3 {
        fill: #ffce00;
      }

      .cls-4 {
        fill: #1a0c54;
      }

      .cls-5 {
        fill: #5431a5;
      }

      .cls-6 {
        fill: #8144a8;
      }

      .cls-7 {
        fill: #3b197f;
      }
    </style>
    <clipPath id="clippath">
      <rect class="cls-1" x="151.04" y="1.1" width="1617.92" height="1078.9"/>
    </clipPath>
  </defs>
  <g id="Layer_3" data-name="Layer 3">
    <rect class="cls-7" y="-.55" width="1920" height="1080.55"/>
  </g>
  <g id="Layer_2" data-name="Layer 2">
    <circle class="cls-3" cx="1664.91" cy="906.21" r="16.42"/>
    <circle class="cls-3" cx="1681.33" cy="416.02" r="8.21"/>
    <g class="cls-2">
      <circle class="cls-3" cx="960" cy="669.46" r="541.71"/>
      <path class="cls-6" d="m838.17,1141.74h-105.61v-99.93c0-15.2,8.74-29.05,22.46-35.6l83.15-39.69v175.21Z"/>
      <path class="cls-6" d="m1054.72,558.09h-188.04c-5.66,0-7.93-6.95-3.4-10.05l96.56-65.89,97.46,66.4c4.08,2.8,2.53,9.53-2.58,9.53Z"/>
      <path class="cls-6" d="m976.85,459.46h-32.87c-8.02,0-12.14,9.6-6.62,15.42l16.44,17.3c3.6,3.79,9.64,3.79,13.24,0l16.44-17.3c5.52-5.82,1.4-15.42-6.62-15.42Z"/>
      <circle class="cls-4" cx="960.41" cy="610.36" r="27.73"/>
      <path class="cls-5" d="m1100.41,703.57c5.43-8-.3-18.81-9.97-18.81h-261.01c-9.61,0-15.31,10.75-9.91,18.7l20.76,30.6-33.45,345.93h306.34l-33.45-345.93,20.69-30.49Z"/>
      <rect class="cls-4" x="942.14" y="792.7" width="35.71" height="66.61" rx="13.71" ry="13.71"/>
      <rect class="cls-4" x="942.14" y="947.98" width="35.71" height="66.61" rx="13.71" ry="13.71"/>
      <g>
        <path class="cls-4" d="m912.74,275.02c-17.61,0-33.41-11.15-39.31-27.74-1.55-4.37.73-9.17,5.1-10.73,4.37-1.55,9.17.73,10.73,5.1,3.52,9.91,12.96,16.57,23.49,16.57s19.96-6.66,23.49-16.57c1.55-4.37,6.36-6.65,10.73-5.1,4.37,1.55,6.65,6.36,5.1,10.73-5.9,16.59-21.7,27.74-39.31,27.74Z"/>
        <path class="cls-4" d="m1006.91,275.02c-17.61,0-33.41-11.15-39.31-27.74-1.55-4.37.73-9.17,5.1-10.73,4.37-1.55,9.17.73,10.73,5.1,3.52,9.91,12.96,16.57,23.49,16.57s19.96-6.66,23.49-16.57c1.55-4.37,6.36-6.65,10.73-5.1,4.37,1.55,6.65,6.36,5.1,10.73-5.9,16.59-21.7,27.74-39.31,27.74Z"/>
        <path class="cls-4" d="m960,334.09c-55.76,0-109.05-20.77-150.08-58.48-3.42-3.14-3.64-8.45-.5-11.87s8.45-3.64,11.87-.5c37.92,34.85,87.18,54.05,138.71,54.05s100.8-19.19,138.71-54.05c3.42-3.14,8.73-2.92,11.87.5,3.14,3.42,2.92,8.73-.5,11.87-41.03,37.71-94.33,58.48-150.08,58.48Z"/>
      </g>
      <path class="cls-6" d="m869.2,628.85h181.99c5.46,0,9.9,4.43,9.9,9.9v46.01h-202.17v-45.63c0-5.67,4.61-10.28,10.28-10.28Z"/>
      <g>
        <path class="cls-6" d="m868.16,546.8c-5.1,0-9.25,4.15-9.25,9.25v95.25c0,5.1,4.15,9.25,9.25,9.25s9.25-4.15,9.25-9.25v-95.25c0-5.1-4.15-9.25-9.25-9.25Z"/>
        <path class="cls-6" d="m1061.05,556.02c0-5.1-4.15-9.25-9.25-9.25s-9.25,4.15-9.25,9.25v89.79c0,5.1,4.15,9.25,9.25,9.25s9.25-4.15,9.25-9.25v-89.79Z"/>
        <path class="cls-6" d="m1113.44,1078.64l-33.74-347.05c-.5-5.13-5.1-8.9-10.24-8.42-5.14.5-8.92,5.09-8.42,10.24l33.74,347.05c.47,4.83,4.48,8.47,9.32,8.47.3,0,.61-.02.92-.04,5.14-.5,8.92-5.09,8.42-10.24Z"/>
        <path class="cls-6" d="m850.55,723.35c-5.15-.49-9.74,3.28-10.24,8.42l-33.74,347.05c-.5,5.14,3.28,9.74,8.42,10.24.31.03.61.04.92.04,4.84,0,8.85-3.64,9.32-8.47l33.74-347.05c.5-5.14-3.28-9.74-8.42-10.24Z"/>
      </g>
      <g>
        <path class="cls-6" d="m858.92,684.76h-29.49c-9.61,0-15.31,10.75-9.91,18.7l20.76,30.6h18.64v-49.31Z"/>
        <path class="cls-6" d="m1090.44,684.76h-29.36v49.31h18.64l20.69-30.49c5.43-8-.3-18.81-9.97-18.81Z"/>
      </g>
      <circle class="cls-3" cx="418.29" cy="181.89" r="16.42"/>
      <circle class="cls-3" cx="1574.61" cy="792.7" r="16.42"/>
      <circle class="cls-3" cx="299.43" cy="334.09" r="16.42"/>
      <circle class="cls-3" cx="442.92" cy="297.56" r="8.21"/>
      <circle class="cls-3" cx="356.3" cy="800.91" r="8.21"/>
    </g>
  </g>
</svg>