<?xml version="1.0" encoding="UTF-8"?>
<svg id="Layer_1" data-name="Layer 1" xmlns="http://www.w3.org/2000/svg" xmlns:xlink="http://www.w3.org/1999/xlink" viewBox="0 0 1920 1080">
  <defs>
    <style>
      .cls-1 {
        fill: none;
      }

      .cls-2 {
        clip-path: url(#clippath);
      }

      .cls-3 {
        fill: #f9f4f2;
      }

      .cls-4 {
        fill: #ff76b8;
      }

      .cls-5 {
        fill: #9e65c6;
      }

      .cls-6 {
        fill: #ad85d1;
      }

      .cls-7 {
        fill: #1a0c54;
      }

      .cls-8 {
        fill: #8144a8;
      }

      .cls-9 {
        fill: #281466;
      }

      .cls-10 {
        fill: #3b197f;
      }
    </style>
    <clipPath id="clippath">
      <rect class="cls-1" width="1920" height="1080"/>
    </clipPath>
  </defs>
  <g class="cls-2">
    <rect class="cls-9" width="1920" height="1080"/>
    <circle class="cls-10" cx="960" cy="540" r="585.54"/>
    <g>
      <circle class="cls-7" cx="-20.07" cy="796.56" r="294.77"/>
      <circle class="cls-7" cx="351.76" cy="1047.08" r="259.08"/>
      <circle class="cls-7" cx="82.67" cy="997.16" r="194.48"/>
      <rect class="cls-7" x="101.02" y="998.38" width="814.6" height="256.86" rx="128.43" ry="128.43"/>
    </g>
    <g>
      <circle class="cls-8" cx="960" cy="540" r="377.21"/>
      <path class="cls-6" d="m1203.52,736.35c-207.54-1.66-374.12-169.65-374.12-377.2,0-52.79,10.84-103.05,30.43-148.67,6.8-15.83-8.46-32.23-24.72-26.53-147.74,51.83-253.46,193.01-252.3,358.73,1.45,207.64,171.9,375.77,379.54,374.51,122.52-.74,231.2-59.91,299.57-151.04,10.35-13.79-.54-33.35-17.7-31.65-13.37,1.32-26.95,1.95-40.7,1.84Z"/>
      <g>
        <path class="cls-7" d="m904.63,457.14c-20.19,0-38.31-12.78-45.07-31.8-1.63-4.57.76-9.6,5.33-11.22,4.57-1.63,9.6.76,11.22,5.33,4.28,12.03,15.74,20.11,28.51,20.11s24.23-8.08,28.51-20.11c1.63-4.57,6.65-6.96,11.22-5.33,4.57,1.63,6.96,6.65,5.33,11.22-6.76,19.02-24.88,31.8-45.07,31.8Z"/>
        <path class="cls-7" d="m1014.96,457.14c-20.19,0-38.31-12.78-45.07-31.8-1.63-4.57.76-9.6,5.33-11.22,4.57-1.63,9.6.76,11.22,5.33,4.28,12.03,15.74,20.11,28.51,20.11s24.23-8.08,28.51-20.11c1.63-4.57,6.65-6.96,11.22-5.33,4.57,1.63,6.96,6.65,5.33,11.22-6.76,19.02-24.88,31.8-45.07,31.8Z"/>
        <path class="cls-7" d="m960,526.36c-65.06,0-127.26-24.23-175.14-68.24-3.57-3.28-3.81-8.84-.52-12.42s8.84-3.81,12.42-.52c44.62,41.02,102.6,63.6,163.24,63.6s118.62-22.59,163.24-63.6c3.57-3.28,9.13-3.05,12.42.52,3.28,3.57,3.05,9.13-.52,12.42-47.88,44-110.07,68.24-175.14,68.24Z"/>
      </g>
    </g>
    <g>
      <rect class="cls-7" x="1556.29" y="467.14" width="736.06" height="248.5" rx="124.25" ry="124.25"/>
      <circle class="cls-7" cx="1847.57" cy="423.27" r="199.39"/>
    </g>
    <rect class="cls-4" x="146.24" y="293.06" width="24.46" height="24.46" rx="12.23" ry="12.23"/>
    <rect class="cls-5" x="1519.21" y="930.52" width="17.12" height="17.12" rx="8.56" ry="8.56"/>
    <rect class="cls-5" x="1730.64" y="93.02" width="17.12" height="17.12" rx="8.56" ry="8.56"/>
    <rect class="cls-5" x="240.17" y="335.05" width="17.12" height="17.12" rx="8.56" ry="8.56"/>
    <path class="cls-3" d="m1681.15,905.76c-23.52,6.58-30.23,13.29-36.81,36.81-.41,1.47-2.51,1.47-2.92,0-6.58-23.52-13.29-30.23-36.81-36.81-1.47-.41-1.47-2.51,0-2.92,23.52-6.58,30.23-13.29,36.81-36.81.41-1.47,2.51-1.47,2.92,0,6.58,23.52,13.29,30.23,36.81,36.81,1.47.41,1.47,2.51,0,2.92Z"/>
  </g>
</svg>