<?xml version="1.0" encoding="utf-8"?>
<!-- Generator: Adobe Illustrator 27.5.0, SVG Export Plug-In . SVG Version: 6.00 Build 0)  -->
<svg version="1.1" xmlns="http://www.w3.org/2000/svg" xmlns:xlink="http://www.w3.org/1999/xlink" x="0px" y="0px"
	 viewBox="0 0 500 500" style="enable-background:new 0 0 500 500;" xml:space="preserve">
<g id="BACKGROUND">
	<rect style="fill:#FFFFFF;" width="500" height="500"/>
</g>
<g id="OBJECTS">
	<g style="opacity:0.7;">
		<g>
			<path style="fill:#D6D6E5;" d="M260.124,78.614c0,5.591-4.533,10.124-10.124,10.124c-5.591,0-10.124-4.533-10.124-10.124
				S250,58.852,250,58.852S260.124,73.022,260.124,78.614z"/>
			<path style="fill:#D6D6E5;" d="M229.797,79.495c0.971,5.506-2.706,10.757-8.212,11.728c-5.506,0.971-10.757-2.706-11.728-8.212
				c-0.971-5.506,6.539-21.219,6.539-21.219S228.826,73.989,229.797,79.495z"/>
			<path style="fill:#D6D6E5;" d="M200.084,85.63c1.912,5.254-0.797,11.064-6.051,12.976c-5.254,1.912-11.064-0.797-12.976-6.051
				s2.755-22.032,2.755-22.032S198.172,80.376,200.084,85.63z"/>
			<path style="fill:#D6D6E5;" d="M171.888,96.831c2.796,4.842,1.137,11.034-3.706,13.83c-4.842,2.796-11.034,1.136-13.83-3.706
				c-2.796-4.842-1.113-22.176-1.113-22.176S169.093,91.989,171.888,96.831z"/>
			<path style="fill:#D6D6E5;" d="M146.066,112.758c3.594,4.283,3.035,10.669-1.248,14.263c-4.283,3.594-10.669,3.035-14.263-1.248
				c-3.594-4.283-4.947-21.646-4.947-21.646S142.471,108.475,146.066,112.758z"/>
			<path style="fill:#D6D6E5;" d="M123.401,132.927c4.283,3.594,4.842,9.98,1.248,14.263c-3.594,4.283-9.98,4.842-14.263,1.248
				c-4.283-3.594-8.631-20.458-8.631-20.458S119.118,129.333,123.401,132.927z"/>
			<path style="fill:#D6D6E5;" d="M104.583,156.725c4.842,2.796,6.501,8.987,3.706,13.83c-2.796,4.842-8.987,6.501-13.83,3.706
				c-4.842-2.796-12.052-18.648-12.052-18.648S99.74,153.93,104.583,156.725z"/>
			<path style="fill:#D6D6E5;" d="M90.183,183.43c5.254,1.912,7.963,7.722,6.051,12.976c-1.912,5.254-7.722,7.963-12.976,6.051
				c-5.254-1.912-15.107-16.272-15.107-16.272S84.929,181.517,90.183,183.43z"/>
			<path style="fill:#D6D6E5;" d="M80.639,212.229c5.506,0.971,9.183,6.222,8.212,11.728c-0.971,5.506-6.222,9.183-11.728,8.212
				c-5.506-0.971-17.703-13.402-17.703-13.402S75.133,211.258,80.639,212.229z"/>
			<path style="fill:#D6D6E5;" d="M76.241,242.248c5.591,0,10.124,4.533,10.124,10.124c0,5.591-4.533,10.124-10.124,10.124
				S56.48,252.372,56.48,252.372S70.65,242.248,76.241,242.248z"/>
			<path style="fill:#D6D6E5;" d="M77.123,272.575c5.506-0.971,10.757,2.706,11.728,8.212c0.971,5.506-2.706,10.757-8.212,11.728
				c-5.506,0.971-21.219-6.539-21.219-6.539S71.617,273.546,77.123,272.575z"/>
			<path style="fill:#D6D6E5;" d="M83.258,302.288c5.254-1.912,11.064,0.797,12.976,6.051c1.912,5.254-0.797,11.064-6.051,12.976
				c-5.254,1.912-22.032-2.755-22.032-2.755S78.004,304.2,83.258,302.288z"/>
			<path style="fill:#D6D6E5;" d="M94.459,330.484c4.842-2.796,11.034-1.137,13.83,3.706c2.796,4.842,1.137,11.034-3.706,13.829
				c-4.842,2.796-22.176,1.113-22.176,1.113S89.616,333.279,94.459,330.484z"/>
			<path style="fill:#D6D6E5;" d="M110.386,356.306c4.283-3.594,10.669-3.035,14.263,1.248c3.594,4.283,3.035,10.669-1.248,14.263
				s-21.646,4.947-21.646,4.947S106.102,359.901,110.386,356.306z"/>
			<path style="fill:#D6D6E5;" d="M130.555,378.971c3.594-4.283,9.98-4.842,14.263-1.248c4.283,3.594,4.842,9.98,1.248,14.263
				c-3.594,4.283-20.458,8.631-20.458,8.631S126.961,383.254,130.555,378.971z"/>
			<path style="fill:#D6D6E5;" d="M154.353,397.789c2.796-4.842,8.987-6.501,13.83-3.706c4.842,2.796,6.501,8.987,3.706,13.829
				c-2.796,4.842-18.648,12.052-18.648,12.052S151.557,402.632,154.353,397.789z"/>
			<path style="fill:#D6D6E5;" d="M181.058,412.189c1.912-5.254,7.722-7.963,12.976-6.051s7.963,7.722,6.051,12.976
				c-1.912,5.254-16.272,15.107-16.272,15.107S179.145,417.443,181.058,412.189z"/>
			<path style="fill:#D6D6E5;" d="M209.857,421.733c0.971-5.506,6.222-9.183,11.728-8.212c5.506,0.971,9.183,6.222,8.212,11.728
				c-0.971,5.506-13.402,17.703-13.402,17.703S208.886,427.239,209.857,421.733z"/>
			<path style="fill:#D6D6E5;" d="M239.876,426.131c0-5.591,4.533-10.124,10.124-10.124c5.591,0,10.124,4.533,10.124,10.124
				c0,5.591-10.124,19.761-10.124,19.761S239.876,431.722,239.876,426.131z"/>
			<path style="fill:#D6D6E5;" d="M270.203,425.249c-0.971-5.506,2.706-10.757,8.212-11.728c5.506-0.971,10.757,2.706,11.728,8.212
				c0.971,5.506-6.539,21.219-6.539,21.219S271.174,430.755,270.203,425.249z"/>
			<path style="fill:#D6D6E5;" d="M299.915,419.114c-1.912-5.254,0.797-11.064,6.051-12.976c5.254-1.912,11.064,0.797,12.976,6.051
				c1.912,5.254-2.755,22.032-2.755,22.032S301.828,424.368,299.915,419.114z"/>
			<path style="fill:#D6D6E5;" d="M328.112,407.913c-2.796-4.842-1.137-11.034,3.706-13.829c4.842-2.796,11.034-1.137,13.83,3.706
				c2.796,4.842,1.113,22.176,1.113,22.176S330.907,412.756,328.112,407.913z"/>
			<path style="fill:#D6D6E5;" d="M353.934,391.986c-3.594-4.283-3.035-10.669,1.248-14.263c4.283-3.594,10.669-3.035,14.263,1.248
				c3.594,4.283,4.947,21.646,4.947,21.646S357.528,396.27,353.934,391.986z"/>
			<path style="fill:#D6D6E5;" d="M376.599,371.817c-4.283-3.594-4.842-9.98-1.248-14.263c3.594-4.283,9.98-4.842,14.263-1.248
				c4.283,3.594,8.63,20.458,8.63,20.458S380.882,375.411,376.599,371.817z"/>
			<path style="fill:#D6D6E5;" d="M395.417,348.019c-4.842-2.796-6.501-8.987-3.706-13.829c2.796-4.842,8.987-6.501,13.83-3.706
				c4.842,2.796,12.052,18.648,12.052,18.648S400.259,350.815,395.417,348.019z"/>
			<path style="fill:#D6D6E5;" d="M409.817,321.314c-5.254-1.912-7.963-7.722-6.051-12.976c1.912-5.254,7.722-7.963,12.976-6.051
				s15.107,16.272,15.107,16.272S415.071,323.227,409.817,321.314z"/>
			<path style="fill:#D6D6E5;" d="M419.361,292.515c-5.506-0.971-9.183-6.222-8.212-11.728c0.971-5.506,6.222-9.183,11.728-8.212
				c5.506,0.971,17.703,13.402,17.703,13.402S424.867,293.486,419.361,292.515z"/>
			<path style="fill:#D6D6E5;" d="M423.758,262.496c-5.591,0-10.124-4.533-10.124-10.124c0-5.591,4.533-10.124,10.124-10.124
				s19.761,10.124,19.761,10.124S429.35,262.496,423.758,262.496z"/>
			<path style="fill:#D6D6E5;" d="M422.877,232.169c-5.506,0.971-10.757-2.706-11.728-8.212c-0.971-5.506,2.706-10.757,8.212-11.728
				c5.506-0.971,21.219,6.539,21.219,6.539S428.383,231.198,422.877,232.169z"/>
			<path style="fill:#D6D6E5;" d="M416.742,202.456c-5.254,1.912-11.064-0.797-12.976-6.051c-1.912-5.254,0.797-11.064,6.051-12.976
				c5.254-1.912,22.032,2.755,22.032,2.755S421.996,200.544,416.742,202.456z"/>
			<path style="fill:#D6D6E5;" d="M405.541,174.26c-4.842,2.796-11.034,1.137-13.83-3.706c-2.796-4.842-1.137-11.034,3.706-13.83
				c4.842-2.796,22.176-1.113,22.176-1.113S410.383,171.465,405.541,174.26z"/>
			<path style="fill:#D6D6E5;" d="M389.614,148.438c-4.283,3.594-10.669,3.035-14.263-1.248s-3.035-10.669,1.248-14.263
				c4.283-3.594,21.646-4.947,21.646-4.947S393.897,144.844,389.614,148.438z"/>
			<path style="fill:#D6D6E5;" d="M369.445,125.773c-3.594,4.283-9.98,4.842-14.263,1.248s-4.842-9.98-1.248-14.263
				c3.594-4.283,20.458-8.631,20.458-8.631S373.039,121.49,369.445,125.773z"/>
			<path style="fill:#D6D6E5;" d="M345.647,106.955c-2.796,4.842-8.987,6.501-13.83,3.706c-4.842-2.796-6.501-8.987-3.706-13.83
				c2.796-4.842,18.648-12.052,18.648-12.052S348.442,102.113,345.647,106.955z"/>
			<path style="fill:#D6D6E5;" d="M318.942,92.555c-1.912,5.254-7.722,7.963-12.976,6.051c-5.254-1.912-7.963-7.722-6.051-12.976
				c1.912-5.254,16.272-15.107,16.272-15.107S320.855,87.301,318.942,92.555z"/>
			<path style="fill:#D6D6E5;" d="M290.143,83.011c-0.971,5.506-6.222,9.183-11.728,8.212c-5.506-0.971-9.183-6.222-8.212-11.728
				c0.971-5.506,13.402-17.703,13.402-17.703S291.114,77.505,290.143,83.011z"/>
		</g>
		<g>
			<path style="fill:#D6D6E5;" d="M244.127,104.883c0.464,4.719-2.985,8.921-7.704,9.384c-4.719,0.464-8.92-2.985-9.384-7.704
				c-0.464-4.719,6.905-17.518,6.905-17.518S243.663,100.164,244.127,104.883z"/>
			<path style="fill:#D6D6E5;" d="M218.605,108.143c1.276,4.567-1.391,9.303-5.958,10.58s-9.303-1.391-10.58-5.958
				c-1.276-4.567,3.758-18.451,3.758-18.451S217.328,103.576,218.605,108.143z"/>
			<path style="fill:#D6D6E5;" d="M194.037,115.786c2.05,4.276,0.246,9.404-4.03,11.454c-4.276,2.05-9.404,0.246-11.454-4.03
				c-2.05-4.276,0.497-18.823,0.497-18.823S191.987,111.51,194.037,115.786z"/>
			<path style="fill:#D6D6E5;" d="M171.169,127.579c2.761,3.855,1.875,9.218-1.98,11.979c-3.855,2.761-9.218,1.875-11.979-1.98
				c-2.761-3.855-2.779-18.624-2.779-18.624S168.408,123.724,171.169,127.579z"/>
			<path style="fill:#D6D6E5;" d="M150.697,143.164c3.389,3.317,3.447,8.753,0.13,12.141c-3.317,3.389-8.753,3.447-12.141,0.13
				c-3.389-3.317-5.971-17.858-5.971-17.858S147.308,139.847,150.697,143.164z"/>
			<path style="fill:#D6D6E5;" d="M133.241,162.067c3.913,2.678,4.915,8.021,2.237,11.934c-2.678,3.913-8.021,4.915-11.934,2.237
				c-3.913-2.678-8.981-16.55-8.981-16.55S129.328,159.389,133.241,162.067z"/>
			<path style="fill:#D6D6E5;" d="M119.334,183.714c4.319,1.958,6.233,7.046,4.275,11.365c-1.958,4.319-7.046,6.233-11.365,4.275
				s-11.719-14.739-11.719-14.739S115.015,181.756,119.334,183.714z"/>
			<path style="fill:#D6D6E5;" d="M109.397,207.447c4.593,1.178,7.362,5.856,6.183,10.45c-1.178,4.593-5.856,7.361-10.449,6.183
				c-4.593-1.178-14.1-12.48-14.1-12.48S104.803,206.269,109.397,207.447z"/>
			<path style="fill:#D6D6E5;" d="M103.731,232.545c4.728,0.363,8.267,4.489,7.904,9.217c-0.363,4.728-4.489,8.267-9.217,7.904
				c-4.728-0.363-16.053-9.842-16.053-9.842S99.004,232.182,103.731,232.545z"/>
			<path style="fill:#D6D6E5;" d="M102.511,258.245c4.719-0.464,8.92,2.985,9.384,7.704c0.464,4.719-2.986,8.921-7.704,9.384
				c-4.719,0.464-17.518-6.905-17.518-6.905S97.792,258.709,102.511,258.245z"/>
			<path style="fill:#D6D6E5;" d="M105.771,283.767c4.567-1.276,9.303,1.391,10.58,5.958c1.276,4.567-1.391,9.303-5.958,10.58
				c-4.567,1.276-18.451-3.758-18.451-3.758S101.204,285.043,105.771,283.767z"/>
			<path style="fill:#D6D6E5;" d="M113.414,308.335c4.276-2.05,9.404-0.246,11.454,4.03c2.05,4.276,0.246,9.404-4.03,11.454
				c-4.276,2.05-18.823-0.497-18.823-0.497S109.138,310.385,113.414,308.335z"/>
			<path style="fill:#D6D6E5;" d="M125.207,331.203c3.855-2.761,9.218-1.875,11.979,1.98c2.761,3.855,1.875,9.218-1.98,11.979
				c-3.855,2.761-18.624,2.779-18.624,2.779S121.352,333.964,125.207,331.203z"/>
			<path style="fill:#D6D6E5;" d="M140.792,351.676c3.317-3.389,8.753-3.447,12.141-0.13c3.389,3.317,3.447,8.753,0.13,12.141
				c-3.317,3.389-17.858,5.971-17.858,5.971S137.475,355.064,140.792,351.676z"/>
			<path style="fill:#D6D6E5;" d="M159.695,369.131c2.678-3.913,8.021-4.915,11.934-2.237c3.913,2.678,4.915,8.021,2.237,11.934
				c-2.678,3.913-16.55,8.982-16.55,8.982S157.017,373.044,159.695,369.131z"/>
			<path style="fill:#D6D6E5;" d="M181.342,383.038c1.958-4.319,7.046-6.233,11.364-4.275c4.319,1.958,6.233,7.046,4.275,11.364
				c-1.958,4.319-14.739,11.719-14.739,11.719S179.384,387.357,181.342,383.038z"/>
			<path style="fill:#D6D6E5;" d="M205.075,392.975c1.178-4.593,5.856-7.361,10.449-6.184c4.593,1.178,7.361,5.856,6.183,10.449
				c-1.178,4.593-12.48,14.1-12.48,14.1S203.896,397.569,205.075,392.975z"/>
			<path style="fill:#D6D6E5;" d="M230.173,398.641c0.363-4.728,4.489-8.267,9.217-7.904c4.728,0.362,8.267,4.489,7.904,9.217
				c-0.363,4.728-9.842,16.053-9.842,16.053S229.81,403.368,230.173,398.641z"/>
			<path style="fill:#D6D6E5;" d="M255.873,399.862c-0.464-4.719,2.985-8.921,7.704-9.385s8.921,2.985,9.385,7.704
				c0.464,4.719-6.905,17.518-6.905,17.518S256.337,404.58,255.873,399.862z"/>
			<path style="fill:#D6D6E5;" d="M281.395,396.601c-1.276-4.567,1.391-9.303,5.958-10.58c4.567-1.276,9.303,1.391,10.58,5.958
				c1.276,4.567-3.758,18.451-3.758,18.451S282.671,401.168,281.395,396.601z"/>
			<path style="fill:#D6D6E5;" d="M305.963,388.958c-2.05-4.276-0.246-9.404,4.03-11.454c4.276-2.05,9.404-0.246,11.454,4.03
				c2.05,4.276-0.497,18.823-0.497,18.823S308.013,393.234,305.963,388.958z"/>
			<path style="fill:#D6D6E5;" d="M328.831,377.165c-2.761-3.855-1.875-9.218,1.98-11.979c3.855-2.761,9.218-1.875,11.979,1.98
				c2.761,3.855,2.78,18.624,2.78,18.624S331.592,381.02,328.831,377.165z"/>
			<path style="fill:#D6D6E5;" d="M349.303,361.58c-3.389-3.317-3.447-8.753-0.13-12.141c3.317-3.389,8.753-3.447,12.141-0.13
				c3.389,3.317,5.971,17.858,5.971,17.858S352.692,364.897,349.303,361.58z"/>
			<path style="fill:#D6D6E5;" d="M366.759,342.677c-3.913-2.678-4.914-8.021-2.237-11.934c2.678-3.913,8.021-4.914,11.934-2.237
				c3.913,2.678,8.982,16.55,8.982,16.55S370.672,345.355,366.759,342.677z"/>
			<path style="fill:#D6D6E5;" d="M380.666,321.03c-4.319-1.958-6.233-7.046-4.275-11.364s7.046-6.233,11.365-4.275
				c4.319,1.958,11.719,14.739,11.719,14.739S384.985,322.988,380.666,321.03z"/>
			<path style="fill:#D6D6E5;" d="M390.603,297.297c-4.593-1.178-7.362-5.856-6.183-10.449c1.178-4.593,5.856-7.362,10.449-6.184
				c4.593,1.178,14.1,12.48,14.1,12.48S395.196,298.475,390.603,297.297z"/>
			<path style="fill:#D6D6E5;" d="M396.268,272.199c-4.728-0.363-8.266-4.489-7.904-9.217c0.363-4.728,4.489-8.267,9.217-7.904
				c4.728,0.362,16.053,9.842,16.053,9.842S400.996,272.562,396.268,272.199z"/>
			<path style="fill:#D6D6E5;" d="M397.489,246.499c-4.719,0.464-8.921-2.985-9.384-7.704c-0.464-4.719,2.986-8.921,7.704-9.385
				c4.719-0.464,17.518,6.905,17.518,6.905S402.208,246.035,397.489,246.499z"/>
			<path style="fill:#D6D6E5;" d="M394.229,220.977c-4.567,1.276-9.303-1.391-10.58-5.958c-1.276-4.567,1.391-9.303,5.958-10.58
				c4.567-1.276,18.451,3.758,18.451,3.758S398.796,219.701,394.229,220.977z"/>
			<path style="fill:#D6D6E5;" d="M386.586,196.409c-4.276,2.05-9.404,0.246-11.454-4.03c-2.05-4.276-0.246-9.404,4.03-11.454
				c4.276-2.05,18.823,0.497,18.823,0.497S390.862,194.359,386.586,196.409z"/>
			<path style="fill:#D6D6E5;" d="M374.793,173.541c-3.855,2.761-9.218,1.875-11.979-1.98c-2.761-3.855-1.875-9.218,1.98-11.979
				c3.855-2.761,18.624-2.779,18.624-2.779S378.648,170.78,374.793,173.541z"/>
			<path style="fill:#D6D6E5;" d="M359.208,153.069c-3.317,3.389-8.753,3.447-12.141,0.13c-3.389-3.317-3.447-8.753-0.13-12.141
				c3.317-3.389,17.858-5.971,17.858-5.971S362.525,149.68,359.208,153.069z"/>
			<path style="fill:#D6D6E5;" d="M340.305,135.613c-2.678,3.913-8.021,4.915-11.934,2.237c-3.913-2.678-4.915-8.021-2.237-11.934
				c2.678-3.913,16.55-8.981,16.55-8.981S342.983,131.7,340.305,135.613z"/>
			<path style="fill:#D6D6E5;" d="M318.658,121.706c-1.958,4.319-7.046,6.233-11.364,4.275c-4.319-1.958-6.233-7.046-4.275-11.364
				c1.958-4.319,14.739-11.719,14.739-11.719S320.616,117.387,318.658,121.706z"/>
			<path style="fill:#D6D6E5;" d="M294.925,111.769c-1.178,4.593-5.856,7.361-10.449,6.183c-4.593-1.178-7.362-5.856-6.184-10.449
				c1.178-4.593,12.48-14.1,12.48-14.1S296.103,107.176,294.925,111.769z"/>
			<path style="fill:#D6D6E5;" d="M269.827,106.104c-0.363,4.728-4.489,8.267-9.217,7.904c-4.728-0.363-8.267-4.489-7.904-9.217
				c0.363-4.728,9.842-16.053,9.842-16.053S270.19,101.376,269.827,106.104z"/>
		</g>
		<g>
			<path style="fill:#D6D6E5;" d="M237.153,132.047c0.637,3.835-1.956,7.46-5.791,8.097c-3.835,0.637-7.46-1.956-8.096-5.791
				c-0.637-3.835,4.693-14.706,4.693-14.706S236.516,128.213,237.153,132.047z"/>
			<path style="fill:#D6D6E5;" d="M216.454,136.106c1.293,3.666-0.631,7.686-4.296,8.979c-3.666,1.293-7.686-0.63-8.979-4.296
				c-1.293-3.666,2.068-15.298,2.068-15.298S215.161,132.44,216.454,136.106z"/>
			<path style="fill:#D6D6E5;" d="M196.775,143.698c1.91,3.386,0.714,7.679-2.672,9.589c-3.386,1.91-7.679,0.714-9.589-2.672
				c-1.91-3.386-0.62-15.424-0.62-15.424S194.865,140.312,196.775,143.698z"/>
			<path style="fill:#D6D6E5;" d="M178.712,154.591c2.469,3.003,2.036,7.438-0.966,9.907c-3.003,2.469-7.438,2.036-9.907-0.966
				c-2.469-3.003-3.289-15.082-3.289-15.082S176.243,151.589,178.712,154.591z"/>
			<path style="fill:#D6D6E5;" d="M162.816,168.456c2.953,2.528,3.297,6.972,0.769,9.924c-2.528,2.953-6.971,3.297-9.924,0.769
				c-2.953-2.528-5.858-14.282-5.858-14.282S159.863,165.927,162.816,168.456z"/>
			<path style="fill:#D6D6E5;" d="M149.568,184.87c3.347,1.977,4.457,6.293,2.48,9.64c-1.977,3.347-6.293,4.457-9.64,2.48
				c-3.347-1.977-8.249-13.048-8.249-13.048S146.221,182.893,149.568,184.87z"/>
			<path style="fill:#D6D6E5;" d="M139.372,203.335c3.639,1.366,5.482,5.423,4.117,9.063c-1.366,3.639-5.424,5.482-9.063,4.117
				c-3.639-1.366-10.39-11.417-10.39-11.417S135.733,201.969,139.372,203.335z"/>
			<path style="fill:#D6D6E5;" d="M132.538,223.29c3.821,0.713,6.341,4.389,5.628,8.21c-0.713,3.821-4.389,6.341-8.21,5.628
				c-3.821-0.713-12.214-9.44-12.214-9.44S128.717,222.577,132.538,223.29z"/>
			<path style="fill:#D6D6E5;" d="M129.272,244.129c3.887,0.039,7.007,3.221,6.968,7.108s-3.221,7.007-7.108,6.968
				c-3.887-0.039-13.668-7.175-13.668-7.175S125.385,244.091,129.272,244.129z"/>
			<path style="fill:#D6D6E5;" d="M129.675,265.219c3.835-0.637,7.46,1.956,8.096,5.79c0.637,3.835-1.956,7.46-5.79,8.096
				c-3.835,0.637-14.706-4.693-14.706-4.693S125.84,265.855,129.675,265.219z"/>
			<path style="fill:#D6D6E5;" d="M133.734,285.918c3.666-1.293,7.686,0.631,8.979,4.297c1.293,3.666-0.631,7.686-4.296,8.979
				c-3.666,1.293-15.298-2.068-15.298-2.068S130.068,287.211,133.734,285.918z"/>
			<path style="fill:#D6D6E5;" d="M141.325,305.598c3.386-1.91,7.679-0.714,9.589,2.672c1.91,3.386,0.714,7.679-2.672,9.589
				c-3.386,1.91-15.424,0.62-15.424,0.62S137.94,307.507,141.325,305.598z"/>
			<path style="fill:#D6D6E5;" d="M152.219,323.66c3.003-2.469,7.438-2.036,9.907,0.966c2.469,3.003,2.036,7.438-0.966,9.907
				c-3.003,2.469-15.082,3.289-15.082,3.289S149.216,326.129,152.219,323.66z"/>
			<path style="fill:#D6D6E5;" d="M166.084,339.556c2.528-2.953,6.971-3.297,9.924-0.769c2.953,2.528,3.297,6.971,0.769,9.924
				s-14.282,5.858-14.282,5.858S163.555,342.509,166.084,339.556z"/>
			<path style="fill:#D6D6E5;" d="M182.498,352.804c1.977-3.347,6.293-4.457,9.64-2.48c3.347,1.977,4.457,6.293,2.48,9.64
				s-13.048,8.249-13.048,8.249S180.521,356.151,182.498,352.804z"/>
			<path style="fill:#D6D6E5;" d="M200.963,363c1.366-3.639,5.424-5.482,9.063-4.117c3.639,1.366,5.482,5.424,4.117,9.063
				c-1.366,3.639-11.417,10.39-11.417,10.39S199.597,366.639,200.963,363z"/>
			<path style="fill:#D6D6E5;" d="M220.918,369.834c0.713-3.821,4.389-6.341,8.21-5.628c3.821,0.713,6.341,4.389,5.628,8.21
				c-0.713,3.821-9.44,12.214-9.44,12.214S220.205,373.655,220.918,369.834z"/>
			<path style="fill:#D6D6E5;" d="M241.757,373.1c0.039-3.887,3.221-7.007,7.108-6.968c3.887,0.039,7.007,3.221,6.968,7.108
				c-0.039,3.887-7.175,13.668-7.175,13.668S241.718,376.987,241.757,373.1z"/>
			<path style="fill:#D6D6E5;" d="M262.847,372.697c-0.637-3.835,1.956-7.46,5.79-8.096c3.835-0.637,7.46,1.956,8.096,5.79
				c0.637,3.835-4.693,14.706-4.693,14.706S263.483,376.532,262.847,372.697z"/>
			<path style="fill:#D6D6E5;" d="M283.546,368.638c-1.293-3.666,0.631-7.686,4.297-8.979c3.666-1.293,7.686,0.631,8.979,4.297
				c1.293,3.666-2.068,15.298-2.068,15.298S284.839,372.304,283.546,368.638z"/>
			<path style="fill:#D6D6E5;" d="M303.225,361.047c-1.91-3.386-0.714-7.679,2.672-9.589c3.386-1.91,7.679-0.714,9.589,2.672
				c1.91,3.386,0.62,15.424,0.62,15.424S305.135,364.432,303.225,361.047z"/>
			<path style="fill:#D6D6E5;" d="M321.288,350.153c-2.469-3.003-2.036-7.438,0.966-9.907c3.003-2.469,7.438-2.036,9.907,0.966
				s3.289,15.082,3.289,15.082S323.757,353.156,321.288,350.153z"/>
			<path style="fill:#D6D6E5;" d="M337.184,336.289c-2.953-2.528-3.297-6.972-0.769-9.924c2.528-2.953,6.971-3.297,9.924-0.769
				c2.953,2.528,5.858,14.282,5.858,14.282S340.137,338.817,337.184,336.289z"/>
			<path style="fill:#D6D6E5;" d="M350.432,319.874c-3.347-1.977-4.457-6.293-2.48-9.64c1.977-3.347,6.293-4.457,9.64-2.48
				c3.347,1.977,8.249,13.048,8.249,13.048S353.779,321.851,350.432,319.874z"/>
			<path style="fill:#D6D6E5;" d="M360.628,301.409c-3.639-1.366-5.483-5.423-4.117-9.063s5.423-5.483,9.063-4.117
				s10.39,11.417,10.39,11.417S364.267,302.775,360.628,301.409z"/>
			<path style="fill:#D6D6E5;" d="M367.462,281.454c-3.821-0.713-6.341-4.389-5.628-8.21c0.713-3.821,4.389-6.341,8.21-5.628
				c3.821,0.713,12.214,9.44,12.214,9.44S371.283,282.167,367.462,281.454z"/>
			<path style="fill:#D6D6E5;" d="M370.727,260.615c-3.887-0.039-7.007-3.221-6.968-7.108c0.039-3.887,3.221-7.007,7.108-6.968
				c3.887,0.039,13.668,7.175,13.668,7.175S374.615,260.654,370.727,260.615z"/>
			<path style="fill:#D6D6E5;" d="M370.325,239.525c-3.835,0.637-7.46-1.956-8.096-5.79c-0.637-3.835,1.956-7.46,5.79-8.096
				c3.835-0.637,14.706,4.693,14.706,4.693S374.159,238.889,370.325,239.525z"/>
			<path style="fill:#D6D6E5;" d="M366.266,218.826c-3.666,1.293-7.686-0.63-8.979-4.296c-1.293-3.666,0.631-7.686,4.296-8.979
				c3.666-1.293,15.298,2.068,15.298,2.068S369.932,217.533,366.266,218.826z"/>
			<path style="fill:#D6D6E5;" d="M358.674,199.147c-3.386,1.91-7.679,0.714-9.589-2.672s-0.714-7.679,2.672-9.589
				c3.386-1.91,15.424-0.62,15.424-0.62S362.06,197.237,358.674,199.147z"/>
			<path style="fill:#D6D6E5;" d="M347.781,181.084c-3.003,2.469-7.438,2.036-9.907-0.966c-2.469-3.003-2.036-7.438,0.966-9.907
				c3.003-2.469,15.082-3.289,15.082-3.289S350.784,178.615,347.781,181.084z"/>
			<path style="fill:#D6D6E5;" d="M333.916,165.188c-2.528,2.953-6.971,3.297-9.924,0.769c-2.953-2.528-3.297-6.972-0.769-9.924
				c2.528-2.953,14.282-5.858,14.282-5.858S336.445,162.235,333.916,165.188z"/>
			<path style="fill:#D6D6E5;" d="M317.502,151.94c-1.977,3.347-6.293,4.457-9.64,2.48c-3.347-1.977-4.457-6.293-2.48-9.64
				c1.977-3.347,13.048-8.249,13.048-8.249S319.479,148.593,317.502,151.94z"/>
			<path style="fill:#D6D6E5;" d="M299.037,141.745c-1.366,3.639-5.423,5.482-9.063,4.117c-3.639-1.366-5.482-5.423-4.116-9.063
				c1.366-3.639,11.417-10.39,11.417-10.39S300.403,138.105,299.037,141.745z"/>
			<path style="fill:#D6D6E5;" d="M279.082,134.91c-0.713,3.821-4.389,6.341-8.21,5.628c-3.821-0.713-6.341-4.389-5.628-8.21
				c0.713-3.821,9.44-12.214,9.44-12.214S279.795,131.089,279.082,134.91z"/>
			<path style="fill:#D6D6E5;" d="M258.243,131.645c-0.039,3.887-3.221,7.007-7.108,6.968c-3.887-0.039-7.007-3.221-6.968-7.108
				c0.039-3.887,7.175-13.668,7.175-13.668S258.281,127.757,258.243,131.645z"/>
		</g>
	</g>
	<ellipse style="opacity:0.4;fill:#A9A9D4;" cx="250" cy="441.446" rx="76.754" ry="8.887"/>
	<g>
		<path style="fill:#FFC0AD;" d="M159.244,154.898L159.244,154.898c-6.298,0-10.956,5.864-9.531,11.999l6.317,27.193
			c1.091,4.696,0.954,9.593-0.399,14.22l-0.74,2.532c-2.367,8.099,3.707,16.202,12.145,16.202h5.733l-3.758-62.945
			C168.703,158.932,164.421,154.898,159.244,154.898z"/>
		<path style="fill:#FFD4BC;" d="M265.695,266.135l32.209,1.33c14.314,1.07,25.355,13.043,25.264,27.397l0.482,26.929l-30.005-1.897
			l-5.555-21.735l-22.395-13.85V266.135z"/>
		<g>
			<defs>
				<path id="XMLID_1_" d="M286.64,71.38c1.346-0.969,2.169-2.671,1.792-4.394c-0.366-1.723-1.666-2.983-3.281-3.317
					c1.098-1.228,1.471-3.048,0.75-4.652c-0.721-1.605-2.29-2.552-3.948-2.542c0.829-1.432,0.793-3.273-0.252-4.695
					c-1.044-1.421-2.785-2.014-4.401-1.658c0.516-1.572,0.088-3.37-1.227-4.544c-1.313-1.174-3.143-1.4-4.65-0.711
					c0.183-1.647-0.614-3.317-2.132-4.2c-1.529-0.872-3.37-0.711-4.706,0.269c-0.171-1.648-1.291-3.112-2.972-3.651
					c-1.669-0.538-3.434,0-4.533,1.238c-0.516-1.572-1.917-2.778-3.672-2.95c-1.745-0.183-3.359,0.721-4.178,2.154
					c-0.829-1.432-2.444-2.315-4.188-2.132c-1.756,0.194-3.145,1.4-3.651,2.983c-1.098-1.239-2.875-1.766-4.544-1.217
					c-1.68,0.549-2.789,2.025-2.95,3.672c-1.336-0.98-3.177-1.13-4.695-0.237c-1.53,0.883-2.305,2.552-2.122,4.2
					c-1.507-0.668-3.338-0.442-4.641,0.743c-1.303,1.185-1.723,2.983-1.195,4.555c-1.626-0.355-3.37,0.258-4.393,1.68
					c-1.034,1.432-1.066,3.274-0.237,4.706c-1.658-0.011-3.23,0.947-3.952,2.563c-0.71,1.615-0.355,3.424,0.764,4.652
					c-1.626,0.334-2.972,1.605-3.327,3.327c-0.366,1.723,0.355,3.424,1.701,4.383c-1.507,0.678-2.563,2.197-2.552,3.952
					c0,1.755,1.055,3.263,2.574,3.93c-1.346,0.969-2.057,2.671-1.691,4.394c0.367,1.723,1.712,2.983,3.338,3.327
					c-1.109,1.228-1.454,3.037-0.732,4.652c0.721,1.604,2.336,2.552,3.984,2.541c-0.829,1.432-0.72,3.274,0.28,4.695
					c0,0.011,0,0.011,0,0.011c1,1.411,2.757,2.014,4.372,1.658c-0.517,1.572-0.113,3.37,1.201,4.544
					c1.303,1.185,3.137,1.411,4.644,0.732c-0.183,1.637,0.599,3.317,2.128,4.189c1.518,0.883,3.358,0.721,4.693-0.259
					c0.173,1.648,1.28,3.123,2.96,3.672c1.68,0.538,3.445,0,4.544-1.238c0.517,1.572,1.906,2.778,3.661,2.961
					c0.151,0.01,0.301,0.022,0.442,0.022c1.583,0,2.993-0.862,3.747-2.175c0.818,1.432,2.433,2.326,4.178,2.143
					c1.755-0.183,3.155-1.389,3.66-2.972c1.099,1.238,2.865,1.777,4.545,1.227c1.669-0.538,2.789-2.013,2.951-3.661
					c1.334,0.969,3.176,1.131,4.705,0.248c1.518-0.883,2.305-2.563,2.122-4.199c1.507,0.668,3.338,0.442,4.641-0.732
					c1.314-1.184,1.724-2.983,1.206-4.555c1.626,0.355,3.37-0.248,4.404-1.669c1.034-1.432,1.066-3.274,0.237-4.706
					c1.658,0.011,3.242-0.948,3.953-2.552c0.721-1.615,0.366-3.424-0.743-4.652c1.626-0.344,2.972-1.605,3.338-3.327
					c0.367-1.723-0.58-3.424-1.926-4.394c1.508-0.668,2.339-2.175,2.339-3.941c0-0.022,0-0.043,0-0.075c0-0.022,0-0.054,0-0.086
					C289,73.555,288.159,72.037,286.64,71.38z"/>
			</defs>
			<use xlink:href="#XMLID_1_"  style="overflow:visible;fill:#6B3F00;"/>
			<clipPath id="XMLID_00000162314144138418174640000018146936669739232920_">
				<use xlink:href="#XMLID_1_"  style="overflow:visible;"/>
			</clipPath>
			
				<ellipse transform="matrix(0.9078 -0.4194 0.4194 0.9078 -20.1843 114.3502)" style="opacity:0.4;clip-path:url(#XMLID_00000162314144138418174640000018146936669739232920_);fill:#50360F;" cx="250" cy="103.085" rx="52.86" ry="52.86"/>
		</g>
		<path style="fill:#FFC0AD;" d="M339.328,154.898L339.328,154.898c6.298,0,10.956,5.864,9.531,11.999l-6.317,27.193
			c-1.091,4.696-0.953,9.593,0.399,14.22l0.74,2.532c2.367,8.099-3.707,16.202-12.145,16.202h-5.733l3.758-62.945
			C329.87,158.932,334.151,154.898,339.328,154.898z"/>
		<path style="fill:#FFD4BC;" d="M233.002,266.135l-32.209,1.33c-14.314,1.07-25.355,13.043-25.264,27.397l-0.482,24.183
			l30.004,0.849l5.555-21.735l22.395-13.85V266.135z"/>
		<linearGradient id="SVGID_1_" gradientUnits="userSpaceOnUse" x1="251.7299" y1="422.0679" x2="251.7299" y2="265.0578">
			<stop  offset="0" style="stop-color:#FF7400"/>
			<stop  offset="0.5903" style="stop-color:#FFAA00"/>
		</linearGradient>
		<path style="fill:url(#SVGID_1_);" d="M326.265,367.916c-1.605-0.102-3.181-0.058-4.716,0.12
			c-6.47,0.751-12.818-2.187-16.615-7.48l0,0c-12.204-17.011-17.354-38.083-14.372-58.806l3.87-34.545l-44.996-2.148l-45.17,2.148
			l4.526,38.473c2.112,18.118-1.947,36.42-11.522,51.946l-2.123,3.443c-3.455,5.602-9.571,9.009-16.152,8.997l-0.102,0
			c-14.347,0-25.977,11.663-25.977,26.01c0,14.347,11.631,25.994,25.977,25.994c0,0,142.46-1.194,145.676-1.194
			c16.293,0,29.083-16.355,25.313-32.931C347.359,376.852,337.615,368.64,326.265,367.916z"/>
		<path style="fill:#FF7400;" d="M212.686,379.853"/>
		<g>
			<path style="fill:#FFC0AD;" d="M337.424,394.597L337.424,394.597c2.099,13.927-8.794,26.413-22.877,26.222l-107.387,0.908
				c-1.12-7.685,3.016-14.437,10.371-16.93l3.329-1.128l0.474-1.636c1.721-5.935,7.872-9.403,13.84-7.804l0.99,0.265
				c3.957,1.06,7.036,4.17,8.056,8.138l0,0l61.879-25.708C319.804,371.23,335.212,379.923,337.424,394.597z"/>
			<path style="fill:#FFD4BC;" d="M161.337,403.628L161.337,403.628c2.229,12.941,15.313,20.985,27.866,17.131l86.127-26.44
				l18.808-3.157l0,0c-1.285-7.659-7.856-13.308-15.621-13.43l-3.514-0.055l-0.952-1.412c-3.454-5.123-10.372-6.542-15.565-3.193
				l-0.861,0.556c-3.443,2.22-5.422,6.124-5.179,10.213l0,0l-67.836-5.623C170.408,377.039,158.919,389.585,161.337,403.628z"/>
			<path style="opacity:0.5;fill:#FFC0AD;" d="M280.005,386.78c-7.959,0.113-15.84,1.513-23.411,3.971
				c-18.923,6.144-66.174,21.244-73.516,21.244c-9.879,0-17.194-8.074-17.621-17.621c-0.226-5.048,2.166-9.684,5.825-12.939
				c-7.169,4.488-11.526,13.02-9.946,22.193v0c0,12.767,12.35,21.895,24.555,18.148l89.438-27.457l18.808-3.157
				C293.53,387.545,286.868,386.683,280.005,386.78z"/>
			<path style="fill:#FFC0AD;" d="M275.33,394.319l-31.109,8.313c-1.02-3.968-4.099-7.078-8.056-8.138l-0.99-0.265
				c-5.969-1.599-12.12,1.869-13.84,7.804l-0.474,1.636l-3.329,1.128c-7.355,2.493-11.492,9.245-10.371,16.93l66.234-0.865
				L275.33,394.319z"/>
			<path style="fill:#FAAB93;" d="M337.424,394.598L337.424,394.598c-1.301-8.629-7.166-15.185-14.563-17.969
				c4.518,3.948,7.374,9.796,7.66,16.201c0.516,11.515-10.169,21.322-21.322,21.322c-11.953,0-103.16-0.109-102.039,7.576
				l107.387-0.908C328.63,421.01,339.523,408.525,337.424,394.598z"/>
		</g>
		<path style="fill:#FFD4BC;" d="M232.961,355.335c-1.563-1.456-3.876-1.784-5.862-0.997l-2.834,1.122
			c-0.603,0.239-1.217,0.428-1.837,0.581v-0.328c0-2.074-1.681-3.756-3.755-3.756l-1.506,0.361
			c-2.892,0.694-5.937,0.334-8.588-1.014l0,0c-1.016-0.516-1.956-1.169-2.795-1.94l-5.707-5.246l4.976-24.224l-30.004-3.472v21.316
			c0,6.945,3.342,13.466,8.98,17.521l17.366,12.49c2.273,1.635,5.002,2.514,7.802,2.514h9.124c5.361,0,10.473-2.257,14.086-6.217
			l0.896-0.982C235.289,360.885,235.234,357.454,232.961,355.335z"/>
		<path style="fill:#FFD4BC;" d="M265.737,355.335c1.563-1.456,3.876-1.784,5.862-0.997l2.834,1.122
			c0.603,0.239,1.217,0.428,1.837,0.581v-0.328c0-2.074,1.681-3.756,3.756-3.756l1.506,0.361c2.892,0.694,5.937,0.334,8.588-1.014
			l0,0c1.016-0.516,1.956-1.169,2.795-1.94l5.707-5.246l-4.976-24.224l30.005-3.472v21.316c0,6.945-3.342,13.466-8.98,17.521
			l-17.366,12.49c-2.273,1.635-5.002,2.514-7.802,2.514h-9.124c-5.36,0-10.473-2.257-14.086-6.217l-0.896-0.982
			C263.408,360.885,263.463,357.454,265.737,355.335z"/>
		<path style="fill:#FFD4BC;" d="M228.772,250.96l-0.023,12.729c-0.02,10.657,9.328,17.481,20.537,17.481h0.361
			c11.209,0,20.258-6.75,20.278-17.407l0.023-12.803H228.772z"/>
		<path style="fill:#FFD4BC;" d="M162.518,103.267l-0.086,106.687c-0.046,25.118,21.334,45.519,47.754,45.567l77.991,0.141
			c26.419,0.048,47.873-20.275,47.918-45.393l0.084-105.103L162.518,103.267z"/>
		<path style="fill:#FFC0AD;" d="M246.956,250.133c-44.073,0-63.088,0.92-81.896-24.29c6.745,17.296,24.225,29.64,44.765,29.677
			l77.99,0.141c21.57,0.039,39.82-13.503,45.821-32.143C313.103,251.053,297.117,250.133,246.956,250.133z"/>
		<path style="fill:none;stroke:#6B411E;stroke-width:2;stroke-linecap:round;stroke-miterlimit:10;" d="M214.783,176.7
			c-0.012,6.998-3.566,12.664-7.936,12.656c-4.371-0.008-7.903-5.687-7.89-12.684"/>
		<path style="fill:none;stroke:#6B411E;stroke-width:2;stroke-linecap:round;stroke-miterlimit:10;" d="M299.74,176.853
			c-0.013,6.998-3.565,12.664-7.936,12.656c-4.371-0.008-7.902-5.687-7.89-12.685"/>
		<path style="opacity:0.8;fill:#191919;" d="M249.35,197.692c-5.051-0.009-9.863-1.151-14.168-3.166
			c-0.524,1.014-0.824,2.097-0.825,3.23c-0.01,5.511,6.694,9.99,14.974,10.004c8.28,0.015,15.001-4.439,15.011-9.95
			c0.002-1.132-0.293-2.217-0.813-3.232C259.215,196.577,254.399,197.701,249.35,197.692z"/>
		<g>
			<path style="fill:#FFC0AD;" d="M218.214,203.749c-0.011,5.814-4.976,10.518-11.092,10.508
				c-6.115-0.011-11.064-4.734-11.054-10.548c0.011-5.814,4.977-10.519,11.092-10.507
				C213.276,193.213,218.225,197.935,218.214,203.749z"/>
			<path style="fill:#FFC0AD;" d="M280.484,203.862c-0.011,5.814,4.938,10.537,11.054,10.548
				c6.116,0.011,11.082-4.694,11.092-10.508c0.01-5.814-4.939-10.537-11.054-10.548C285.46,193.344,280.494,198.048,280.484,203.862
				z"/>
		</g>
		<path style="fill:#88550C;" d="M341.988,130.519c0-1.648-0.916-3.08-2.283-3.802c1.367-0.721,2.283-2.154,2.283-3.801
			c0-1.712-1.002-3.198-2.445-3.887c1.422-0.84,2.283-2.466,2.078-4.211c-0.204-1.755-1.443-3.134-3.025-3.618
			c1.281-1.055,1.895-2.8,1.41-4.49c-0.473-1.701-1.487-2.876-3.125-3.102c1.099-1.238,1.119-3.069,1.119-4.662v-0.011
			c-2-1.594-2.767-2.531-4.425-2.498c0.894-1.4,0.712-3.252-0.268-4.717c-0.98-1.464-2.81-2.132-4.436-1.841
			c0.656-1.518,0.355-3.359-0.84-4.652c-1.195-1.292-3.02-1.69-4.592-1.152c0.42-1.605-0.122-3.371-1.5-4.469
			c-1.378-1.098-3.226-1.206-4.691-0.441c0.162-1.648-0.638-3.317-2.167-4.178c-1.54-0.872-3.384-0.689-4.708,0.291
			c-0.097-1.648-1.143-3.166-2.79-3.79c-1.658-0.614-3.447-0.151-4.599,1.034c-0.355-1.615-1.626-2.961-3.36-3.306
			c-1.723-0.355-3.424,0.377-4.372,1.734c-0.604-1.54-2.068-2.671-3.834-2.746c-1.7-0.075-3.219,0.851-3.973,2.25
			c-0.721-1.367-2.164-2.304-3.823-2.304c-1.648,0-3.08,0.926-3.802,2.283c-0.721-1.357-2.154-2.283-3.801-2.283
			c-1.647,0-3.079,0.926-3.801,2.283c-0.733-1.357-2.154-2.283-3.801-2.283c-1.648,0-3.08,0.926-3.812,2.283
			c-0.721-1.357-2.154-2.283-3.801-2.283s-3.079,0.926-3.802,2.283c-0.721-1.357-2.154-2.283-3.8-2.283
			c-1.648,0-3.08,0.926-3.802,2.283c-0.721-1.357-2.154-2.283-3.801-2.283c-1.648,0-3.08,0.926-3.801,2.283
			c-0.732-1.357-2.164-2.283-3.812-2.283c-1.647,0-3.08,0.926-3.801,2.283c-0.721-1.357-2.154-2.283-3.801-2.283
			c-1.647,0-3.079,0.926-3.801,2.283c-0.721-1.357-2.154-2.283-3.801-2.283c-1.647,0-3.08,0.926-3.801,2.283
			c-0.732-1.357-2.164-2.283-3.812-2.283c-1.647,0-3.091,0.937-3.812,2.304c-0.754-1.4-2.272-2.326-3.973-2.25
			c-1.755,0.076-3.23,1.195-3.834,2.735c-0.947-1.356-2.638-2.1-4.372-1.745c-1.734,0.345-3.004,1.691-3.359,3.306
			c-1.152-1.196-2.951-1.658-4.598-1.045c-1.658,0.614-3.066,2.132-3.153,3.79c-1.335-0.991-4.069-1.174-5.069-0.312v0.011
			c-1,0.861-1.984,2.53-1.812,4.178c-1.464-0.776-3.14-0.668-4.518,0.42c-1.389,1.098-1.829,2.864-1.409,4.469
			c-1.572-0.538-3.326-0.151-4.532,1.152c-1.195,1.292-1.421,3.123-0.764,4.641c-1.626-0.291-3.338,0.377-4.328,1.841
			c-0.98,1.464-0.931,3.306-0.049,4.706c-1.658-0.033-3.249,0.894-3.992,2.498c-0.743,1.594-0.419,3.424,0.68,4.663
			c-1.637,0.226-3.079,1.4-3.553,3.091c-0.485,1.701,0.119,3.446,1.4,4.501c-1.594,0.485-2.821,1.863-3.036,3.607
			c-0.204,1.744,0.657,3.371,2.079,4.221c-1.454,0.689-2.455,2.165-2.455,3.888c0,1.647,0.915,3.08,2.283,3.801
			c-1.368,0.721-2.283,2.154-2.283,3.801c0,1.647,0.915,3.079,2.283,3.801c-1.368,0.721-2.283,2.154-2.283,3.801
			c0,1.648,0.915,3.08,2.283,3.812c-1.368,0.722-2.283,2.154-2.283,3.801c0,1.647,0.915,3.08,2.283,3.801
			c-1.368,0.721-2.283,2.154-2.283,3.801c0,1.647,0.915,3.079,2.283,3.801c-1.368,0.721-2.283,2.154-2.283,3.802
			c0,1.647,0.926,3.08,2.283,3.812c-1.357,0.721-2.283,2.154-2.283,3.801c0,1.699,0.991,3.154,2.42,3.855
			c-0.173,0.083-0.35,0.16-0.503,0.27c-0.237,0.151-0.463,0.334-0.657,0.527c-0.204,0.205-0.376,0.42-0.538,0.657
			c-0.15,0.237-0.291,0.484-0.398,0.743c-0.108,0.258-0.184,0.538-0.237,0.808c-0.065,0.28-0.086,0.56-0.086,0.84
			c0,0.28,0.021,0.571,0.086,0.84c0.054,0.28,0.129,0.549,0.237,0.808c0.107,0.258,0.248,0.517,0.398,0.743
			c0.162,0.237,0.334,0.463,0.538,0.657c0.194,0.194,0.42,0.377,0.657,0.538c0.226,0.151,0.484,0.291,0.743,0.399
			c0.258,0.108,0.527,0.183,0.808,0.237c0.269,0.054,0.56,0.086,0.84,0.086c0.28,0,0.56-0.032,0.84-0.086
			c0.269-0.054,0.549-0.129,0.808-0.237c0.258-0.108,0.506-0.248,0.743-0.399c0.237-0.161,0.452-0.344,0.657-0.538
			c0.194-0.194,0.377-0.42,0.528-0.657c0.161-0.226,0.291-0.485,0.398-0.743c0.108-0.259,0.194-0.528,0.248-0.808
			c0.043-0.213,0.058-0.442,0.068-0.666c1.648,1.012,3.827,0.835,5.273-0.583c1.292-1.271,1.615-3.166,0.948-4.738
			c1.637,0.301,3.37-0.355,4.361-1.809c0.958-1.421,0.969-3.219,0.151-4.609c1.594,0.097,3.176-0.711,4.006-2.197
			c0.819-1.475,0.679-3.23-0.205-4.533c1.572-0.022,3.08-0.905,3.812-2.412c0.743-1.497,0.054-3.219-0.883-4.48
			c1.562-0.086,2.231-1.023,3.231-2.552v0.011c1-1.389,0.904-2.918,0.14-4.103c1.378,0,2.966-0.657,3.796-1.873
			c0.84-1.217,1.074-2.714,0.578-3.995c1.346,0.291,2.858-0.076,3.934-1.098c1.066-1.012,1.526-2.455,1.3-3.812
			c1.26,0.56,2.771,0.506,4.031-0.269c1.26-0.775,1.988-2.1,2.053-3.468c1.109,0.797,2.588,1.055,3.988,0.56
			c1.389-0.506,2.36-1.647,2.705-2.983c0.926,1.012,2.316,1.572,3.78,1.368c1.465-0.205,2.65-1.131,3.264-2.358
			c0.7,1.185,1.949,2.014,3.414,2.122c1.475,0.097,2.821-0.55,3.683-1.626c0.431,1.303,1.475,2.369,2.897,2.778
			c1.465,0.42,2.961,0.032,4.028-0.904c0.193,1.475,1.163,2.81,2.638,3.414c1.615,0.657,3.393,0.269,4.577-0.851
			c0.302,1.658,1.562,3.058,3.306,3.446c1.755,0.398,3.5-0.345,4.469-1.723c0.625,1.572,2.154,2.692,3.941,2.714
			c1.798,0.021,3.349-1.055,4.017-2.617c0.937,1.411,2.66,2.186,4.425,1.841c1.767-0.344,3.059-1.723,3.392-3.381
			c1.206,1.185,3.048,1.594,4.706,0.883c1.422-0.603,2.347-1.884,2.563-3.306c1.034,0.926,2.476,1.346,3.919,0.991
			c1.432-0.355,2.521-1.389,3.004-2.671c0.808,1.098,2.143,1.809,3.618,1.755c1.475-0.043,2.746-0.829,3.489-1.992
			c0.571,1.249,1.723,2.207,3.177,2.466c1.453,0.258,2.863-0.248,3.833-1.228c0.291,1.346,1.227,2.52,2.595,3.069
			c1.379,0.549,2.865-0.004,4.006-0.758c0.01,1.368,0.678,2.183,1.906,3.183h0.011c1.227,1,2.713,1.274,3.995,0.768
			c-0.269,1.346,0.107,2.974,1.13,4.029c1.034,1.055,2.466,1.551,3.823,1.325c-0.549,1.26-0.484,2.8,0.302,4.049
			c0.797,1.26,2.143,2.004,3.543,2.036c-0.84,1.206-1.044,2.832-0.377,4.275c0.71,1.529,2.197,2.45,3.769,2.504
			c-0.916,1.292-1.088,3.039-0.291,4.525c0.797,1.507,2.347,2.338,3.941,2.284c-0.84,1.368-0.883,3.145,0.043,4.588
			c0.926,1.453,2.595,2.164,4.2,1.949c-0.711,1.475-0.538,3.306,0.581,4.641c1.163,1.389,3.004,1.852,4.631,1.336
			c-0.464,1.69,0.15,3.553,1.658,4.63c0.753,0.538,1.636,0.797,2.497,0.797c1.012,0,2.011-0.354,2.802-1.032
			c0.123,0.94,0.537,1.829,1.205,2.496c0.204,0.194,0.419,0.377,0.656,0.538c0.238,0.151,0.485,0.291,0.743,0.399
			c0.259,0.108,0.538,0.183,0.808,0.237c0.28,0.065,0.56,0.086,0.84,0.086c1.141,0,2.25-0.452,3.046-1.26
			c0.808-0.797,1.261-1.916,1.261-3.048c0-1.13-0.453-2.24-1.261-3.048c-0.31-0.307-0.671-0.556-1.057-0.755
			c1.372-0.72,2.318-2.142,2.318-3.799c0-1.647-0.916-3.08-2.283-3.801c1.367-0.732,2.283-2.165,2.283-3.801
			c0-1.647-0.916-3.08-2.283-3.812c1.367-0.721,2.283-2.154,2.283-3.801s-0.916-3.079-2.283-3.801
			c1.367-0.722,2.283-2.154,2.283-3.801c0-1.647-0.916-3.08-2.283-3.801c1.367-0.732,2.283-2.165,2.283-3.801
			c0-1.647-0.916-3.08-2.283-3.812C341.072,133.598,341.988,132.166,341.988,130.519z"/>
		<path style="opacity:0.4;fill:#6B4309;" d="M156.709,122.82c0,1.647,0.915,3.08,2.283,3.801c-1.367,0.721-2.283,2.154-2.283,3.801
			c0,0.659,0.152,1.28,0.415,1.838c1.785-4.792,3.807-9.516,6.063-14.152c5.709-11.73,13.693-23.255,23.618-31.792
			c9.673-8.321,19.926-13.753,31.586-16.714c-0.793-0.888-1.939-1.453-3.221-1.453c-1.647,0-3.091,0.937-3.812,2.304
			c-0.754-1.4-2.272-2.326-3.973-2.25c-1.755,0.076-3.23,1.195-3.834,2.735c-0.947-1.357-2.638-2.1-4.372-1.745
			c-1.734,0.345-3.004,1.691-3.359,3.306c-1.152-1.196-2.951-1.658-4.598-1.045c-1.658,0.614-3.027,2.132-3.113,3.79
			c-1.335-0.991-4-1.174-5.03-0.312v0.011c-1.03,0.861-2.024,2.53-1.851,4.178c-1.464-0.776-3.16-0.668-4.538,0.42
			c-1.389,1.099-1.839,2.864-1.419,4.469c-1.572-0.538-3.331-0.151-4.537,1.152c-1.195,1.292-1.423,3.123-0.766,4.641
			c-1.626-0.291-3.339,0.377-4.33,1.841c-0.98,1.464-0.932,3.306-0.049,4.706c-1.658-0.033-3.25,0.894-3.993,2.498
			c-0.743,1.594-0.419,3.424,0.68,4.663c-1.637,0.226-3.079,1.4-3.553,3.091c-0.485,1.701,0.119,3.446,1.4,4.501
			c-1.594,0.485-2.821,1.863-3.036,3.607c-0.205,1.745,0.657,3.371,2.078,4.221C157.711,119.621,156.709,121.097,156.709,122.82z"/>
		<path style="opacity:0.7;fill:#6B4309;" d="M224.108,68.365c-0.418-0.136-0.862-0.216-1.325-0.216c-1.091,0-2.082,0.412-2.84,1.08
			C221.312,68.911,222.698,68.618,224.108,68.365z"/>
		<path style="opacity:0.4;fill:#6B4309;" d="M332.465,113.858c3.407,6.39,6.074,12.997,8.215,19.75
			c0.808-0.782,1.307-1.876,1.307-3.089c0-1.648-0.916-3.08-2.283-3.802c1.367-0.721,2.283-2.154,2.283-3.801
			c0-1.712-1.002-3.198-2.445-3.887c1.422-0.84,2.283-2.466,2.078-4.21c-0.204-1.755-1.443-3.134-3.026-3.618
			c1.281-1.055,1.895-2.8,1.41-4.49c-0.473-1.701-1.731-2.876-3.368-3.102c1.099-1.238,0.875-3.069,0.875-4.662v-0.011
			c-1.03-1.594-2.522-2.531-4.181-2.498c0.894-1.4,0.834-3.252-0.146-4.717c-0.98-1.464-2.749-2.132-4.375-1.841
			c0.656-1.518,0.386-3.359-0.81-4.652c-1.195-1.292-3.004-1.69-4.577-1.152c0.42-1.605-0.114-3.371-1.493-4.469
			c-1.378-1.098-3.222-1.206-4.687-0.441c0.162-1.648-0.637-3.317-2.166-4.178c-1.541-0.872-3.383-0.689-4.706,0.291
			c-0.097-1.648-1.142-3.166-2.789-3.79c-1.658-0.614-3.446-0.151-4.599,1.034c-0.355-1.615-1.626-2.961-3.36-3.306
			c-1.722-0.355-3.424,0.377-4.372,1.734c-0.603-1.54-2.067-2.671-3.834-2.746c-1.077-0.048-2.079,0.308-2.861,0.929
			C307.332,78.159,323.137,96.363,332.465,113.858z"/>
		
			<ellipse transform="matrix(0.9871 -0.1604 0.1604 0.9871 -22.3608 42.0503)" style="fill:#FFAA00;" cx="249.349" cy="159.565" rx="8.693" ry="8.693"/>
		<path style="opacity:0.7;fill:#FFFFFF;" d="M250.227,150.926c-0.428-0.043-0.861-0.066-1.304-0.044
			c-4.796,0.235-8.493,4.313-8.257,9.109c0.235,4.796,4.313,8.492,9.109,8.257c0.169-0.008,0.334-0.032,0.501-0.05
			C241.109,166.929,240.671,152.357,250.227,150.926z"/>
		
			<linearGradient id="SVGID_00000176010565252744215880000003913110645889678506_" gradientUnits="userSpaceOnUse" x1="253.6983" y1="168.5042" x2="253.6983" y2="151.3065" gradientTransform="matrix(0.9988 -0.049 0.049 0.9988 -7.2409 12.1199)">
			<stop  offset="0" style="stop-color:#FF7400"/>
			<stop  offset="0.5903" style="stop-color:#FFAA00"/>
		</linearGradient>
		<path style="fill:url(#SVGID_00000176010565252744215880000003913110645889678506_);" d="M250.567,150.961
			c6.041,3.574,6.188,13.805-0.204,17.228c4.504-0.526,7.894-4.454,7.669-9.05C257.824,154.904,254.617,151.53,250.567,150.961z"/>
		<path style="fill:none;stroke:#FF7C7B;stroke-width:2;stroke-linecap:round;stroke-miterlimit:10;" d="M227.963,224.595
			L227.963,224.595c13.62,5.916,29.079,5.95,42.725,0.094l0.219-0.094"/>
		<g>
			
				<radialGradient id="SVGID_00000023967013333081083320000000393124672388935575_" cx="250" cy="318.7312" r="43.645" gradientUnits="userSpaceOnUse">
				<stop  offset="0.5986" style="stop-color:#FFCD69"/>
				<stop  offset="0.67" style="stop-color:#FFC551;stop-opacity:0.8221"/>
				<stop  offset="0.8176" style="stop-color:#FFB625;stop-opacity:0.4543"/>
				<stop  offset="0.9326" style="stop-color:#FFAD0A;stop-opacity:0.1679"/>
				<stop  offset="1" style="stop-color:#FFAA00;stop-opacity:0"/>
			</radialGradient>
			<circle style="fill:url(#SVGID_00000023967013333081083320000000393124672388935575_);" cx="250" cy="318.731" r="43.645"/>
			<path style="fill:#FF7C7B;" d="M262.988,296.775c-5.826,0-10.902,3.164-13.64,7.858c-2.738-4.694-7.814-7.858-13.64-7.858
				c-8.722,0-15.793,7.071-15.793,15.793c0,3.991,1.48,7.636,3.921,10.416c2.895,3.297,25.512,26.196,25.512,26.196
				s21.949-22.586,24.807-25.444c2.858-2.858,4.626-6.806,4.626-11.168C278.782,303.845,271.711,296.775,262.988,296.775z"/>
			<path style="opacity:0.6;fill:#F5504C;" d="M248.627,339.957c-3.733,0.167-7.532-0.841-10.983-2.673
				c6.029,6.15,11.705,11.897,11.705,11.897s7.636-7.858,14.487-14.891C259.874,337.631,254.733,339.683,248.627,339.957z"/>
			<path style="opacity:0.6;fill:#F5504C;" d="M229.265,305.345c3.928-4.279,10.515-6.025,16.429-4.988
				c-2.718-2.234-6.19-3.582-9.985-3.582c-8.722,0-15.793,7.071-15.793,15.793c0,3.991,1.48,7.636,3.921,10.416
				c0.312,0.355,0.859,0.944,1.576,1.701C222.907,318.223,224.017,311.063,229.265,305.345z"/>
			<path style="opacity:0.6;fill:#F5504C;" d="M269.432,305.345c-3.928-4.279-10.515-6.025-16.429-4.988
				c2.719-2.234,6.19-3.582,9.985-3.582c8.722,0,15.793,7.071,15.793,15.793c0,3.991-1.48,7.636-3.921,10.416
				c-0.311,0.355-0.859,0.944-1.576,1.701C275.791,318.223,274.681,311.063,269.432,305.345z"/>
			<path style="fill:#FFFFFF;" d="M237.32,308.608c-0.227-2.631-2.264-4.509-4.906-4.509c-1.154,0-2.451,0.65-3.23,1.476
				c-0.803,0.851-1.382,2.245-1.279,3.43c0.227,2.631,2.264,4.509,4.906,4.509c1.154,0,2.451-0.65,3.23-1.476
				C236.843,311.187,237.422,309.794,237.32,308.608z"/>
			<path style="fill:#FFFFFF;" d="M248.116,332.12c-1.509-2.579-3.915-4.458-5.753-6.795c-1.487-1.892-2.804-5.384-5.075-6.348
				c-0.722-0.306-1.56-0.155-1.963,0.585c-1.465,2.693,0.877,6.884,2.344,9.181c1.899,2.973,4.501,5.904,8.03,6.765
				C247.644,335.983,249.081,333.77,248.116,332.12z"/>
		</g>
	</g>
</g>
<g id="DESIGNED_BY_FREEPIK">
	<g id="XMLID_76_">
		<g id="XMLID_929_">
			<path id="XMLID_958_" style="fill:#6B411E;" d="M181.087,472.277c-0.246,0-0.435,0.085-0.567,0.255
				c-0.133,0.17-0.199,0.421-0.199,0.753v2.392c-0.305-0.331-0.617-0.578-0.937-0.739c-0.321-0.159-0.715-0.24-1.182-0.24
				c-0.807,0-1.458,0.283-1.953,0.848c-0.494,0.566-0.742,1.356-0.742,2.369c0,0.478,0.063,0.923,0.187,1.335
				c0.124,0.412,0.307,0.77,0.549,1.074c0.241,0.305,0.527,0.539,0.857,0.704c0.33,0.164,0.689,0.246,1.078,0.246
				c0.293,0,0.563-0.04,0.809-0.122c0.248-0.081,0.477-0.199,0.689-0.356c0.212-0.156,0.427-0.359,0.644-0.608v0.16
				c0,0.297,0.072,0.525,0.217,0.685c0.145,0.161,0.328,0.241,0.549,0.241c0.226,0,0.409-0.078,0.552-0.231
				c0.143-0.154,0.214-0.386,0.214-0.694v-7.146c0-0.305-0.066-0.534-0.199-0.691C181.521,472.355,181.332,472.277,181.087,472.277z
				 M180.021,479.117c-0.14,0.306-0.328,0.533-0.563,0.682c-0.236,0.149-0.496,0.223-0.781,0.223c-0.281,0-0.539-0.079-0.777-0.236
				c-0.237-0.155-0.424-0.387-0.561-0.696c-0.136-0.309-0.204-0.682-0.204-1.122c0-0.416,0.063-0.781,0.193-1.095
				c0.128-0.315,0.309-0.556,0.543-0.724c0.233-0.168,0.499-0.253,0.795-0.253c0.285,0,0.547,0.082,0.786,0.246
				c0.239,0.165,0.429,0.402,0.569,0.712c0.141,0.311,0.21,0.682,0.21,1.114C180.232,478.427,180.162,478.81,180.021,479.117z"/>
			<path id="XMLID_954_" style="fill:#6B411E;" d="M188.452,478.197c0.233-0.122,0.35-0.385,0.35-0.793
				c0-0.438-0.114-0.87-0.339-1.294c-0.225-0.423-0.564-0.769-1.018-1.035c-0.453-0.268-0.996-0.4-1.628-0.4
				c-0.487,0-0.93,0.078-1.33,0.234c-0.4,0.157-0.737,0.381-1.009,0.674c-0.273,0.293-0.48,0.644-0.623,1.054
				c-0.143,0.409-0.214,0.853-0.214,1.332c0,1.017,0.289,1.822,0.867,2.415c0.577,0.592,1.387,0.89,2.427,0.89
				c0.455,0,0.858-0.059,1.207-0.178c0.352-0.12,0.641-0.268,0.873-0.448c0.231-0.18,0.404-0.368,0.519-0.564
				c0.115-0.197,0.172-0.367,0.172-0.514c0-0.166-0.052-0.294-0.155-0.386c-0.102-0.09-0.237-0.137-0.403-0.137
				c-0.154,0-0.273,0.035-0.356,0.107c-0.203,0.19-0.366,0.34-0.493,0.452c-0.126,0.111-0.265,0.215-0.415,0.312
				c-0.15,0.098-0.305,0.167-0.466,0.214c-0.16,0.045-0.337,0.067-0.531,0.067c-0.289,0-0.553-0.07-0.792-0.213
				c-0.239-0.142-0.432-0.354-0.576-0.635c-0.145-0.281-0.219-0.605-0.222-0.973h3.168
				C187.89,478.378,188.219,478.318,188.452,478.197z M184.297,477.458c0.056-0.546,0.212-0.959,0.472-1.238
				c0.259-0.279,0.59-0.418,0.994-0.418c0.423,0,0.764,0.137,1.024,0.412c0.259,0.275,0.409,0.69,0.448,1.244H184.297z"/>
			<path id="XMLID_952_" style="fill:#6B411E;" d="M193.879,477.76c-0.319-0.17-0.729-0.316-1.231-0.439
				c-0.425-0.103-0.756-0.19-0.997-0.261c-0.242-0.07-0.434-0.161-0.577-0.27c-0.142-0.109-0.213-0.248-0.213-0.419
				c0-0.186,0.096-0.341,0.29-0.465c0.194-0.126,0.437-0.187,0.73-0.187c0.286,0,0.511,0.047,0.677,0.142
				c0.166,0.095,0.31,0.222,0.433,0.38c0.151,0.19,0.284,0.332,0.401,0.427c0.116,0.095,0.258,0.143,0.423,0.143
				c0.231,0,0.408-0.06,0.532-0.178c0.124-0.119,0.186-0.272,0.186-0.457c0-0.171-0.058-0.345-0.175-0.523
				c-0.116-0.178-0.286-0.34-0.51-0.486c-0.223-0.146-0.502-0.264-0.837-0.35c-0.333-0.088-0.71-0.131-1.13-0.131
				c-0.535,0-0.99,0.085-1.367,0.259c-0.378,0.172-0.665,0.403-0.859,0.691c-0.194,0.289-0.291,0.596-0.291,0.92
				c0,0.364,0.105,0.671,0.315,0.92c0.21,0.249,0.489,0.45,0.84,0.602c0.35,0.152,0.804,0.298,1.362,0.436
				c0.494,0.12,0.849,0.244,1.066,0.375c0.216,0.131,0.323,0.338,0.323,0.622c0,0.187-0.104,0.352-0.311,0.497
				c-0.208,0.144-0.474,0.216-0.798,0.216c-0.4,0-0.715-0.071-0.947-0.213c-0.231-0.143-0.431-0.358-0.597-0.648
				c-0.082-0.15-0.17-0.267-0.261-0.35c-0.091-0.082-0.221-0.125-0.391-0.125c-0.194,0-0.355,0.064-0.481,0.19
				c-0.128,0.126-0.19,0.278-0.19,0.457c0,0.27,0.099,0.537,0.297,0.805c0.198,0.266,0.505,0.489,0.92,0.667
				c0.415,0.178,0.914,0.267,1.495,0.267c0.61,0,1.127-0.082,1.552-0.246c0.425-0.164,0.747-0.406,0.964-0.724
				c0.218-0.319,0.327-0.702,0.327-1.149c0-0.297-0.082-0.56-0.246-0.791C194.438,478.131,194.196,477.93,193.879,477.76z"/>
			<path id="XMLID_950_" style="fill:#6B411E;" d="M196.486,474.686c-0.237,0-0.43,0.081-0.578,0.243
				c-0.149,0.162-0.222,0.404-0.222,0.724v4.635c0,0.317,0.073,0.56,0.222,0.73c0.148,0.17,0.341,0.255,0.578,0.255
				c0.238,0,0.433-0.083,0.588-0.249c0.154-0.166,0.231-0.412,0.231-0.737v-4.682c0-0.289-0.077-0.514-0.231-0.677
				C196.919,474.767,196.724,474.686,196.486,474.686z"/>
			<path id="XMLID_949_" style="fill:#6B411E;" d="M196.504,472.348c-0.217,0-0.409,0.073-0.573,0.223
				c-0.164,0.149-0.246,0.337-0.246,0.567c0,0.254,0.08,0.45,0.24,0.588c0.16,0.139,0.353,0.208,0.579,0.208
				c0.217,0,0.405-0.071,0.563-0.211c0.158-0.14,0.238-0.335,0.238-0.585c0-0.258-0.081-0.453-0.243-0.588
				C196.9,472.415,196.714,472.348,196.504,472.348z"/>
			<path id="XMLID_945_" style="fill:#6B411E;" d="M203.626,474.686c-0.217,0-0.395,0.077-0.535,0.231
				c-0.139,0.155-0.208,0.372-0.208,0.653v0.22c-0.289-0.376-0.602-0.652-0.937-0.829c-0.337-0.175-0.735-0.264-1.194-0.264
				c-0.384,0-0.736,0.068-1.056,0.204c-0.32,0.137-0.604,0.34-0.849,0.609c-0.245,0.269-0.433,0.599-0.566,0.992
				c-0.133,0.391-0.199,0.831-0.199,1.318c0,0.653,0.109,1.228,0.327,1.727c0.217,0.499,0.529,0.886,0.934,1.163
				c0.407,0.277,0.88,0.416,1.422,0.416c0.45,0,0.84-0.091,1.165-0.273c0.327-0.182,0.615-0.447,0.864-0.796
				c-0.008,0.531-0.02,0.915-0.035,1.155c-0.016,0.24-0.07,0.464-0.163,0.673c-0.093,0.21-0.255,0.374-0.486,0.49
				c-0.231,0.117-0.557,0.175-0.977,0.175c-0.205,0-0.388-0.02-0.546-0.056c-0.159-0.038-0.294-0.095-0.406-0.172
				c-0.112-0.078-0.216-0.17-0.309-0.279c-0.093-0.109-0.183-0.217-0.27-0.324c-0.178-0.209-0.386-0.314-0.624-0.314
				c-0.189,0-0.352,0.062-0.486,0.187c-0.135,0.124-0.202,0.285-0.202,0.483c0,0.262,0.119,0.516,0.356,0.763
				c0.238,0.247,0.576,0.448,1.014,0.605c0.439,0.156,0.938,0.234,1.496,0.234c0.609,0,1.119-0.061,1.528-0.184
				c0.409-0.122,0.741-0.311,0.994-0.563c0.253-0.254,0.437-0.574,0.552-0.961c0.115-0.389,0.173-0.851,0.173-1.389v-4.706
				c0-0.384-0.051-0.678-0.155-0.882C204.146,474.789,203.938,474.686,203.626,474.686z M202.599,479.052
				c-0.151,0.29-0.345,0.508-0.586,0.653c-0.239,0.144-0.493,0.217-0.762,0.217c-0.455,0-0.826-0.168-1.113-0.505
				c-0.287-0.336-0.43-0.834-0.43-1.49c0-0.649,0.139-1.15,0.418-1.502s0.649-0.528,1.113-0.528c0.475,0,0.857,0.184,1.148,0.553
				c0.291,0.367,0.436,0.882,0.436,1.543C202.825,478.408,202.749,478.76,202.599,479.052z"/>
			<path id="XMLID_944_" style="fill:#6B411E;" d="M210.978,475.754c-0.165-0.339-0.417-0.602-0.753-0.788
				c-0.337-0.186-0.718-0.28-1.146-0.28c-0.439,0-0.827,0.088-1.166,0.264c-0.339,0.176-0.65,0.452-0.935,0.828v-0.196
				c0-0.193-0.034-0.358-0.104-0.493c-0.07-0.134-0.162-0.234-0.276-0.302c-0.115-0.068-0.244-0.101-0.387-0.101
				c-0.233,0-0.417,0.076-0.552,0.228c-0.134,0.153-0.201,0.383-0.201,0.692v4.682c0,0.317,0.076,0.56,0.226,0.73
				c0.15,0.17,0.342,0.255,0.576,0.255c0.241,0,0.438-0.082,0.59-0.246c0.152-0.164,0.228-0.411,0.228-0.74v-2.03
				c0-0.661,0.04-1.111,0.119-1.353c0.11-0.3,0.284-0.537,0.522-0.71c0.237-0.173,0.5-0.258,0.788-0.258
				c0.444,0,0.74,0.142,0.888,0.425c0.148,0.283,0.223,0.691,0.223,1.225v2.7c0,0.317,0.074,0.56,0.226,0.73
				c0.15,0.17,0.345,0.255,0.587,0.255c0.238,0,0.431-0.083,0.579-0.249c0.149-0.166,0.223-0.412,0.223-0.737v-3.015
				c0-0.356-0.016-0.648-0.048-0.878C211.155,476.166,211.085,475.952,210.978,475.754z"/>
			<path id="XMLID_939_" style="fill:#6B411E;" d="M217.821,478.197c0.234-0.122,0.35-0.385,0.35-0.793
				c0-0.438-0.113-0.87-0.338-1.294c-0.226-0.423-0.565-0.769-1.019-1.035c-0.453-0.268-0.995-0.4-1.628-0.4
				c-0.487,0-0.93,0.078-1.33,0.234c-0.4,0.157-0.736,0.381-1.009,0.674c-0.273,0.293-0.481,0.644-0.624,1.054
				c-0.142,0.409-0.214,0.853-0.214,1.332c0,1.017,0.289,1.822,0.867,2.415c0.578,0.592,1.387,0.89,2.427,0.89
				c0.455,0,0.858-0.059,1.208-0.178c0.35-0.12,0.64-0.268,0.871-0.448c0.232-0.18,0.405-0.368,0.52-0.564
				c0.115-0.197,0.172-0.367,0.172-0.514c0-0.166-0.051-0.294-0.154-0.386c-0.103-0.09-0.238-0.137-0.404-0.137
				c-0.154,0-0.273,0.035-0.356,0.107c-0.201,0.19-0.366,0.34-0.492,0.452c-0.128,0.111-0.266,0.215-0.416,0.312
				c-0.151,0.098-0.306,0.167-0.466,0.214c-0.161,0.045-0.338,0.067-0.532,0.067c-0.289,0-0.553-0.07-0.792-0.213
				c-0.239-0.142-0.431-0.354-0.575-0.635c-0.145-0.281-0.218-0.605-0.223-0.973h3.169
				C217.26,478.378,217.588,478.318,217.821,478.197z M213.667,477.458c0.055-0.546,0.212-0.959,0.471-1.238
				c0.259-0.279,0.591-0.418,0.995-0.418c0.423,0,0.765,0.137,1.024,0.412c0.259,0.275,0.409,0.69,0.448,1.244H213.667z"/>
			<path id="XMLID_936_" style="fill:#6B411E;" d="M224.207,472.277c-0.245,0-0.434,0.085-0.567,0.255
				c-0.132,0.17-0.2,0.421-0.2,0.753v2.392c-0.304-0.331-0.616-0.578-0.937-0.739c-0.32-0.159-0.714-0.24-1.181-0.24
				c-0.807,0-1.458,0.283-1.953,0.848c-0.495,0.566-0.741,1.356-0.741,2.369c0,0.478,0.062,0.923,0.187,1.335
				c0.124,0.412,0.307,0.77,0.549,1.074c0.241,0.305,0.527,0.539,0.857,0.704c0.33,0.164,0.689,0.246,1.077,0.246
				c0.293,0,0.563-0.04,0.81-0.122c0.247-0.081,0.476-0.199,0.688-0.356c0.211-0.156,0.426-0.359,0.643-0.608v0.16
				c0,0.297,0.073,0.525,0.217,0.685c0.145,0.161,0.328,0.241,0.549,0.241c0.226,0,0.41-0.078,0.552-0.231
				c0.143-0.154,0.214-0.386,0.214-0.694v-7.146c0-0.305-0.066-0.534-0.199-0.691C224.64,472.355,224.452,472.277,224.207,472.277z
				 M223.141,479.117c-0.14,0.306-0.328,0.533-0.564,0.682c-0.235,0.149-0.495,0.223-0.781,0.223c-0.281,0-0.54-0.079-0.776-0.236
				c-0.238-0.155-0.425-0.387-0.561-0.696c-0.137-0.309-0.205-0.682-0.205-1.122c0-0.416,0.064-0.781,0.193-1.095
				c0.129-0.315,0.31-0.556,0.543-0.724c0.233-0.168,0.499-0.253,0.795-0.253c0.285,0,0.547,0.082,0.787,0.246
				c0.239,0.165,0.43,0.402,0.57,0.712c0.14,0.311,0.21,0.682,0.21,1.114C223.352,478.427,223.281,478.81,223.141,479.117z"/>
			<path id="XMLID_933_" style="fill:#6B411E;" d="M233.586,475.08c-0.406-0.254-0.878-0.382-1.416-0.382
				c-0.467,0-0.859,0.084-1.175,0.252c-0.317,0.168-0.627,0.411-0.932,0.727v-2.475c0-0.297-0.068-0.524-0.202-0.685
				c-0.134-0.16-0.326-0.24-0.576-0.24c-0.237,0-0.423,0.084-0.555,0.252c-0.132,0.168-0.198,0.416-0.198,0.744v7.075
				c0,0.305,0.068,0.535,0.205,0.692c0.136,0.156,0.319,0.234,0.549,0.234c0.226,0,0.412-0.078,0.558-0.234
				c0.146-0.157,0.22-0.388,0.22-0.692v-0.16c0.178,0.205,0.322,0.361,0.43,0.463c0.109,0.103,0.241,0.203,0.395,0.3
				c0.154,0.098,0.341,0.175,0.561,0.234c0.22,0.06,0.454,0.089,0.704,0.089c0.407,0,0.781-0.082,1.118-0.246
				c0.338-0.164,0.626-0.397,0.864-0.698c0.237-0.3,0.418-0.656,0.543-1.065c0.125-0.41,0.187-0.859,0.187-1.35
				c0-0.665-0.112-1.241-0.336-1.725C234.305,475.706,233.991,475.336,233.586,475.08z M232.796,479.491
				c-0.295,0.354-0.646,0.531-1.053,0.531c-0.479,0-0.866-0.174-1.161-0.52c-0.295-0.346-0.442-0.841-0.442-1.487
				c0-0.439,0.069-0.818,0.208-1.136c0.138-0.319,0.328-0.562,0.57-0.73c0.24-0.168,0.516-0.253,0.825-0.253
				c0.3,0,0.564,0.085,0.79,0.253c0.225,0.168,0.399,0.406,0.522,0.715c0.123,0.308,0.184,0.677,0.184,1.104
				C233.238,478.629,233.09,479.136,232.796,479.491z"/>
			<path id="XMLID_931_" style="fill:#6B411E;" d="M240.529,474.784c-0.112-0.066-0.23-0.098-0.353-0.098
				c-0.171,0-0.303,0.03-0.395,0.09c-0.093,0.058-0.181,0.173-0.264,0.344c-0.083,0.17-0.176,0.406-0.279,0.706l-1.3,3.71
				l-1.371-3.989c-0.091-0.277-0.195-0.489-0.314-0.638c-0.119-0.148-0.295-0.223-0.529-0.223c-0.135,0-0.264,0.035-0.389,0.107
				c-0.124,0.071-0.222,0.166-0.294,0.285c-0.071,0.118-0.107,0.247-0.107,0.385c0,0.13,0.062,0.341,0.184,0.629l1.994,5.022
				l-0.148,0.362c-0.111,0.265-0.209,0.466-0.294,0.601c-0.085,0.138-0.181,0.234-0.288,0.289c-0.107,0.056-0.254,0.084-0.44,0.084
				c-0.074,0-0.163-0.012-0.266-0.035c-0.083-0.024-0.168-0.037-0.256-0.037c-0.221,0-0.388,0.051-0.5,0.152
				c-0.114,0.101-0.17,0.245-0.17,0.43c0,0.273,0.118,0.461,0.356,0.564c0.237,0.103,0.593,0.154,1.068,0.154
				c0.487,0,0.873-0.074,1.161-0.223c0.287-0.148,0.517-0.361,0.691-0.638c0.174-0.277,0.353-0.658,0.535-1.145l2.113-5.532
				c0.051-0.142,0.095-0.283,0.13-0.421c0.037-0.139,0.061-0.246,0.078-0.321c0-0.123-0.032-0.239-0.093-0.35
				C240.729,474.937,240.642,474.849,240.529,474.784z"/>
		</g>
		<g id="XMLID_365_">
			<g id="XMLID_380_">
				<path id="XMLID_928_" style="fill:#6B411E;" d="M262.93,472.272c-0.533,0-0.954,0.069-1.26,0.204
					c-0.307,0.137-0.527,0.354-0.654,0.652c-0.129,0.301-0.191,0.702-0.191,1.211v0.487h-0.387c-0.543,0-0.815,0.192-0.815,0.582
					c0,0.174,0.066,0.316,0.196,0.423c0.132,0.111,0.316,0.164,0.558,0.164h0.447v4.294c0,0.319,0.074,0.563,0.227,0.73
					c0.154,0.17,0.344,0.254,0.574,0.254c0.243,0,0.438-0.084,0.589-0.254c0.156-0.167,0.231-0.411,0.231-0.73v-4.294h0.395
					c0.29,0,0.517-0.035,0.68-0.107c0.166-0.071,0.245-0.24,0.245-0.502c0-0.374-0.306-0.56-0.926-0.56h-0.395v-0.386
					c0-0.322,0.043-0.568,0.122-0.74c0.087-0.172,0.273-0.259,0.566-0.259c0.107,0,0.241,0.014,0.389,0.034
					c0.156,0.026,0.267,0.038,0.33,0.038c0.134,0,0.252-0.054,0.348-0.16c0.101-0.107,0.15-0.236,0.15-0.384
					C264.35,472.502,263.879,472.272,262.93,472.272z"/>
				<path id="XMLID_926_" style="fill:#6B411E;" d="M268.089,474.938c-0.32-0.171-0.648-0.255-0.99-0.255
					c-0.342,0-0.611,0.084-0.818,0.255c-0.203,0.171-0.4,0.421-0.592,0.755c-0.014-0.334-0.08-0.584-0.198-0.755
					c-0.119-0.171-0.312-0.255-0.583-0.255c-0.525,0-0.788,0.364-0.788,1.093v4.513c0,0.323,0.078,0.569,0.225,0.733
					c0.15,0.168,0.34,0.25,0.579,0.25c0.237,0,0.432-0.081,0.586-0.246c0.151-0.163,0.234-0.41,0.234-0.737v-1.355
					c0-0.486,0.014-0.899,0.045-1.239c0.034-0.336,0.09-0.63,0.17-0.877c0.084-0.243,0.201-0.425,0.353-0.553
					c0.149-0.122,0.345-0.186,0.582-0.186c0.172,0,0.374,0.037,0.602,0.108c0.226,0.073,0.37,0.112,0.433,0.112
					c0.157,0,0.304-0.064,0.441-0.195c0.135-0.126,0.204-0.292,0.204-0.488C268.571,475.336,268.411,475.109,268.089,474.938z"/>
				<path id="XMLID_922_" style="fill:#6B411E;" d="M274.176,478.195c0.233-0.122,0.351-0.386,0.351-0.791
					c0-0.441-0.113-0.87-0.339-1.296c-0.222-0.423-0.566-0.77-1.018-1.034c-0.453-0.27-0.997-0.403-1.629-0.403
					c-0.488,0-0.931,0.078-1.33,0.233c-0.402,0.156-0.735,0.38-1.007,0.674c-0.276,0.295-0.484,0.643-0.624,1.055
					c-0.144,0.41-0.217,0.855-0.217,1.333c0,1.017,0.292,1.823,0.87,2.418c0.577,0.593,1.385,0.888,2.429,0.888
					c0.453,0,0.857-0.06,1.207-0.179c0.349-0.117,0.639-0.268,0.874-0.446c0.233-0.182,0.405-0.368,0.522-0.566
					c0.112-0.195,0.167-0.365,0.167-0.512c0-0.167-0.048-0.293-0.152-0.386c-0.105-0.092-0.238-0.139-0.406-0.139
					c-0.152,0-0.271,0.038-0.355,0.109c-0.202,0.189-0.367,0.34-0.494,0.449c-0.128,0.113-0.264,0.217-0.415,0.312
					c-0.15,0.097-0.307,0.17-0.466,0.213c-0.16,0.048-0.336,0.069-0.531,0.069c-0.29,0-0.552-0.069-0.793-0.212
					c-0.24-0.145-0.431-0.356-0.578-0.635c-0.144-0.281-0.216-0.606-0.221-0.974h3.171
					C273.615,478.377,273.943,478.316,274.176,478.195z M270.021,477.455c0.054-0.546,0.213-0.957,0.472-1.236
					c0.259-0.28,0.591-0.417,0.995-0.417c0.426,0,0.764,0.136,1.025,0.412c0.26,0.273,0.407,0.688,0.446,1.241H270.021z"/>
				<path id="XMLID_919_" style="fill:#6B411E;" d="M280.916,478.195c0.231-0.122,0.351-0.386,0.351-0.791
					c0-0.441-0.116-0.87-0.34-1.296c-0.222-0.423-0.563-0.77-1.013-1.034c-0.46-0.27-1.003-0.403-1.633-0.403
					c-0.486,0-0.932,0.078-1.33,0.233c-0.401,0.156-0.736,0.38-1.009,0.674c-0.273,0.295-0.481,0.643-0.622,1.055
					c-0.145,0.41-0.217,0.855-0.217,1.333c0,1.017,0.29,1.823,0.868,2.418c0.58,0.593,1.387,0.888,2.429,0.888
					c0.453,0,0.86-0.06,1.208-0.179c0.347-0.117,0.641-0.268,0.872-0.446c0.234-0.182,0.408-0.368,0.519-0.566
					c0.117-0.195,0.171-0.365,0.171-0.512c0-0.167-0.047-0.293-0.15-0.386c-0.104-0.092-0.238-0.139-0.406-0.139
					c-0.151,0-0.27,0.038-0.355,0.109c-0.203,0.189-0.368,0.34-0.492,0.449c-0.128,0.113-0.264,0.217-0.415,0.312
					c-0.152,0.097-0.307,0.17-0.469,0.213c-0.157,0.048-0.336,0.069-0.528,0.069c-0.291,0-0.555-0.069-0.795-0.212
					c-0.239-0.145-0.431-0.356-0.575-0.635c-0.144-0.281-0.218-0.606-0.222-0.974h3.17
					C280.354,478.377,280.682,478.316,280.916,478.195z M276.762,477.455c0.053-0.546,0.211-0.957,0.469-1.236
					c0.261-0.28,0.592-0.417,0.995-0.417c0.425,0,0.763,0.136,1.027,0.412c0.257,0.273,0.407,0.688,0.447,1.241H276.762z"/>
				<path id="XMLID_390_" style="fill:#6B411E;" d="M286.926,475.08c-0.42-0.256-0.882-0.386-1.379-0.386
					c-0.415,0-0.79,0.089-1.114,0.267c-0.331,0.176-0.649,0.452-0.952,0.827v-0.195c0-0.296-0.071-0.519-0.218-0.677
					c-0.143-0.156-0.329-0.234-0.56-0.234c-0.233,0-0.419,0.078-0.553,0.228c-0.134,0.155-0.2,0.382-0.2,0.692v6.995
					c0,0.354,0.051,0.62,0.146,0.807c0.102,0.183,0.301,0.275,0.607,0.275c0.518,0,0.778-0.359,0.778-1.069v-2.433
					c0.287,0.358,0.586,0.634,0.901,0.816c0.314,0.187,0.704,0.279,1.165,0.279c0.385,0,0.741-0.076,1.079-0.227
					c0.334-0.153,0.622-0.372,0.868-0.654c0.245-0.283,0.441-0.632,0.58-1.05c0.14-0.419,0.21-0.878,0.21-1.376
					c0-0.677-0.122-1.261-0.366-1.758C287.675,475.715,287.346,475.339,286.926,475.08z M286.451,479.083
					c-0.137,0.313-0.32,0.546-0.552,0.704c-0.229,0.154-0.48,0.233-0.748,0.233c-0.454,0-0.828-0.179-1.133-0.536
					c-0.306-0.358-0.46-0.862-0.46-1.504c0-0.686,0.154-1.204,0.462-1.558c0.306-0.35,0.684-0.527,1.13-0.527
					c0.281,0,0.541,0.084,0.77,0.248c0.229,0.163,0.411,0.397,0.541,0.705c0.13,0.306,0.197,0.674,0.197,1.101
					C286.658,478.391,286.589,478.77,286.451,479.083z"/>
				<path id="XMLID_389_" style="fill:#6B411E;" d="M289.9,474.683c-0.238,0-0.428,0.079-0.58,0.245
					c-0.146,0.162-0.222,0.403-0.222,0.721v4.642c0,0.313,0.076,0.555,0.222,0.729c0.152,0.17,0.342,0.254,0.58,0.254
					c0.238,0,0.432-0.082,0.588-0.25c0.154-0.165,0.231-0.41,0.231-0.732v-4.688c0-0.287-0.078-0.513-0.231-0.675
					C290.332,474.762,290.138,474.683,289.9,474.683z"/>
				<path id="XMLID_388_" style="fill:#6B411E;" d="M289.917,472.343c-0.217,0-0.408,0.076-0.571,0.223
					c-0.166,0.15-0.248,0.339-0.248,0.568c0,0.253,0.081,0.447,0.242,0.586c0.159,0.138,0.35,0.209,0.577,0.209
					c0.22,0,0.408-0.071,0.566-0.209c0.157-0.14,0.236-0.335,0.236-0.585c0-0.257-0.082-0.454-0.244-0.591
					C290.314,472.41,290.13,472.343,289.917,472.343z"/>
				<path id="XMLID_387_" style="fill:#6B411E;" d="M297.258,479.712l-1.662-2.614l0.86-0.789c0.438-0.396,0.659-0.714,0.659-0.951
					c0-0.192-0.068-0.355-0.2-0.483c-0.139-0.128-0.306-0.193-0.51-0.193c-0.168,0-0.312,0.043-0.431,0.13
					c-0.121,0.086-0.29,0.251-0.517,0.486l-1.822,1.914v-3.933c0-0.329-0.074-0.582-0.221-0.751
					c-0.148-0.171-0.344-0.257-0.593-0.257c-0.255,0-0.457,0.093-0.596,0.283c-0.135,0.189-0.207,0.462-0.207,0.821v6.913
					c0,0.323,0.073,0.569,0.215,0.733c0.141,0.168,0.339,0.25,0.588,0.25c0.213,0,0.406-0.084,0.566-0.254
					c0.165-0.167,0.248-0.406,0.248-0.718v-1.291l0.88-0.83l1.427,2.353c0.181,0.278,0.33,0.471,0.436,0.58
					c0.106,0.109,0.26,0.16,0.458,0.16c0.226,0,0.413-0.073,0.553-0.221c0.142-0.151,0.214-0.352,0.214-0.61
					c0-0.089-0.029-0.19-0.082-0.289C297.47,480.052,297.379,479.908,297.258,479.712z"/>
				<path id="XMLID_386_" style="fill:#6B411E;" d="M299.45,479.486c-0.25,0-0.458,0.087-0.63,0.261
					c-0.17,0.173-0.256,0.381-0.256,0.622c0,0.287,0.09,0.51,0.268,0.665c0.179,0.159,0.389,0.238,0.633,0.238
					c0.237,0,0.444-0.079,0.624-0.241c0.174-0.157,0.264-0.379,0.264-0.662c0-0.243-0.089-0.454-0.264-0.626
					C299.909,479.573,299.698,479.486,299.45,479.486z"/>
				<path id="XMLID_385_" style="fill:#6B411E;" d="M306.835,478.56c-0.167,0-0.308,0.054-0.422,0.156
					c-0.113,0.104-0.219,0.245-0.318,0.427c-0.178,0.309-0.381,0.538-0.616,0.689c-0.231,0.15-0.509,0.225-0.835,0.225
					c-0.24,0-0.463-0.045-0.665-0.141c-0.201-0.093-0.372-0.229-0.516-0.409c-0.143-0.18-0.252-0.398-0.325-0.652
					c-0.075-0.256-0.114-0.537-0.114-0.842c0-0.646,0.147-1.161,0.439-1.533c0.294-0.375,0.682-0.562,1.158-0.562
					c0.333,0,0.607,0.075,0.821,0.227c0.219,0.148,0.424,0.375,0.622,0.674c0.109,0.158,0.209,0.269,0.299,0.339
					c0.09,0.068,0.201,0.104,0.338,0.104c0.202,0,0.377-0.068,0.524-0.203c0.143-0.135,0.214-0.3,0.214-0.492
					c0-0.192-0.063-0.397-0.192-0.617c-0.128-0.218-0.314-0.423-0.556-0.62c-0.245-0.192-0.54-0.352-0.89-0.474
					c-0.353-0.123-0.737-0.184-1.157-0.184c-0.674,0-1.26,0.139-1.746,0.419c-0.486,0.279-0.859,0.674-1.113,1.183
					c-0.259,0.511-0.387,1.098-0.387,1.765c0,0.981,0.281,1.764,0.841,2.349c0.562,0.582,1.344,0.876,2.348,0.876
					c0.469,0,0.893-0.065,1.269-0.192c0.377-0.126,0.688-0.295,0.934-0.502c0.248-0.208,0.434-0.425,0.554-0.656
					c0.121-0.229,0.182-0.446,0.182-0.646c0-0.169-0.066-0.331-0.198-0.481C307.198,478.637,307.033,478.56,306.835,478.56z"/>
				<path id="XMLID_382_" style="fill:#6B411E;" d="M313.647,475.596c-0.288-0.29-0.629-0.518-1.027-0.674
					c-0.4-0.161-0.846-0.239-1.336-0.239c-0.483,0-0.924,0.078-1.326,0.234c-0.399,0.158-0.737,0.38-1.019,0.669
					c-0.281,0.288-0.498,0.636-0.649,1.045c-0.146,0.408-0.224,0.858-0.224,1.349c0,0.485,0.076,0.929,0.219,1.332
					c0.152,0.401,0.369,0.75,0.657,1.048c0.285,0.292,0.627,0.521,1.016,0.676c0.392,0.159,0.835,0.239,1.326,0.239
					c0.492,0,0.937-0.08,1.336-0.234c0.394-0.158,0.735-0.382,1.02-0.675c0.286-0.291,0.502-0.641,0.656-1.05
					c0.146-0.408,0.222-0.855,0.222-1.336c0-0.489-0.075-0.932-0.221-1.339C314.148,476.239,313.933,475.892,313.647,475.596z
					 M312.455,479.512c-0.29,0.372-0.682,0.557-1.171,0.557c-0.324,0-0.605-0.086-0.846-0.253c-0.24-0.168-0.423-0.409-0.553-0.729
					c-0.129-0.317-0.194-0.684-0.194-1.108c0-0.428,0.066-0.803,0.197-1.125c0.131-0.321,0.314-0.563,0.556-0.727
					c0.242-0.164,0.522-0.246,0.84-0.246c0.489,0,0.881,0.182,1.171,0.555c0.289,0.367,0.436,0.881,0.436,1.543
					C312.891,478.63,312.744,479.143,312.455,479.512z"/>
				<path id="XMLID_381_" style="fill:#6B411E;" d="M323.569,474.956c-0.32-0.173-0.705-0.262-1.146-0.262
					c-0.381,0-0.726,0.081-1.039,0.241c-0.313,0.161-0.607,0.408-0.881,0.738c-0.191-0.326-0.431-0.572-0.725-0.735
					c-0.292-0.162-0.641-0.243-1.048-0.243c-0.394,0-0.748,0.079-1.07,0.241c-0.319,0.156-0.619,0.403-0.903,0.738v-0.153
					c0-0.261-0.074-0.466-0.222-0.616c-0.15-0.145-0.334-0.221-0.557-0.221c-0.227,0-0.412,0.078-0.555,0.239
					c-0.14,0.157-0.21,0.389-0.21,0.694v4.636c0,0.336,0.078,0.591,0.235,0.765c0.156,0.171,0.357,0.258,0.604,0.258
					c0.248,0,0.447-0.087,0.603-0.258c0.15-0.173,0.226-0.428,0.226-0.765v-2.188c0-0.684,0.086-1.206,0.253-1.566
					c0.168-0.369,0.516-0.551,1.048-0.551c0.263,0,0.459,0.072,0.581,0.22c0.122,0.142,0.198,0.331,0.226,0.552
					c0.027,0.226,0.04,0.544,0.04,0.953v2.581c0,0.341,0.078,0.594,0.232,0.767c0.148,0.17,0.349,0.255,0.594,0.255
					c0.254,0,0.455-0.085,0.611-0.255c0.156-0.173,0.231-0.426,0.231-0.767v-2.154c0-0.694,0.062-1.178,0.178-1.452
					c0.109-0.209,0.259-0.383,0.45-0.508c0.192-0.125,0.395-0.192,0.609-0.192c0.264,0,0.463,0.072,0.596,0.215
					c0.128,0.142,0.209,0.319,0.239,0.529c0.029,0.209,0.043,0.486,0.043,0.836v2.725c0,0.336,0.079,0.591,0.235,0.765
					c0.157,0.171,0.356,0.258,0.603,0.258c0.253,0,0.458-0.085,0.612-0.255c0.154-0.173,0.229-0.426,0.229-0.767v-3.163
					c0-0.629-0.068-1.091-0.206-1.385C324.128,475.38,323.888,475.13,323.569,474.956z"/>
			</g>
			<g id="XMLID_366_">
				<path id="XMLID_379_" style="fill:#6B411E;" d="M245.273,477.587c-0.001-0.004-0.001-0.006-0.001-0.011
					C245.272,477.581,245.272,477.583,245.273,477.587z"/>
				<path id="XMLID_378_" style="fill:#6B411E;" d="M245.355,478.104c0.001,0,0.001,0,0.001,0c-0.031-0.147-0.055-0.294-0.073-0.438
					C245.301,477.812,245.326,477.959,245.355,478.104z"/>
				<path id="XMLID_377_" style="fill:#6B411E;" d="M245.891,479.609c-0.004-0.006-0.007-0.013-0.01-0.021
					C245.885,479.595,245.888,479.603,245.891,479.609z"/>
				<path id="XMLID_376_" style="fill:#6B411E;" d="M245.84,479.509c-0.014-0.027-0.027-0.056-0.041-0.084
					C245.813,479.454,245.826,479.481,245.84,479.509z"/>
				<path id="XMLID_375_" style="fill:#6B411E;" d="M245.506,478.684c0.079,0.25,0.175,0.492,0.286,0.724
					c-0.113-0.236-0.206-0.479-0.284-0.724H245.506z"/>
				<path id="XMLID_374_" style="fill:#6B411E;" d="M250.736,470.824l-0.076-0.259c0.299-0.063,0.524-0.329,0.524-0.646
					c0-0.364-0.297-0.659-0.66-0.659c-0.365,0-0.66,0.295-0.66,0.659c0,0.317,0.225,0.583,0.522,0.646l0.084,0.289
					c-1.021,0.14-1.834,0.539-1.834,0.539l0.144,0.441c0.618-0.206,1.153-0.331,1.64-0.383c0.476-0.051,0.834-0.073,1.126-0.073
					c0.314,0,0.544,0.025,0.809,0.069l0.075-0.476C252.429,470.971,251.698,470.746,250.736,470.824z"/>
				<path id="XMLID_373_" style="fill:#6B411E;" d="M245.453,473.331c-0.017,0.024-0.497,0.465-0.876,1.28
					c-0.016-0.026-0.035-0.051-0.056-0.074c-0.113-0.124-0.272-0.187-0.473-0.184c-0.002,0-0.006,0-0.01,0
					c-0.124,0-0.21-0.042-0.266-0.092c0.055-0.071,0.089-0.161,0.089-0.258c0-0.231-0.187-0.419-0.419-0.419
					c-0.23,0-0.417,0.188-0.417,0.419c0,0.231,0.187,0.417,0.417,0.417c0.037,0,0.071-0.005,0.105-0.012
					c0.102,0.113,0.265,0.214,0.504,0.209c0.123-0.001,0.214,0.031,0.273,0.097c0.07,0.076,0.093,0.185,0.1,0.267
					c-0.001,0.002-0.001,0.004-0.002,0.004c-0.272,0.743-0.195,1.668-0.195,1.668l0.661,0.026c0.013-0.336,0.062-0.926,0.232-1.393
					c0.328-0.906,0.741-1.472,0.757-1.496l0.004-0.005c0.024-0.031,0.047-0.06,0.071-0.089l-0.196-0.142L245.453,473.331z"/>
				<path id="XMLID_372_" style="fill:#6B411E;" d="M257.294,471.93c-0.23,0-0.418,0.187-0.418,0.417
					c0,0.037,0.006,0.071,0.015,0.104c-0.115,0.104-0.214,0.267-0.211,0.507c0.002,0.123-0.03,0.212-0.096,0.273
					c-0.053,0.047-0.12,0.072-0.185,0.088c-0.492-0.689-1.097-1.109-1.097-1.109l-0.474,0.508c0.358,0.326,0.724,0.734,1.08,1.244
					c0.246,0.352,0.499,0.806,0.71,1.259l0.64-0.304c0,0-0.292-0.722-0.704-1.369c0.071-0.025,0.143-0.064,0.207-0.12
					c0.125-0.113,0.187-0.273,0.183-0.474c-0.001-0.13,0.042-0.218,0.093-0.276c0.071,0.054,0.16,0.089,0.257,0.089
					c0.232,0,0.419-0.187,0.419-0.419C257.712,472.117,257.525,471.93,257.294,471.93z"/>
				<path id="XMLID_371_" style="fill:#6B411E;" d="M255.633,477.68c-0.88,0.429-2.33,0.996-4.237,1.262
					c-0.749,0.104-1.474,0.142-2.143,0.142c-0.869,0-1.637-0.065-2.226-0.139c-0.672-0.085-1.198-0.189-1.52-0.261
					c0.078,0.245,0.171,0.488,0.284,0.724c0.002,0.006,0.005,0.013,0.008,0.017c0.014,0.027,0.027,0.056,0.041,0.084
					c0.013,0.027,0.027,0.054,0.041,0.079c0.004,0.007,0.007,0.015,0.01,0.021c0.189,0.357,0.417,0.684,0.675,0.968
					c0.9,0.984,1.816,1.139,1.825,1.141l0.015,0.002l0.013,0.005c0.009,0.003,0.821,0.265,2.057,0.265
					c1.216,0,2.409-0.245,3.545-0.729c0.842-0.431,1.639-1.085,2.033-1.668c0.305-0.452,0.526-0.934,0.656-1.433
					c0.07-0.266,0.125-0.693,0.092-1.141C256.555,477.185,256.163,477.422,255.633,477.68z"/>
				<path id="XMLID_367_" style="fill:#6B411E;" d="M252.322,471.798c-0.264-0.043-0.477-0.068-0.777-0.068
					c-0.279,0-0.626,0.023-1.089,0.071c-0.465,0.049-0.982,0.171-1.583,0.373c-0.842,0.282-1.604,0.724-2.204,1.28l-0.02,0.019
					c-0.089,0.081-0.275,0.254-0.488,0.526c-0.026,0.037-0.408,0.578-0.709,1.408c-0.226,0.622-0.216,1.527-0.216,1.537v0.002
					c0,0.212,0.012,0.423,0.035,0.632c0,0.005,0,0.007,0.001,0.011c0.003,0.027,0.007,0.052,0.01,0.079
					c0.018,0.144,0.043,0.291,0.074,0.438c0.438,0.112,3.048,0.721,5.966,0.314c1.829-0.254,3.218-0.795,4.061-1.204
					c0.701-0.34,1.151-0.647,1.325-0.774c-0.173-0.643-0.651-1.65-1.089-2.279C254.367,472.372,253.016,471.912,252.322,471.798z
					 M248.679,477.057c-0.971,0-1.759-0.787-1.759-1.759c0-0.972,0.788-1.76,1.759-1.76c0.973,0,1.761,0.788,1.761,1.76
					C250.439,476.27,249.652,477.057,248.679,477.057z M253.829,475.76c-0.601,0-1.089-0.489-1.089-1.09
					c0-0.602,0.487-1.089,1.089-1.089c0.601,0,1.089,0.487,1.089,1.089C254.918,475.271,254.429,475.76,253.829,475.76z"/>
			</g>
		</g>
	</g>
</g>
</svg>
